{
	"patcher" : 	{
		"fileversion" : 1,
		"rect" : [ 66.0, 44.0, 1254.0, 763.0 ],
		"bglocked" : 0,
		"defrect" : [ 66.0, 44.0, 1254.0, 763.0 ],
		"openrect" : [ 0.0, 0.0, 0.0, 0.0 ],
		"openinpresentation" : 0,
		"default_fontsize" : 12.0,
		"default_fontface" : 0,
		"default_fontname" : "Arial",
		"gridonopen" : 0,
		"gridsize" : [ 4.0, 4.0 ],
		"gridsnaponopen" : 0,
		"toolbarvisible" : 1,
		"boxanimatetime" : 200,
		"imprint" : 0,
		"enablehscroll" : 1,
		"enablevscroll" : 1,
		"devicewidth" : 0.0,
		"boxes" : [ 			{
				"box" : 				{
					"maxclass" : "newobj",
					"text" : "prepend nonparametric",
					"patching_rect" : [ 1100.0, 84.0, 135.0, 20.0 ],
					"id" : "obj-104",
					"fontname" : "Arial",
					"numinlets" : 1,
					"numoutlets" : 1,
					"fontsize" : 12.0,
					"outlettype" : [ "" ]
				}

			}
, 			{
				"box" : 				{
					"maxclass" : "newobj",
					"text" : "randdist",
					"patching_rect" : [ 1100.0, 108.0, 53.0, 20.0 ],
					"id" : "obj-103",
					"fontname" : "Arial",
					"numinlets" : 1,
					"numoutlets" : 1,
					"fontsize" : 12.0,
					"outlettype" : [ "" ]
				}

			}
, 			{
				"box" : 				{
					"maxclass" : "newobj",
					"text" : "/~ 2",
					"patching_rect" : [ 788.0, 84.0, 32.5, 20.0 ],
					"id" : "obj-102",
					"fontname" : "Arial",
					"numinlets" : 2,
					"numoutlets" : 1,
					"fontsize" : 12.0,
					"outlettype" : [ "signal" ]
				}

			}
, 			{
				"box" : 				{
					"maxclass" : "newobj",
					"text" : "+~ 1",
					"patching_rect" : [ 788.0, 60.0, 35.0, 20.0 ],
					"id" : "obj-101",
					"fontname" : "Arial",
					"numinlets" : 2,
					"numoutlets" : 1,
					"fontsize" : 12.0,
					"outlettype" : [ "signal" ]
				}

			}
, 			{
				"box" : 				{
					"maxclass" : "newobj",
					"text" : "cycle~ 0.01",
					"patching_rect" : [ 788.0, 36.0, 72.0, 20.0 ],
					"id" : "obj-97",
					"fontname" : "Arial",
					"numinlets" : 2,
					"numoutlets" : 1,
					"fontsize" : 12.0,
					"outlettype" : [ "signal" ]
				}

			}
, 			{
				"box" : 				{
					"maxclass" : "flonum",
					"patching_rect" : [ 888.0, 28.0, 50.0, 20.0 ],
					"id" : "obj-100",
					"fontname" : "Arial",
					"numinlets" : 1,
					"numoutlets" : 2,
					"fontsize" : 12.0,
					"outlettype" : [ "float", "bang" ]
				}

			}
, 			{
				"box" : 				{
					"maxclass" : "newobj",
					"text" : "*~ 50.",
					"patching_rect" : [ 788.0, 124.0, 42.0, 20.0 ],
					"id" : "obj-99",
					"fontname" : "Arial",
					"numinlets" : 2,
					"numoutlets" : 1,
					"fontsize" : 12.0,
					"outlettype" : [ "signal" ]
				}

			}
, 			{
				"box" : 				{
					"maxclass" : "newobj",
					"text" : "snapshot~ 1",
					"patching_rect" : [ 788.0, 148.0, 76.0, 20.0 ],
					"id" : "obj-98",
					"fontname" : "Arial",
					"numinlets" : 2,
					"numoutlets" : 1,
					"fontsize" : 12.0,
					"outlettype" : [ "float" ]
				}

			}
, 			{
				"box" : 				{
					"maxclass" : "newobj",
					"text" : "+ 0.5",
					"patching_rect" : [ 244.0, 96.0, 38.0, 20.0 ],
					"id" : "obj-95",
					"fontname" : "Arial",
					"numinlets" : 2,
					"numoutlets" : 1,
					"fontsize" : 12.0,
					"outlettype" : [ "float" ]
				}

			}
, 			{
				"box" : 				{
					"maxclass" : "newobj",
					"text" : "i",
					"patching_rect" : [ 252.0, 120.0, 32.5, 20.0 ],
					"id" : "obj-94",
					"fontname" : "Arial",
					"numinlets" : 2,
					"numoutlets" : 1,
					"fontsize" : 12.0,
					"outlettype" : [ "int" ]
				}

			}
, 			{
				"box" : 				{
					"maxclass" : "newobj",
					"text" : "mtof",
					"patching_rect" : [ 236.0, 72.0, 34.0, 20.0 ],
					"id" : "obj-86",
					"fontname" : "Arial",
					"numinlets" : 1,
					"numoutlets" : 1,
					"fontsize" : 12.0,
					"outlettype" : [ "" ]
				}

			}
, 			{
				"box" : 				{
					"maxclass" : "kslider",
					"patching_rect" : [ 236.0, 12.0, 336.0, 53.0 ],
					"id" : "obj-85",
					"numinlets" : 2,
					"numoutlets" : 2,
					"outlettype" : [ "int", "int" ]
				}

			}
, 			{
				"box" : 				{
					"maxclass" : "newobj",
					"text" : "receive~ /sig_mig/10",
					"patching_rect" : [ 52.0, 424.0, 121.0, 20.0 ],
					"id" : "obj-76",
					"fontname" : "Arial",
					"numinlets" : 1,
					"numoutlets" : 1,
					"fontsize" : 12.0,
					"outlettype" : [ "signal" ]
				}

			}
, 			{
				"box" : 				{
					"maxclass" : "newobj",
					"text" : "receive~ /sig_mig/9",
					"patching_rect" : [ 40.0, 404.0, 114.0, 20.0 ],
					"id" : "obj-82",
					"fontname" : "Arial",
					"numinlets" : 1,
					"numoutlets" : 1,
					"fontsize" : 12.0,
					"outlettype" : [ "signal" ]
				}

			}
, 			{
				"box" : 				{
					"maxclass" : "message",
					"text" : "weights 0., values 0.",
					"patching_rect" : [ 44.0, 72.0, 119.0, 18.0 ],
					"id" : "obj-71",
					"fontname" : "Arial",
					"numinlets" : 2,
					"numoutlets" : 1,
					"fontsize" : 12.0,
					"outlettype" : [ "" ]
				}

			}
, 			{
				"box" : 				{
					"maxclass" : "message",
					"text" : "weights 1., values 880.",
					"patching_rect" : [ 44.0, 48.0, 133.0, 18.0 ],
					"id" : "obj-84",
					"fontname" : "Arial",
					"numinlets" : 2,
					"numoutlets" : 1,
					"fontsize" : 12.0,
					"outlettype" : [ "" ]
				}

			}
, 			{
				"box" : 				{
					"maxclass" : "newobj",
					"text" : "t b b",
					"patching_rect" : [ 740.0, 264.0, 34.0, 20.0 ],
					"id" : "obj-75",
					"fontname" : "Arial",
					"numinlets" : 1,
					"numoutlets" : 2,
					"fontsize" : 12.0,
					"outlettype" : [ "bang", "bang" ]
				}

			}
, 			{
				"box" : 				{
					"maxclass" : "message",
					"text" : "0 0",
					"patching_rect" : [ 104.0, 232.0, 32.5, 18.0 ],
					"id" : "obj-74",
					"fontname" : "Arial",
					"numinlets" : 2,
					"numoutlets" : 1,
					"fontsize" : 12.0,
					"outlettype" : [ "" ]
				}

			}
, 			{
				"box" : 				{
					"maxclass" : "message",
					"text" : "0 0",
					"patching_rect" : [ 68.0, 232.0, 32.5, 18.0 ],
					"id" : "obj-73",
					"fontname" : "Arial",
					"numinlets" : 2,
					"numoutlets" : 1,
					"fontsize" : 12.0,
					"outlettype" : [ "" ]
				}

			}
, 			{
				"box" : 				{
					"maxclass" : "button",
					"patching_rect" : [ 748.0, 200.0, 20.0, 20.0 ],
					"id" : "obj-72",
					"numinlets" : 1,
					"numoutlets" : 1,
					"outlettype" : [ "bang" ]
				}

			}
, 			{
				"box" : 				{
					"maxclass" : "newobj",
					"text" : "t b l",
					"patching_rect" : [ 760.0, 356.0, 32.5, 20.0 ],
					"id" : "obj-70",
					"fontname" : "Arial",
					"numinlets" : 1,
					"numoutlets" : 2,
					"fontsize" : 12.0,
					"outlettype" : [ "bang", "" ]
				}

			}
, 			{
				"box" : 				{
					"maxclass" : "newobj",
					"text" : "del 2000",
					"patching_rect" : [ 760.0, 380.0, 57.0, 20.0 ],
					"id" : "obj-69",
					"fontname" : "Arial",
					"numinlets" : 2,
					"numoutlets" : 1,
					"fontsize" : 12.0,
					"outlettype" : [ "bang" ]
				}

			}
, 			{
				"box" : 				{
					"maxclass" : "newobj",
					"text" : "zl reg",
					"patching_rect" : [ 760.0, 404.0, 40.0, 20.0 ],
					"id" : "obj-45",
					"fontname" : "Arial",
					"numinlets" : 2,
					"numoutlets" : 2,
					"fontsize" : 12.0,
					"outlettype" : [ "", "" ]
				}

			}
, 			{
				"box" : 				{
					"maxclass" : "message",
					"text" : "0 0",
					"patching_rect" : [ 748.0, 332.0, 32.5, 18.0 ],
					"id" : "obj-40",
					"fontname" : "Arial",
					"numinlets" : 2,
					"numoutlets" : 1,
					"fontsize" : 12.0,
					"outlettype" : [ "" ]
				}

			}
, 			{
				"box" : 				{
					"maxclass" : "newobj",
					"text" : "nothing del 5000",
					"patching_rect" : [ 808.0, 304.0, 113.5, 20.0 ],
					"id" : "obj-13",
					"fontname" : "Arial",
					"numinlets" : 8,
					"numoutlets" : 8,
					"fontsize" : 12.0,
					"outlettype" : [ "bang", "", "", "", "", "", "", "" ]
				}

			}
, 			{
				"box" : 				{
					"maxclass" : "message",
					"text" : "25",
					"patching_rect" : [ 308.0, 692.0, 32.5, 18.0 ],
					"id" : "obj-152",
					"fontname" : "Arial",
					"numinlets" : 2,
					"numoutlets" : 1,
					"fontsize" : 12.0,
					"outlettype" : [ "" ]
				}

			}
, 			{
				"box" : 				{
					"maxclass" : "newobj",
					"text" : "t b f",
					"patching_rect" : [ 308.0, 716.0, 32.5, 20.0 ],
					"id" : "obj-151",
					"fontname" : "Arial",
					"numinlets" : 1,
					"numoutlets" : 2,
					"fontsize" : 12.0,
					"outlettype" : [ "bang", "float" ]
				}

			}
, 			{
				"box" : 				{
					"maxclass" : "gain~",
					"patching_rect" : [ 920.0, 600.0, 20.0, 140.0 ],
					"id" : "obj-142",
					"numinlets" : 2,
					"numoutlets" : 2,
					"outlettype" : [ "signal", "int" ]
				}

			}
, 			{
				"box" : 				{
					"maxclass" : "gain~",
					"patching_rect" : [ 1084.0, 600.0, 20.0, 140.0 ],
					"id" : "obj-143",
					"numinlets" : 2,
					"numoutlets" : 2,
					"outlettype" : [ "signal", "int" ]
				}

			}
, 			{
				"box" : 				{
					"maxclass" : "gain~",
					"patching_rect" : [ 1064.0, 600.0, 20.0, 140.0 ],
					"id" : "obj-144",
					"numinlets" : 2,
					"numoutlets" : 2,
					"outlettype" : [ "signal", "int" ]
				}

			}
, 			{
				"box" : 				{
					"maxclass" : "gain~",
					"patching_rect" : [ 1044.0, 600.0, 20.0, 140.0 ],
					"id" : "obj-145",
					"numinlets" : 2,
					"numoutlets" : 2,
					"outlettype" : [ "signal", "int" ]
				}

			}
, 			{
				"box" : 				{
					"maxclass" : "gain~",
					"patching_rect" : [ 1024.0, 600.0, 20.0, 140.0 ],
					"id" : "obj-146",
					"numinlets" : 2,
					"numoutlets" : 2,
					"outlettype" : [ "signal", "int" ]
				}

			}
, 			{
				"box" : 				{
					"maxclass" : "gain~",
					"patching_rect" : [ 1004.0, 600.0, 20.0, 140.0 ],
					"id" : "obj-147",
					"numinlets" : 2,
					"numoutlets" : 2,
					"outlettype" : [ "signal", "int" ]
				}

			}
, 			{
				"box" : 				{
					"maxclass" : "gain~",
					"patching_rect" : [ 984.0, 600.0, 20.0, 140.0 ],
					"id" : "obj-148",
					"numinlets" : 2,
					"numoutlets" : 2,
					"outlettype" : [ "signal", "int" ]
				}

			}
, 			{
				"box" : 				{
					"maxclass" : "gain~",
					"patching_rect" : [ 964.0, 600.0, 20.0, 140.0 ],
					"id" : "obj-149",
					"numinlets" : 2,
					"numoutlets" : 2,
					"outlettype" : [ "signal", "int" ]
				}

			}
, 			{
				"box" : 				{
					"maxclass" : "gain~",
					"patching_rect" : [ 944.0, 600.0, 20.0, 140.0 ],
					"id" : "obj-150",
					"numinlets" : 2,
					"numoutlets" : 2,
					"outlettype" : [ "signal", "int" ]
				}

			}
, 			{
				"box" : 				{
					"maxclass" : "newobj",
					"text" : "scale 0. 20. 0. 360.",
					"patching_rect" : [ 256.0, 652.0, 112.0, 20.0 ],
					"id" : "obj-141",
					"fontname" : "Arial",
					"numinlets" : 6,
					"numoutlets" : 1,
					"fontsize" : 12.0,
					"outlettype" : [ "" ]
				}

			}
, 			{
				"box" : 				{
					"maxclass" : "newobj",
					"text" : "t b f",
					"patching_rect" : [ 256.0, 680.0, 32.5, 20.0 ],
					"id" : "obj-140",
					"fontname" : "Arial",
					"numinlets" : 1,
					"numoutlets" : 2,
					"fontsize" : 12.0,
					"outlettype" : [ "bang", "float" ]
				}

			}
, 			{
				"box" : 				{
					"maxclass" : "spectroscope~",
					"patching_rect" : [ 824.0, 724.0, 64.0, 32.0 ],
					"logfreq" : 1,
					"id" : "obj-132",
					"numinlets" : 2,
					"numoutlets" : 1,
					"outlettype" : [ "" ]
				}

			}
, 			{
				"box" : 				{
					"maxclass" : "spectroscope~",
					"patching_rect" : [ 760.0, 724.0, 64.0, 32.0 ],
					"logfreq" : 1,
					"id" : "obj-133",
					"numinlets" : 2,
					"numoutlets" : 1,
					"outlettype" : [ "" ]
				}

			}
, 			{
				"box" : 				{
					"maxclass" : "spectroscope~",
					"patching_rect" : [ 696.0, 724.0, 64.0, 32.0 ],
					"logfreq" : 1,
					"id" : "obj-134",
					"numinlets" : 2,
					"numoutlets" : 1,
					"outlettype" : [ "" ]
				}

			}
, 			{
				"box" : 				{
					"maxclass" : "spectroscope~",
					"patching_rect" : [ 632.0, 724.0, 64.0, 32.0 ],
					"logfreq" : 1,
					"id" : "obj-135",
					"numinlets" : 2,
					"numoutlets" : 1,
					"outlettype" : [ "" ]
				}

			}
, 			{
				"box" : 				{
					"maxclass" : "spectroscope~",
					"patching_rect" : [ 568.0, 724.0, 64.0, 32.0 ],
					"logfreq" : 1,
					"id" : "obj-136",
					"numinlets" : 2,
					"numoutlets" : 1,
					"outlettype" : [ "" ]
				}

			}
, 			{
				"box" : 				{
					"maxclass" : "spectroscope~",
					"patching_rect" : [ 504.0, 724.0, 64.0, 32.0 ],
					"logfreq" : 1,
					"id" : "obj-137",
					"numinlets" : 2,
					"numoutlets" : 1,
					"outlettype" : [ "" ]
				}

			}
, 			{
				"box" : 				{
					"maxclass" : "spectroscope~",
					"patching_rect" : [ 440.0, 724.0, 64.0, 32.0 ],
					"logfreq" : 1,
					"id" : "obj-138",
					"numinlets" : 2,
					"numoutlets" : 1,
					"outlettype" : [ "" ]
				}

			}
, 			{
				"box" : 				{
					"maxclass" : "spectroscope~",
					"patching_rect" : [ 376.0, 724.0, 64.0, 32.0 ],
					"logfreq" : 1,
					"id" : "obj-139",
					"numinlets" : 2,
					"numoutlets" : 1,
					"outlettype" : [ "" ]
				}

			}
, 			{
				"box" : 				{
					"maxclass" : "newobj",
					"text" : "matrix~ 1 8 0.",
					"patching_rect" : [ 376.0, 700.0, 127.0, 20.0 ],
					"id" : "obj-131",
					"fontname" : "Arial",
					"numinlets" : 1,
					"numoutlets" : 9,
					"fontsize" : 12.0,
					"outlettype" : [ "signal", "signal", "signal", "signal", "signal", "signal", "signal", "signal", "list" ]
				}

			}
, 			{
				"box" : 				{
					"maxclass" : "message",
					"text" : "define_loudspeakers 2 -45 0 45 90 135 180 -135 -90",
					"patching_rect" : [ 376.0, 656.0, 290.0, 18.0 ],
					"id" : "obj-130",
					"fontname" : "Arial",
					"numinlets" : 2,
					"numoutlets" : 1,
					"fontsize" : 12.0,
					"outlettype" : [ "" ]
				}

			}
, 			{
				"box" : 				{
					"maxclass" : "newobj",
					"text" : "vbap",
					"patching_rect" : [ 376.0, 676.0, 73.0, 20.0 ],
					"id" : "obj-129",
					"fontname" : "Arial",
					"numinlets" : 5,
					"numoutlets" : 5,
					"fontsize" : 12.0,
					"outlettype" : [ "list", "int", "int", "int", "float" ]
				}

			}
, 			{
				"box" : 				{
					"maxclass" : "spectroscope~",
					"patching_rect" : [ 824.0, 620.0, 64.0, 32.0 ],
					"logfreq" : 1,
					"id" : "obj-128",
					"numinlets" : 2,
					"numoutlets" : 1,
					"outlettype" : [ "" ]
				}

			}
, 			{
				"box" : 				{
					"maxclass" : "spectroscope~",
					"patching_rect" : [ 760.0, 620.0, 64.0, 32.0 ],
					"logfreq" : 1,
					"id" : "obj-127",
					"numinlets" : 2,
					"numoutlets" : 1,
					"outlettype" : [ "" ]
				}

			}
, 			{
				"box" : 				{
					"maxclass" : "spectroscope~",
					"patching_rect" : [ 696.0, 620.0, 64.0, 32.0 ],
					"logfreq" : 1,
					"id" : "obj-126",
					"numinlets" : 2,
					"numoutlets" : 1,
					"outlettype" : [ "" ]
				}

			}
, 			{
				"box" : 				{
					"maxclass" : "spectroscope~",
					"patching_rect" : [ 632.0, 620.0, 64.0, 32.0 ],
					"logfreq" : 1,
					"id" : "obj-125",
					"numinlets" : 2,
					"numoutlets" : 1,
					"outlettype" : [ "" ]
				}

			}
, 			{
				"box" : 				{
					"maxclass" : "spectroscope~",
					"patching_rect" : [ 568.0, 620.0, 64.0, 32.0 ],
					"logfreq" : 1,
					"id" : "obj-124",
					"numinlets" : 2,
					"numoutlets" : 1,
					"outlettype" : [ "" ]
				}

			}
, 			{
				"box" : 				{
					"maxclass" : "spectroscope~",
					"patching_rect" : [ 504.0, 620.0, 64.0, 32.0 ],
					"logfreq" : 1,
					"id" : "obj-123",
					"numinlets" : 2,
					"numoutlets" : 1,
					"outlettype" : [ "" ]
				}

			}
, 			{
				"box" : 				{
					"maxclass" : "spectroscope~",
					"patching_rect" : [ 440.0, 620.0, 64.0, 32.0 ],
					"logfreq" : 1,
					"id" : "obj-122",
					"numinlets" : 2,
					"numoutlets" : 1,
					"outlettype" : [ "" ]
				}

			}
, 			{
				"box" : 				{
					"maxclass" : "spectroscope~",
					"patching_rect" : [ 376.0, 620.0, 64.0, 32.0 ],
					"logfreq" : 1,
					"id" : "obj-121",
					"numinlets" : 2,
					"numoutlets" : 1,
					"outlettype" : [ "" ]
				}

			}
, 			{
				"box" : 				{
					"maxclass" : "gain~",
					"patching_rect" : [ 376.0, 468.0, 20.0, 140.0 ],
					"id" : "obj-112",
					"numinlets" : 2,
					"numoutlets" : 2,
					"outlettype" : [ "signal", "int" ]
				}

			}
, 			{
				"box" : 				{
					"maxclass" : "gain~",
					"patching_rect" : [ 540.0, 468.0, 20.0, 140.0 ],
					"id" : "obj-113",
					"numinlets" : 2,
					"numoutlets" : 2,
					"outlettype" : [ "signal", "int" ]
				}

			}
, 			{
				"box" : 				{
					"maxclass" : "gain~",
					"patching_rect" : [ 520.0, 468.0, 20.0, 140.0 ],
					"id" : "obj-114",
					"numinlets" : 2,
					"numoutlets" : 2,
					"outlettype" : [ "signal", "int" ]
				}

			}
, 			{
				"box" : 				{
					"maxclass" : "gain~",
					"patching_rect" : [ 500.0, 468.0, 20.0, 140.0 ],
					"id" : "obj-115",
					"numinlets" : 2,
					"numoutlets" : 2,
					"outlettype" : [ "signal", "int" ]
				}

			}
, 			{
				"box" : 				{
					"maxclass" : "gain~",
					"patching_rect" : [ 480.0, 468.0, 20.0, 140.0 ],
					"id" : "obj-116",
					"numinlets" : 2,
					"numoutlets" : 2,
					"outlettype" : [ "signal", "int" ]
				}

			}
, 			{
				"box" : 				{
					"maxclass" : "gain~",
					"patching_rect" : [ 460.0, 468.0, 20.0, 140.0 ],
					"id" : "obj-117",
					"numinlets" : 2,
					"numoutlets" : 2,
					"outlettype" : [ "signal", "int" ]
				}

			}
, 			{
				"box" : 				{
					"maxclass" : "gain~",
					"patching_rect" : [ 440.0, 468.0, 20.0, 140.0 ],
					"id" : "obj-118",
					"numinlets" : 2,
					"numoutlets" : 2,
					"outlettype" : [ "signal", "int" ]
				}

			}
, 			{
				"box" : 				{
					"maxclass" : "gain~",
					"patching_rect" : [ 420.0, 468.0, 20.0, 140.0 ],
					"id" : "obj-119",
					"numinlets" : 2,
					"numoutlets" : 2,
					"outlettype" : [ "signal", "int" ]
				}

			}
, 			{
				"box" : 				{
					"maxclass" : "gain~",
					"patching_rect" : [ 400.0, 468.0, 20.0, 140.0 ],
					"id" : "obj-120",
					"numinlets" : 2,
					"numoutlets" : 2,
					"outlettype" : [ "signal", "int" ]
				}

			}
, 			{
				"box" : 				{
					"maxclass" : "message",
					"text" : "2",
					"patching_rect" : [ 516.0, 408.0, 32.5, 18.0 ],
					"id" : "obj-111",
					"fontname" : "Arial",
					"numinlets" : 2,
					"numoutlets" : 1,
					"fontsize" : 12.0,
					"outlettype" : [ "" ]
				}

			}
, 			{
				"box" : 				{
					"maxclass" : "newobj",
					"text" : "p",
					"patching_rect" : [ 400.0, 436.0, 136.0, 20.0 ],
					"id" : "obj-110",
					"fontname" : "Arial",
					"numinlets" : 2,
					"numoutlets" : 8,
					"fontsize" : 12.0,
					"outlettype" : [ "signal", "signal", "signal", "signal", "signal", "signal", "signal", "signal" ],
					"patcher" : 					{
						"fileversion" : 1,
						"rect" : [ -1247.0, 167.0, 1222.0, 727.0 ],
						"bglocked" : 0,
						"defrect" : [ -1247.0, 167.0, 1222.0, 727.0 ],
						"openrect" : [ 0.0, 0.0, 0.0, 0.0 ],
						"openinpresentation" : 0,
						"default_fontsize" : 12.0,
						"default_fontface" : 0,
						"default_fontname" : "Arial",
						"gridonopen" : 0,
						"gridsize" : [ 4.0, 4.0 ],
						"gridsnaponopen" : 0,
						"toolbarvisible" : 1,
						"boxanimatetime" : 200,
						"imprint" : 0,
						"enablehscroll" : 1,
						"enablevscroll" : 1,
						"devicewidth" : 0.0,
						"boxes" : [ 							{
								"box" : 								{
									"maxclass" : "outlet",
									"patching_rect" : [ 660.0, 596.0, 25.0, 25.0 ],
									"id" : "obj-19",
									"numinlets" : 1,
									"numoutlets" : 0,
									"comment" : ""
								}

							}
, 							{
								"box" : 								{
									"maxclass" : "outlet",
									"patching_rect" : [ 592.0, 596.0, 25.0, 25.0 ],
									"id" : "obj-18",
									"numinlets" : 1,
									"numoutlets" : 0,
									"comment" : ""
								}

							}
, 							{
								"box" : 								{
									"maxclass" : "outlet",
									"patching_rect" : [ 524.0, 596.0, 25.0, 25.0 ],
									"id" : "obj-17",
									"numinlets" : 1,
									"numoutlets" : 0,
									"comment" : ""
								}

							}
, 							{
								"box" : 								{
									"maxclass" : "outlet",
									"patching_rect" : [ 456.0, 596.0, 25.0, 25.0 ],
									"id" : "obj-16",
									"numinlets" : 1,
									"numoutlets" : 0,
									"comment" : ""
								}

							}
, 							{
								"box" : 								{
									"maxclass" : "outlet",
									"patching_rect" : [ 388.0, 596.0, 25.0, 25.0 ],
									"id" : "obj-15",
									"numinlets" : 1,
									"numoutlets" : 0,
									"comment" : ""
								}

							}
, 							{
								"box" : 								{
									"maxclass" : "outlet",
									"patching_rect" : [ 320.0, 596.0, 25.0, 25.0 ],
									"id" : "obj-14",
									"numinlets" : 1,
									"numoutlets" : 0,
									"comment" : ""
								}

							}
, 							{
								"box" : 								{
									"maxclass" : "outlet",
									"patching_rect" : [ 252.0, 596.0, 25.0, 25.0 ],
									"id" : "obj-12",
									"numinlets" : 1,
									"numoutlets" : 0,
									"comment" : ""
								}

							}
, 							{
								"box" : 								{
									"maxclass" : "outlet",
									"patching_rect" : [ 184.0, 596.0, 25.0, 25.0 ],
									"id" : "obj-11",
									"numinlets" : 1,
									"numoutlets" : 0,
									"comment" : ""
								}

							}
, 							{
								"box" : 								{
									"maxclass" : "newobj",
									"text" : "t b l",
									"patching_rect" : [ 484.0, 92.0, 32.5, 20.0 ],
									"id" : "obj-10",
									"fontname" : "Arial",
									"numinlets" : 1,
									"numoutlets" : 2,
									"fontsize" : 12.0,
									"outlettype" : [ "bang", "" ]
								}

							}
, 							{
								"box" : 								{
									"maxclass" : "newobj",
									"text" : "zl delace",
									"patching_rect" : [ 500.0, 120.0, 58.0, 20.0 ],
									"id" : "obj-9",
									"fontname" : "Arial",
									"numinlets" : 2,
									"numoutlets" : 2,
									"fontsize" : 12.0,
									"outlettype" : [ "", "" ]
								}

							}
, 							{
								"box" : 								{
									"maxclass" : "inlet",
									"patching_rect" : [ 472.0, 16.0, 25.0, 25.0 ],
									"id" : "obj-4",
									"numinlets" : 0,
									"numoutlets" : 1,
									"outlettype" : [ "" ],
									"comment" : ""
								}

							}
, 							{
								"box" : 								{
									"maxclass" : "newobj",
									"text" : "gate 2",
									"patching_rect" : [ 376.0, 76.0, 44.0, 20.0 ],
									"id" : "obj-3",
									"fontname" : "Arial",
									"numinlets" : 2,
									"numoutlets" : 2,
									"fontsize" : 12.0,
									"outlettype" : [ "", "" ]
								}

							}
, 							{
								"box" : 								{
									"maxclass" : "newobj",
									"text" : "zl reg",
									"patching_rect" : [ 404.0, 300.0, 40.0, 20.0 ],
									"id" : "obj-2",
									"fontname" : "Arial",
									"numinlets" : 2,
									"numoutlets" : 2,
									"fontsize" : 12.0,
									"outlettype" : [ "", "" ]
								}

							}
, 							{
								"box" : 								{
									"maxclass" : "newobj",
									"text" : "t 1 l",
									"patching_rect" : [ 376.0, 48.0, 32.5, 20.0 ],
									"id" : "obj-1",
									"fontname" : "Arial",
									"numinlets" : 1,
									"numoutlets" : 2,
									"fontsize" : 12.0,
									"outlettype" : [ "int", "" ]
								}

							}
, 							{
								"box" : 								{
									"maxclass" : "newobj",
									"text" : "list-accum 1000",
									"patching_rect" : [ 472.0, 540.0, 95.0, 20.0 ],
									"id" : "obj-105",
									"fontname" : "Arial",
									"numinlets" : 1,
									"numoutlets" : 2,
									"fontsize" : 12.0,
									"outlettype" : [ "", "int" ]
								}

							}
, 							{
								"box" : 								{
									"maxclass" : "newobj",
									"text" : "list-accum 1000",
									"patching_rect" : [ 376.0, 540.0, 95.0, 20.0 ],
									"id" : "obj-106",
									"fontname" : "Arial",
									"numinlets" : 1,
									"numoutlets" : 2,
									"fontsize" : 12.0,
									"outlettype" : [ "", "int" ]
								}

							}
, 							{
								"box" : 								{
									"maxclass" : "newobj",
									"text" : "list-accum 1000",
									"patching_rect" : [ 280.0, 540.0, 95.0, 20.0 ],
									"id" : "obj-107",
									"fontname" : "Arial",
									"numinlets" : 1,
									"numoutlets" : 2,
									"fontsize" : 12.0,
									"outlettype" : [ "", "int" ]
								}

							}
, 							{
								"box" : 								{
									"maxclass" : "newobj",
									"text" : "list-accum 1000",
									"patching_rect" : [ 184.0, 540.0, 95.0, 20.0 ],
									"id" : "obj-108",
									"fontname" : "Arial",
									"numinlets" : 1,
									"numoutlets" : 2,
									"fontsize" : 12.0,
									"outlettype" : [ "", "int" ]
								}

							}
, 							{
								"box" : 								{
									"maxclass" : "newobj",
									"text" : "list-accum 1000",
									"patching_rect" : [ 856.0, 540.0, 95.0, 20.0 ],
									"id" : "obj-104",
									"fontname" : "Arial",
									"numinlets" : 1,
									"numoutlets" : 2,
									"fontsize" : 12.0,
									"outlettype" : [ "", "int" ]
								}

							}
, 							{
								"box" : 								{
									"maxclass" : "newobj",
									"text" : "list-accum 1000",
									"patching_rect" : [ 760.0, 540.0, 95.0, 20.0 ],
									"id" : "obj-103",
									"fontname" : "Arial",
									"numinlets" : 1,
									"numoutlets" : 2,
									"fontsize" : 12.0,
									"outlettype" : [ "", "int" ]
								}

							}
, 							{
								"box" : 								{
									"maxclass" : "newobj",
									"text" : "list-accum 1000",
									"patching_rect" : [ 664.0, 540.0, 95.0, 20.0 ],
									"id" : "obj-102",
									"fontname" : "Arial",
									"numinlets" : 1,
									"numoutlets" : 2,
									"fontsize" : 12.0,
									"outlettype" : [ "", "int" ]
								}

							}
, 							{
								"box" : 								{
									"maxclass" : "newobj",
									"text" : "list-accum 1000",
									"patching_rect" : [ 568.0, 540.0, 95.0, 20.0 ],
									"id" : "obj-101",
									"fontname" : "Arial",
									"numinlets" : 1,
									"numoutlets" : 2,
									"fontsize" : 12.0,
									"outlettype" : [ "", "int" ]
								}

							}
, 							{
								"box" : 								{
									"maxclass" : "newobj",
									"text" : "t b l",
									"patching_rect" : [ 404.0, 356.0, 32.5, 20.0 ],
									"id" : "obj-100",
									"fontname" : "Arial",
									"numinlets" : 1,
									"numoutlets" : 2,
									"fontsize" : 12.0,
									"outlettype" : [ "bang", "" ]
								}

							}
, 							{
								"box" : 								{
									"maxclass" : "newobj",
									"text" : "pack 0 0. 0.",
									"patching_rect" : [ 404.0, 456.0, 73.0, 20.0 ],
									"id" : "obj-99",
									"fontname" : "Arial",
									"numinlets" : 3,
									"numoutlets" : 1,
									"fontsize" : 12.0,
									"outlettype" : [ "" ]
								}

							}
, 							{
								"box" : 								{
									"maxclass" : "newobj",
									"text" : "% 8",
									"patching_rect" : [ 404.0, 432.0, 32.5, 20.0 ],
									"id" : "obj-98",
									"fontname" : "Arial",
									"numinlets" : 2,
									"numoutlets" : 1,
									"fontsize" : 12.0,
									"outlettype" : [ "int" ]
								}

							}
, 							{
								"box" : 								{
									"maxclass" : "newobj",
									"text" : "unpack 0 0. 0.",
									"patching_rect" : [ 404.0, 408.0, 86.0, 20.0 ],
									"id" : "obj-97",
									"fontname" : "Arial",
									"numinlets" : 1,
									"numoutlets" : 3,
									"fontsize" : 12.0,
									"outlettype" : [ "int", "float", "float" ]
								}

							}
, 							{
								"box" : 								{
									"maxclass" : "newobj",
									"text" : "route 0 1 2 3 4 5 6 7",
									"patching_rect" : [ 404.0, 480.0, 127.0, 20.0 ],
									"id" : "obj-96",
									"fontname" : "Arial",
									"numinlets" : 1,
									"numoutlets" : 9,
									"fontsize" : 12.0,
									"outlettype" : [ "", "", "", "", "", "", "", "", "" ]
								}

							}
, 							{
								"box" : 								{
									"maxclass" : "newobj",
									"text" : "zl iter 3",
									"patching_rect" : [ 404.0, 384.0, 49.0, 20.0 ],
									"id" : "obj-71",
									"fontname" : "Arial",
									"numinlets" : 2,
									"numoutlets" : 2,
									"fontsize" : 12.0,
									"outlettype" : [ "", "" ]
								}

							}
, 							{
								"box" : 								{
									"maxclass" : "newobj",
									"text" : "list-accum 1000",
									"patching_rect" : [ 404.0, 216.0, 95.0, 20.0 ],
									"id" : "obj-69",
									"fontname" : "Arial",
									"numinlets" : 1,
									"numoutlets" : 2,
									"fontsize" : 12.0,
									"outlettype" : [ "", "int" ]
								}

							}
, 							{
								"box" : 								{
									"maxclass" : "newobj",
									"text" : "uzi",
									"patching_rect" : [ 376.0, 192.0, 46.0, 20.0 ],
									"id" : "obj-45",
									"fontname" : "Arial",
									"numinlets" : 2,
									"numoutlets" : 3,
									"fontsize" : 12.0,
									"outlettype" : [ "bang", "bang", "int" ]
								}

							}
, 							{
								"box" : 								{
									"maxclass" : "newobj",
									"text" : "zl len",
									"patching_rect" : [ 376.0, 168.0, 39.0, 20.0 ],
									"id" : "obj-40",
									"fontname" : "Arial",
									"numinlets" : 2,
									"numoutlets" : 2,
									"fontsize" : 12.0,
									"outlettype" : [ "", "" ]
								}

							}
, 							{
								"box" : 								{
									"maxclass" : "newobj",
									"text" : "zl scramble",
									"patching_rect" : [ 404.0, 240.0, 71.0, 20.0 ],
									"id" : "obj-13",
									"fontname" : "Arial",
									"numinlets" : 2,
									"numoutlets" : 2,
									"fontsize" : 12.0,
									"outlettype" : [ "", "" ]
								}

							}
, 							{
								"box" : 								{
									"maxclass" : "newobj",
									"text" : "t l b l",
									"patching_rect" : [ 376.0, 144.0, 46.0, 20.0 ],
									"id" : "obj-95",
									"fontname" : "Arial",
									"numinlets" : 1,
									"numoutlets" : 3,
									"fontsize" : 12.0,
									"outlettype" : [ "", "bang", "" ]
								}

							}
, 							{
								"box" : 								{
									"maxclass" : "newobj",
									"text" : "mxj list.Multiplex 3",
									"patching_rect" : [ 404.0, 332.0, 108.0, 20.0 ],
									"id" : "obj-94",
									"fontname" : "Arial",
									"numinlets" : 3,
									"numoutlets" : 2,
									"fontsize" : 12.0,
									"outlettype" : [ "", "" ]
								}

							}
, 							{
								"box" : 								{
									"maxclass" : "newobj",
									"text" : "zl delace",
									"patching_rect" : [ 376.0, 120.0, 58.0, 20.0 ],
									"id" : "obj-86",
									"fontname" : "Arial",
									"numinlets" : 2,
									"numoutlets" : 2,
									"fontsize" : 12.0,
									"outlettype" : [ "", "" ]
								}

							}
, 							{
								"box" : 								{
									"maxclass" : "newobj",
									"text" : "sinusoids~",
									"patching_rect" : [ 660.0, 568.0, 68.0, 20.0 ],
									"id" : "obj-85",
									"fontname" : "Arial",
									"numinlets" : 1,
									"numoutlets" : 1,
									"fontsize" : 12.0,
									"outlettype" : [ "signal" ]
								}

							}
, 							{
								"box" : 								{
									"maxclass" : "newobj",
									"text" : "sinusoids~",
									"patching_rect" : [ 592.0, 568.0, 68.0, 20.0 ],
									"id" : "obj-84",
									"fontname" : "Arial",
									"numinlets" : 1,
									"numoutlets" : 1,
									"fontsize" : 12.0,
									"outlettype" : [ "signal" ]
								}

							}
, 							{
								"box" : 								{
									"maxclass" : "newobj",
									"text" : "sinusoids~",
									"patching_rect" : [ 524.0, 568.0, 68.0, 20.0 ],
									"id" : "obj-82",
									"fontname" : "Arial",
									"numinlets" : 1,
									"numoutlets" : 1,
									"fontsize" : 12.0,
									"outlettype" : [ "signal" ]
								}

							}
, 							{
								"box" : 								{
									"maxclass" : "newobj",
									"text" : "sinusoids~",
									"patching_rect" : [ 456.0, 568.0, 68.0, 20.0 ],
									"id" : "obj-76",
									"fontname" : "Arial",
									"numinlets" : 1,
									"numoutlets" : 1,
									"fontsize" : 12.0,
									"outlettype" : [ "signal" ]
								}

							}
, 							{
								"box" : 								{
									"maxclass" : "newobj",
									"text" : "sinusoids~",
									"patching_rect" : [ 388.0, 568.0, 68.0, 20.0 ],
									"id" : "obj-75",
									"fontname" : "Arial",
									"numinlets" : 1,
									"numoutlets" : 1,
									"fontsize" : 12.0,
									"outlettype" : [ "signal" ]
								}

							}
, 							{
								"box" : 								{
									"maxclass" : "newobj",
									"text" : "sinusoids~",
									"patching_rect" : [ 320.0, 568.0, 68.0, 20.0 ],
									"id" : "obj-74",
									"fontname" : "Arial",
									"numinlets" : 1,
									"numoutlets" : 1,
									"fontsize" : 12.0,
									"outlettype" : [ "signal" ]
								}

							}
, 							{
								"box" : 								{
									"maxclass" : "newobj",
									"text" : "sinusoids~",
									"patching_rect" : [ 252.0, 568.0, 68.0, 20.0 ],
									"id" : "obj-73",
									"fontname" : "Arial",
									"numinlets" : 1,
									"numoutlets" : 1,
									"fontsize" : 12.0,
									"outlettype" : [ "signal" ]
								}

							}
, 							{
								"box" : 								{
									"maxclass" : "newobj",
									"text" : "sinusoids~",
									"patching_rect" : [ 184.0, 568.0, 68.0, 20.0 ],
									"id" : "obj-72",
									"fontname" : "Arial",
									"numinlets" : 1,
									"numoutlets" : 1,
									"fontsize" : 12.0,
									"outlettype" : [ "signal" ]
								}

							}
, 							{
								"box" : 								{
									"maxclass" : "inlet",
									"patching_rect" : [ 376.0, 16.0, 25.0, 25.0 ],
									"id" : "obj-109",
									"numinlets" : 0,
									"numoutlets" : 1,
									"outlettype" : [ "list" ],
									"comment" : ""
								}

							}
 ],
						"lines" : [ 							{
								"patchline" : 								{
									"source" : [ "obj-104", 0 ],
									"destination" : [ "obj-85", 0 ],
									"hidden" : 0,
									"midpoints" : [  ]
								}

							}
, 							{
								"patchline" : 								{
									"source" : [ "obj-103", 0 ],
									"destination" : [ "obj-84", 0 ],
									"hidden" : 0,
									"midpoints" : [  ]
								}

							}
, 							{
								"patchline" : 								{
									"source" : [ "obj-102", 0 ],
									"destination" : [ "obj-82", 0 ],
									"hidden" : 0,
									"midpoints" : [  ]
								}

							}
, 							{
								"patchline" : 								{
									"source" : [ "obj-101", 0 ],
									"destination" : [ "obj-76", 0 ],
									"hidden" : 0,
									"midpoints" : [  ]
								}

							}
, 							{
								"patchline" : 								{
									"source" : [ "obj-105", 0 ],
									"destination" : [ "obj-75", 0 ],
									"hidden" : 0,
									"midpoints" : [  ]
								}

							}
, 							{
								"patchline" : 								{
									"source" : [ "obj-106", 0 ],
									"destination" : [ "obj-74", 0 ],
									"hidden" : 0,
									"midpoints" : [  ]
								}

							}
, 							{
								"patchline" : 								{
									"source" : [ "obj-107", 0 ],
									"destination" : [ "obj-73", 0 ],
									"hidden" : 0,
									"midpoints" : [  ]
								}

							}
, 							{
								"patchline" : 								{
									"source" : [ "obj-108", 0 ],
									"destination" : [ "obj-72", 0 ],
									"hidden" : 0,
									"midpoints" : [  ]
								}

							}
, 							{
								"patchline" : 								{
									"source" : [ "obj-100", 0 ],
									"destination" : [ "obj-108", 0 ],
									"hidden" : 0,
									"midpoints" : [  ]
								}

							}
, 							{
								"patchline" : 								{
									"source" : [ "obj-100", 0 ],
									"destination" : [ "obj-107", 0 ],
									"hidden" : 0,
									"midpoints" : [  ]
								}

							}
, 							{
								"patchline" : 								{
									"source" : [ "obj-100", 0 ],
									"destination" : [ "obj-106", 0 ],
									"hidden" : 0,
									"midpoints" : [  ]
								}

							}
, 							{
								"patchline" : 								{
									"source" : [ "obj-100", 0 ],
									"destination" : [ "obj-105", 0 ],
									"hidden" : 0,
									"midpoints" : [  ]
								}

							}
, 							{
								"patchline" : 								{
									"source" : [ "obj-100", 0 ],
									"destination" : [ "obj-101", 0 ],
									"hidden" : 0,
									"midpoints" : [  ]
								}

							}
, 							{
								"patchline" : 								{
									"source" : [ "obj-100", 0 ],
									"destination" : [ "obj-102", 0 ],
									"hidden" : 0,
									"midpoints" : [  ]
								}

							}
, 							{
								"patchline" : 								{
									"source" : [ "obj-100", 0 ],
									"destination" : [ "obj-103", 0 ],
									"hidden" : 0,
									"midpoints" : [  ]
								}

							}
, 							{
								"patchline" : 								{
									"source" : [ "obj-100", 0 ],
									"destination" : [ "obj-104", 0 ],
									"hidden" : 0,
									"midpoints" : [  ]
								}

							}
, 							{
								"patchline" : 								{
									"source" : [ "obj-94", 0 ],
									"destination" : [ "obj-100", 0 ],
									"hidden" : 0,
									"midpoints" : [  ]
								}

							}
, 							{
								"patchline" : 								{
									"source" : [ "obj-100", 1 ],
									"destination" : [ "obj-71", 0 ],
									"hidden" : 0,
									"midpoints" : [  ]
								}

							}
, 							{
								"patchline" : 								{
									"source" : [ "obj-97", 2 ],
									"destination" : [ "obj-99", 2 ],
									"hidden" : 0,
									"midpoints" : [  ]
								}

							}
, 							{
								"patchline" : 								{
									"source" : [ "obj-97", 1 ],
									"destination" : [ "obj-99", 1 ],
									"hidden" : 0,
									"midpoints" : [  ]
								}

							}
, 							{
								"patchline" : 								{
									"source" : [ "obj-98", 0 ],
									"destination" : [ "obj-99", 0 ],
									"hidden" : 0,
									"midpoints" : [  ]
								}

							}
, 							{
								"patchline" : 								{
									"source" : [ "obj-97", 0 ],
									"destination" : [ "obj-98", 0 ],
									"hidden" : 0,
									"midpoints" : [  ]
								}

							}
, 							{
								"patchline" : 								{
									"source" : [ "obj-71", 0 ],
									"destination" : [ "obj-97", 0 ],
									"hidden" : 0,
									"midpoints" : [  ]
								}

							}
, 							{
								"patchline" : 								{
									"source" : [ "obj-86", 1 ],
									"destination" : [ "obj-94", 2 ],
									"hidden" : 0,
									"midpoints" : [  ]
								}

							}
, 							{
								"patchline" : 								{
									"source" : [ "obj-95", 2 ],
									"destination" : [ "obj-94", 1 ],
									"hidden" : 0,
									"midpoints" : [  ]
								}

							}
, 							{
								"patchline" : 								{
									"source" : [ "obj-95", 0 ],
									"destination" : [ "obj-40", 0 ],
									"hidden" : 0,
									"midpoints" : [  ]
								}

							}
, 							{
								"patchline" : 								{
									"source" : [ "obj-86", 0 ],
									"destination" : [ "obj-95", 0 ],
									"hidden" : 0,
									"midpoints" : [  ]
								}

							}
, 							{
								"patchline" : 								{
									"source" : [ "obj-69", 0 ],
									"destination" : [ "obj-13", 0 ],
									"hidden" : 0,
									"midpoints" : [  ]
								}

							}
, 							{
								"patchline" : 								{
									"source" : [ "obj-45", 1 ],
									"destination" : [ "obj-69", 0 ],
									"hidden" : 0,
									"midpoints" : [  ]
								}

							}
, 							{
								"patchline" : 								{
									"source" : [ "obj-45", 2 ],
									"destination" : [ "obj-69", 0 ],
									"hidden" : 0,
									"midpoints" : [  ]
								}

							}
, 							{
								"patchline" : 								{
									"source" : [ "obj-40", 0 ],
									"destination" : [ "obj-45", 0 ],
									"hidden" : 0,
									"midpoints" : [  ]
								}

							}
, 							{
								"patchline" : 								{
									"source" : [ "obj-109", 0 ],
									"destination" : [ "obj-1", 0 ],
									"hidden" : 0,
									"midpoints" : [  ]
								}

							}
, 							{
								"patchline" : 								{
									"source" : [ "obj-13", 0 ],
									"destination" : [ "obj-2", 0 ],
									"hidden" : 0,
									"midpoints" : [  ]
								}

							}
, 							{
								"patchline" : 								{
									"source" : [ "obj-2", 0 ],
									"destination" : [ "obj-94", 0 ],
									"hidden" : 0,
									"midpoints" : [  ]
								}

							}
, 							{
								"patchline" : 								{
									"source" : [ "obj-1", 1 ],
									"destination" : [ "obj-3", 1 ],
									"hidden" : 0,
									"midpoints" : [  ]
								}

							}
, 							{
								"patchline" : 								{
									"source" : [ "obj-1", 0 ],
									"destination" : [ "obj-3", 0 ],
									"hidden" : 0,
									"midpoints" : [  ]
								}

							}
, 							{
								"patchline" : 								{
									"source" : [ "obj-4", 0 ],
									"destination" : [ "obj-3", 0 ],
									"hidden" : 0,
									"midpoints" : [  ]
								}

							}
, 							{
								"patchline" : 								{
									"source" : [ "obj-3", 1 ],
									"destination" : [ "obj-86", 0 ],
									"hidden" : 0,
									"midpoints" : [  ]
								}

							}
, 							{
								"patchline" : 								{
									"source" : [ "obj-9", 0 ],
									"destination" : [ "obj-94", 1 ],
									"hidden" : 0,
									"midpoints" : [  ]
								}

							}
, 							{
								"patchline" : 								{
									"source" : [ "obj-9", 1 ],
									"destination" : [ "obj-94", 2 ],
									"hidden" : 0,
									"midpoints" : [  ]
								}

							}
, 							{
								"patchline" : 								{
									"source" : [ "obj-3", 0 ],
									"destination" : [ "obj-10", 0 ],
									"hidden" : 0,
									"midpoints" : [  ]
								}

							}
, 							{
								"patchline" : 								{
									"source" : [ "obj-10", 1 ],
									"destination" : [ "obj-9", 0 ],
									"hidden" : 0,
									"midpoints" : [  ]
								}

							}
, 							{
								"patchline" : 								{
									"source" : [ "obj-10", 0 ],
									"destination" : [ "obj-2", 0 ],
									"hidden" : 0,
									"midpoints" : [  ]
								}

							}
, 							{
								"patchline" : 								{
									"source" : [ "obj-72", 0 ],
									"destination" : [ "obj-11", 0 ],
									"hidden" : 0,
									"midpoints" : [  ]
								}

							}
, 							{
								"patchline" : 								{
									"source" : [ "obj-73", 0 ],
									"destination" : [ "obj-12", 0 ],
									"hidden" : 0,
									"midpoints" : [  ]
								}

							}
, 							{
								"patchline" : 								{
									"source" : [ "obj-74", 0 ],
									"destination" : [ "obj-14", 0 ],
									"hidden" : 0,
									"midpoints" : [  ]
								}

							}
, 							{
								"patchline" : 								{
									"source" : [ "obj-75", 0 ],
									"destination" : [ "obj-15", 0 ],
									"hidden" : 0,
									"midpoints" : [  ]
								}

							}
, 							{
								"patchline" : 								{
									"source" : [ "obj-76", 0 ],
									"destination" : [ "obj-16", 0 ],
									"hidden" : 0,
									"midpoints" : [  ]
								}

							}
, 							{
								"patchline" : 								{
									"source" : [ "obj-82", 0 ],
									"destination" : [ "obj-17", 0 ],
									"hidden" : 0,
									"midpoints" : [  ]
								}

							}
, 							{
								"patchline" : 								{
									"source" : [ "obj-84", 0 ],
									"destination" : [ "obj-18", 0 ],
									"hidden" : 0,
									"midpoints" : [  ]
								}

							}
, 							{
								"patchline" : 								{
									"source" : [ "obj-85", 0 ],
									"destination" : [ "obj-19", 0 ],
									"hidden" : 0,
									"midpoints" : [  ]
								}

							}
, 							{
								"patchline" : 								{
									"source" : [ "obj-99", 0 ],
									"destination" : [ "obj-96", 0 ],
									"hidden" : 0,
									"midpoints" : [  ]
								}

							}
, 							{
								"patchline" : 								{
									"source" : [ "obj-96", 0 ],
									"destination" : [ "obj-108", 0 ],
									"hidden" : 0,
									"midpoints" : [  ]
								}

							}
, 							{
								"patchline" : 								{
									"source" : [ "obj-96", 1 ],
									"destination" : [ "obj-107", 0 ],
									"hidden" : 0,
									"midpoints" : [  ]
								}

							}
, 							{
								"patchline" : 								{
									"source" : [ "obj-96", 2 ],
									"destination" : [ "obj-106", 0 ],
									"hidden" : 0,
									"midpoints" : [  ]
								}

							}
, 							{
								"patchline" : 								{
									"source" : [ "obj-96", 3 ],
									"destination" : [ "obj-105", 0 ],
									"hidden" : 0,
									"midpoints" : [  ]
								}

							}
, 							{
								"patchline" : 								{
									"source" : [ "obj-96", 4 ],
									"destination" : [ "obj-101", 0 ],
									"hidden" : 0,
									"midpoints" : [  ]
								}

							}
, 							{
								"patchline" : 								{
									"source" : [ "obj-96", 5 ],
									"destination" : [ "obj-102", 0 ],
									"hidden" : 0,
									"midpoints" : [  ]
								}

							}
, 							{
								"patchline" : 								{
									"source" : [ "obj-96", 6 ],
									"destination" : [ "obj-103", 0 ],
									"hidden" : 0,
									"midpoints" : [  ]
								}

							}
, 							{
								"patchline" : 								{
									"source" : [ "obj-96", 7 ],
									"destination" : [ "obj-104", 0 ],
									"hidden" : 0,
									"midpoints" : [  ]
								}

							}
 ]
					}
,
					"saved_object_attributes" : 					{
						"fontname" : "Arial",
						"default_fontsize" : 12.0,
						"globalpatchername" : "",
						"fontface" : 0,
						"fontsize" : 12.0,
						"default_fontface" : 0,
						"default_fontname" : "Arial"
					}

				}

			}
, 			{
				"box" : 				{
					"maxclass" : "gain~",
					"patching_rect" : [ 172.0, 468.0, 20.0, 140.0 ],
					"id" : "obj-68",
					"numinlets" : 2,
					"numoutlets" : 2,
					"outlettype" : [ "signal", "int" ]
				}

			}
, 			{
				"box" : 				{
					"maxclass" : "newobj",
					"text" : "receive~ /sig_mig/8",
					"patching_rect" : [ 352.0, 404.0, 114.0, 20.0 ],
					"id" : "obj-64",
					"fontname" : "Arial",
					"numinlets" : 1,
					"numoutlets" : 1,
					"fontsize" : 12.0,
					"outlettype" : [ "signal" ]
				}

			}
, 			{
				"box" : 				{
					"maxclass" : "newobj",
					"text" : "receive~ /sig_mig/7",
					"patching_rect" : [ 340.0, 384.0, 114.0, 20.0 ],
					"id" : "obj-65",
					"fontname" : "Arial",
					"numinlets" : 1,
					"numoutlets" : 1,
					"fontsize" : 12.0,
					"outlettype" : [ "signal" ]
				}

			}
, 			{
				"box" : 				{
					"maxclass" : "newobj",
					"text" : "receive~ /sig_mig/6",
					"patching_rect" : [ 328.0, 364.0, 114.0, 20.0 ],
					"id" : "obj-66",
					"fontname" : "Arial",
					"numinlets" : 1,
					"numoutlets" : 1,
					"fontsize" : 12.0,
					"outlettype" : [ "signal" ]
				}

			}
, 			{
				"box" : 				{
					"maxclass" : "newobj",
					"text" : "receive~ /sig_mig/5",
					"patching_rect" : [ 316.0, 344.0, 114.0, 20.0 ],
					"id" : "obj-67",
					"fontname" : "Arial",
					"numinlets" : 1,
					"numoutlets" : 1,
					"fontsize" : 12.0,
					"outlettype" : [ "signal" ]
				}

			}
, 			{
				"box" : 				{
					"maxclass" : "newobj",
					"text" : "receive~ /sig_mig/4",
					"patching_rect" : [ 232.0, 404.0, 114.0, 20.0 ],
					"id" : "obj-63",
					"fontname" : "Arial",
					"numinlets" : 1,
					"numoutlets" : 1,
					"fontsize" : 12.0,
					"outlettype" : [ "signal" ]
				}

			}
, 			{
				"box" : 				{
					"maxclass" : "newobj",
					"text" : "receive~ /sig_mig/3",
					"patching_rect" : [ 220.0, 384.0, 114.0, 20.0 ],
					"id" : "obj-61",
					"fontname" : "Arial",
					"numinlets" : 1,
					"numoutlets" : 1,
					"fontsize" : 12.0,
					"outlettype" : [ "signal" ]
				}

			}
, 			{
				"box" : 				{
					"maxclass" : "newobj",
					"text" : "receive~ /sig_mig/2",
					"patching_rect" : [ 208.0, 364.0, 114.0, 20.0 ],
					"id" : "obj-60",
					"fontname" : "Arial",
					"numinlets" : 1,
					"numoutlets" : 1,
					"fontsize" : 12.0,
					"outlettype" : [ "signal" ]
				}

			}
, 			{
				"box" : 				{
					"maxclass" : "newobj",
					"text" : "receive~ /sig_mig/1",
					"patching_rect" : [ 196.0, 344.0, 114.0, 20.0 ],
					"id" : "obj-58",
					"fontname" : "Arial",
					"numinlets" : 1,
					"numoutlets" : 1,
					"fontsize" : 12.0,
					"outlettype" : [ "signal" ]
				}

			}
, 			{
				"box" : 				{
					"maxclass" : "newobj",
					"text" : "dac~ 1 2 3 4 5 6 7 8",
					"patching_rect" : [ 192.0, 620.0, 117.0, 20.0 ],
					"id" : "obj-57",
					"fontname" : "Arial",
					"numinlets" : 8,
					"numoutlets" : 0,
					"fontsize" : 12.0
				}

			}
, 			{
				"box" : 				{
					"maxclass" : "ezdac~",
					"patching_rect" : [ 64.0, 604.0, 45.0, 45.0 ],
					"id" : "obj-56",
					"numinlets" : 2,
					"numoutlets" : 0
				}

			}
, 			{
				"box" : 				{
					"maxclass" : "gain~",
					"patching_rect" : [ 336.0, 468.0, 20.0, 140.0 ],
					"id" : "obj-55",
					"numinlets" : 2,
					"numoutlets" : 2,
					"outlettype" : [ "signal", "int" ]
				}

			}
, 			{
				"box" : 				{
					"maxclass" : "gain~",
					"patching_rect" : [ 316.0, 468.0, 20.0, 140.0 ],
					"id" : "obj-54",
					"numinlets" : 2,
					"numoutlets" : 2,
					"outlettype" : [ "signal", "int" ]
				}

			}
, 			{
				"box" : 				{
					"maxclass" : "gain~",
					"patching_rect" : [ 296.0, 468.0, 20.0, 140.0 ],
					"id" : "obj-52",
					"numinlets" : 2,
					"numoutlets" : 2,
					"outlettype" : [ "signal", "int" ]
				}

			}
, 			{
				"box" : 				{
					"maxclass" : "gain~",
					"patching_rect" : [ 276.0, 468.0, 20.0, 140.0 ],
					"id" : "obj-49",
					"numinlets" : 2,
					"numoutlets" : 2,
					"outlettype" : [ "signal", "int" ]
				}

			}
, 			{
				"box" : 				{
					"maxclass" : "gain~",
					"patching_rect" : [ 256.0, 468.0, 20.0, 140.0 ],
					"id" : "obj-48",
					"numinlets" : 2,
					"numoutlets" : 2,
					"outlettype" : [ "signal", "int" ]
				}

			}
, 			{
				"box" : 				{
					"maxclass" : "gain~",
					"patching_rect" : [ 236.0, 468.0, 20.0, 140.0 ],
					"id" : "obj-47",
					"numinlets" : 2,
					"numoutlets" : 2,
					"outlettype" : [ "signal", "int" ]
				}

			}
, 			{
				"box" : 				{
					"maxclass" : "gain~",
					"patching_rect" : [ 216.0, 468.0, 20.0, 140.0 ],
					"id" : "obj-46",
					"numinlets" : 2,
					"numoutlets" : 2,
					"outlettype" : [ "signal", "int" ]
				}

			}
, 			{
				"box" : 				{
					"maxclass" : "multislider",
					"patching_rect" : [ 1020.0, 424.0, 212.0, 162.0 ],
					"id" : "obj-44",
					"numinlets" : 1,
					"numoutlets" : 2,
					"outlettype" : [ "", "" ],
					"setstyle" : 2,
					"setminmax" : [ 0.0, 20.0 ]
				}

			}
, 			{
				"box" : 				{
					"maxclass" : "toggle",
					"patching_rect" : [ 924.0, 400.0, 20.0, 20.0 ],
					"id" : "obj-43",
					"numinlets" : 1,
					"numoutlets" : 1,
					"outlettype" : [ "int" ]
				}

			}
, 			{
				"box" : 				{
					"maxclass" : "button",
					"patching_rect" : [ 976.0, 368.0, 20.0, 20.0 ],
					"id" : "obj-42",
					"numinlets" : 1,
					"numoutlets" : 1,
					"outlettype" : [ "bang" ]
				}

			}
, 			{
				"box" : 				{
					"maxclass" : "message",
					"text" : "limits 0.3 20 1000 7000 0 0",
					"patching_rect" : [ 1004.0, 368.0, 155.0, 18.0 ],
					"id" : "obj-39",
					"fontname" : "Arial",
					"numinlets" : 2,
					"numoutlets" : 1,
					"fontsize" : 12.0,
					"outlettype" : [ "" ]
				}

			}
, 			{
				"box" : 				{
					"maxclass" : "newobj",
					"text" : "randline",
					"patching_rect" : [ 992.0, 396.0, 53.0, 20.0 ],
					"id" : "obj-38",
					"fontname" : "Arial",
					"numinlets" : 1,
					"numoutlets" : 1,
					"fontsize" : 12.0,
					"outlettype" : [ "" ]
				}

			}
, 			{
				"box" : 				{
					"maxclass" : "newobj",
					"text" : "zl lace",
					"patching_rect" : [ 836.0, 468.0, 45.0, 20.0 ],
					"id" : "obj-37",
					"fontname" : "Arial",
					"numinlets" : 2,
					"numoutlets" : 2,
					"fontsize" : 12.0,
					"outlettype" : [ "", "" ]
				}

			}
, 			{
				"box" : 				{
					"maxclass" : "newobj",
					"text" : "vexpr $f1 + $f2 @scalarmode 1",
					"patching_rect" : [ 836.0, 440.0, 178.0, 20.0 ],
					"id" : "obj-36",
					"fontname" : "Arial",
					"numinlets" : 2,
					"numoutlets" : 1,
					"fontsize" : 12.0,
					"outlettype" : [ "" ]
				}

			}
, 			{
				"box" : 				{
					"maxclass" : "newobj",
					"text" : "zl delace",
					"patching_rect" : [ 836.0, 412.0, 58.0, 20.0 ],
					"id" : "obj-35",
					"fontname" : "Arial",
					"numinlets" : 2,
					"numoutlets" : 2,
					"fontsize" : 12.0,
					"outlettype" : [ "", "" ]
				}

			}
, 			{
				"box" : 				{
					"maxclass" : "message",
					"text" : "nOsc 40, fade 20",
					"patching_rect" : [ 836.0, 348.0, 102.0, 18.0 ],
					"id" : "obj-34",
					"fontname" : "Arial",
					"numinlets" : 2,
					"numoutlets" : 1,
					"fontsize" : 12.0,
					"outlettype" : [ "" ]
				}

			}
, 			{
				"box" : 				{
					"maxclass" : "newobj",
					"text" : "sinusoids~",
					"patching_rect" : [ 836.0, 500.0, 68.0, 20.0 ],
					"id" : "obj-31",
					"fontname" : "Arial",
					"numinlets" : 1,
					"numoutlets" : 1,
					"fontsize" : 12.0,
					"outlettype" : [ "signal" ]
				}

			}
, 			{
				"box" : 				{
					"maxclass" : "newobj",
					"text" : "migrator",
					"patching_rect" : [ 836.0, 384.0, 59.5, 20.0 ],
					"id" : "obj-33",
					"fontname" : "Arial",
					"numinlets" : 1,
					"numoutlets" : 4,
					"fontsize" : 12.0,
					"outlettype" : [ "list", "list", "int", "bang" ]
				}

			}
, 			{
				"box" : 				{
					"maxclass" : "newobj",
					"text" : "zl lace",
					"patching_rect" : [ 608.0, 440.0, 45.0, 20.0 ],
					"id" : "obj-93",
					"fontname" : "Arial",
					"numinlets" : 2,
					"numoutlets" : 2,
					"fontsize" : 12.0,
					"outlettype" : [ "", "" ]
				}

			}
, 			{
				"box" : 				{
					"maxclass" : "newobj",
					"text" : "list-accum 1000",
					"patching_rect" : [ 624.0, 408.0, 95.0, 20.0 ],
					"id" : "obj-92",
					"fontname" : "Arial",
					"numinlets" : 1,
					"numoutlets" : 2,
					"fontsize" : 12.0,
					"outlettype" : [ "", "int" ]
				}

			}
, 			{
				"box" : 				{
					"maxclass" : "newobj",
					"text" : "uzi",
					"patching_rect" : [ 624.0, 380.0, 46.0, 20.0 ],
					"id" : "obj-91",
					"fontname" : "Arial",
					"numinlets" : 2,
					"numoutlets" : 3,
					"fontsize" : 12.0,
					"outlettype" : [ "bang", "bang", "int" ]
				}

			}
, 			{
				"box" : 				{
					"maxclass" : "newobj",
					"text" : "t l l",
					"patching_rect" : [ 608.0, 328.0, 32.5, 20.0 ],
					"id" : "obj-90",
					"fontname" : "Arial",
					"numinlets" : 1,
					"numoutlets" : 2,
					"fontsize" : 12.0,
					"outlettype" : [ "", "" ]
				}

			}
, 			{
				"box" : 				{
					"maxclass" : "newobj",
					"text" : "zl len",
					"patching_rect" : [ 624.0, 352.0, 39.0, 20.0 ],
					"id" : "obj-89",
					"fontname" : "Arial",
					"numinlets" : 2,
					"numoutlets" : 2,
					"fontsize" : 12.0,
					"outlettype" : [ "", "" ]
				}

			}
, 			{
				"box" : 				{
					"maxclass" : "newobj",
					"text" : "mxj list.RandomSample @size 10",
					"patching_rect" : [ 608.0, 296.0, 190.0, 20.0 ],
					"id" : "obj-88",
					"fontname" : "Arial",
					"numinlets" : 1,
					"numoutlets" : 2,
					"fontsize" : 12.0,
					"outlettype" : [ "", "" ]
				}

			}
, 			{
				"box" : 				{
					"maxclass" : "number",
					"patching_rect" : [ 860.0, 276.0, 50.0, 20.0 ],
					"id" : "obj-87",
					"fontname" : "Arial",
					"numinlets" : 1,
					"numoutlets" : 2,
					"fontsize" : 12.0,
					"outlettype" : [ "int", "bang" ]
				}

			}
, 			{
				"box" : 				{
					"maxclass" : "toggle",
					"patching_rect" : [ 808.0, 200.0, 20.0, 20.0 ],
					"id" : "obj-83",
					"numinlets" : 1,
					"numoutlets" : 1,
					"outlettype" : [ "int" ]
				}

			}
, 			{
				"box" : 				{
					"maxclass" : "newobj",
					"text" : "zl reg",
					"patching_rect" : [ 608.0, 268.0, 40.0, 20.0 ],
					"id" : "obj-81",
					"fontname" : "Arial",
					"numinlets" : 2,
					"numoutlets" : 2,
					"fontsize" : 12.0,
					"outlettype" : [ "", "" ]
				}

			}
, 			{
				"box" : 				{
					"maxclass" : "message",
					"text" : "0 0",
					"patching_rect" : [ 804.0, 332.0, 32.5, 18.0 ],
					"id" : "obj-80",
					"fontname" : "Arial",
					"numinlets" : 2,
					"numoutlets" : 1,
					"fontsize" : 12.0,
					"outlettype" : [ "" ]
				}

			}
, 			{
				"box" : 				{
					"maxclass" : "newobj",
					"text" : "sel 0 1",
					"patching_rect" : [ 808.0, 276.0, 46.0, 20.0 ],
					"id" : "obj-79",
					"fontname" : "Arial",
					"numinlets" : 1,
					"numoutlets" : 3,
					"fontsize" : 12.0,
					"outlettype" : [ "bang", "bang", "" ]
				}

			}
, 			{
				"box" : 				{
					"maxclass" : "newobj",
					"text" : "counter 0 1",
					"patching_rect" : [ 808.0, 252.0, 73.0, 20.0 ],
					"id" : "obj-78",
					"fontname" : "Arial",
					"numinlets" : 5,
					"numoutlets" : 4,
					"fontsize" : 12.0,
					"outlettype" : [ "int", "", "", "int" ]
				}

			}
, 			{
				"box" : 				{
					"maxclass" : "newobj",
					"text" : "metro 10000",
					"patching_rect" : [ 808.0, 228.0, 78.0, 20.0 ],
					"id" : "obj-77",
					"fontname" : "Arial",
					"numinlets" : 2,
					"numoutlets" : 1,
					"fontsize" : 12.0,
					"outlettype" : [ "bang" ]
				}

			}
, 			{
				"box" : 				{
					"maxclass" : "toggle",
					"patching_rect" : [ 564.0, 448.0, 20.0, 20.0 ],
					"id" : "obj-62",
					"numinlets" : 1,
					"numoutlets" : 1,
					"outlettype" : [ "int" ]
				}

			}
, 			{
				"box" : 				{
					"maxclass" : "newobj",
					"text" : "list-accum 1000",
					"patching_rect" : [ 608.0, 240.0, 95.0, 20.0 ],
					"id" : "obj-59",
					"fontname" : "Arial",
					"numinlets" : 1,
					"numoutlets" : 2,
					"fontsize" : 12.0,
					"outlettype" : [ "", "int" ]
				}

			}
, 			{
				"box" : 				{
					"maxclass" : "message",
					"text" : "nOsc 200, fade 100",
					"patching_rect" : [ 716.0, 432.0, 115.0, 18.0 ],
					"id" : "obj-53",
					"fontname" : "Arial",
					"numinlets" : 2,
					"numoutlets" : 1,
					"fontsize" : 12.0,
					"outlettype" : [ "" ]
				}

			}
, 			{
				"box" : 				{
					"maxclass" : "newobj",
					"text" : "sinusoids~",
					"patching_rect" : [ 664.0, 500.0, 68.0, 20.0 ],
					"id" : "obj-51",
					"fontname" : "Arial",
					"numinlets" : 1,
					"numoutlets" : 1,
					"fontsize" : 12.0,
					"outlettype" : [ "signal" ]
				}

			}
, 			{
				"box" : 				{
					"maxclass" : "newobj",
					"text" : "migrator",
					"patching_rect" : [ 664.0, 468.0, 59.5, 20.0 ],
					"id" : "obj-50",
					"fontname" : "Arial",
					"numinlets" : 1,
					"numoutlets" : 4,
					"fontsize" : 12.0,
					"outlettype" : [ "list", "list", "int", "bang" ]
				}

			}
, 			{
				"box" : 				{
					"maxclass" : "message",
					"text" : "0.01",
					"patching_rect" : [ 672.0, 32.0, 34.0, 18.0 ],
					"id" : "obj-41",
					"fontname" : "Arial",
					"numinlets" : 2,
					"numoutlets" : 1,
					"fontsize" : 12.0,
					"outlettype" : [ "" ]
				}

			}
, 			{
				"box" : 				{
					"maxclass" : "message",
					"text" : "vib_rate_max 0.3",
					"patching_rect" : [ 440.0, 140.0, 103.0, 18.0 ],
					"id" : "obj-25",
					"fontname" : "Arial",
					"numinlets" : 2,
					"numoutlets" : 1,
					"fontsize" : 12.0,
					"outlettype" : [ "" ]
				}

			}
, 			{
				"box" : 				{
					"maxclass" : "message",
					"text" : "vib_rate_min 0.1",
					"patching_rect" : [ 408.0, 108.0, 99.0, 18.0 ],
					"id" : "obj-1",
					"fontname" : "Arial",
					"numinlets" : 2,
					"numoutlets" : 1,
					"fontsize" : 12.0,
					"outlettype" : [ "" ]
				}

			}
, 			{
				"box" : 				{
					"maxclass" : "number",
					"patching_rect" : [ 92.0, 140.0, 50.0, 20.0 ],
					"id" : "obj-32",
					"fontname" : "Arial",
					"numinlets" : 1,
					"numoutlets" : 2,
					"fontsize" : 12.0,
					"outlettype" : [ "int", "bang" ]
				}

			}
, 			{
				"box" : 				{
					"maxclass" : "message",
					"text" : "open $1",
					"patching_rect" : [ 92.0, 172.0, 54.0, 18.0 ],
					"id" : "obj-30",
					"fontname" : "Arial",
					"numinlets" : 2,
					"numoutlets" : 1,
					"fontsize" : 12.0,
					"outlettype" : [ "" ]
				}

			}
, 			{
				"box" : 				{
					"maxclass" : "message",
					"text" : "env_max 0.1",
					"patching_rect" : [ 320.0, 120.0, 79.0, 18.0 ],
					"id" : "obj-29",
					"fontname" : "Arial",
					"numinlets" : 2,
					"numoutlets" : 1,
					"fontsize" : 12.0,
					"outlettype" : [ "" ]
				}

			}
, 			{
				"box" : 				{
					"maxclass" : "message",
					"text" : "env_min 0.075",
					"patching_rect" : [ 284.0, 88.0, 89.0, 18.0 ],
					"id" : "obj-28",
					"fontname" : "Arial",
					"numinlets" : 2,
					"numoutlets" : 1,
					"fontsize" : 12.0,
					"outlettype" : [ "" ]
				}

			}
, 			{
				"box" : 				{
					"maxclass" : "flonum",
					"patching_rect" : [ 672.0, 60.0, 50.0, 20.0 ],
					"id" : "obj-27",
					"fontname" : "Arial",
					"numinlets" : 1,
					"numoutlets" : 2,
					"fontsize" : 12.0,
					"outlettype" : [ "float", "bang" ]
				}

			}
, 			{
				"box" : 				{
					"maxclass" : "number",
					"patching_rect" : [ 344.0, 244.0, 50.0, 20.0 ],
					"id" : "obj-26",
					"fontname" : "Arial",
					"numinlets" : 1,
					"numoutlets" : 2,
					"fontsize" : 12.0,
					"outlettype" : [ "int", "bang" ]
				}

			}
, 			{
				"box" : 				{
					"maxclass" : "multislider",
					"patching_rect" : [ 928.0, 208.0, 287.0, 110.0 ],
					"id" : "obj-24",
					"numinlets" : 1,
					"size" : 46,
					"numoutlets" : 2,
					"outlettype" : [ "", "" ]
				}

			}
, 			{
				"box" : 				{
					"maxclass" : "newobj",
					"text" : "vexpr abs($f1)",
					"patching_rect" : [ 968.0, 152.0, 87.0, 20.0 ],
					"id" : "obj-23",
					"fontname" : "Arial",
					"numinlets" : 1,
					"numoutlets" : 1,
					"fontsize" : 12.0,
					"outlettype" : [ "" ]
				}

			}
, 			{
				"box" : 				{
					"maxclass" : "flonum",
					"patching_rect" : [ 908.0, 100.0, 50.0, 20.0 ],
					"id" : "obj-22",
					"fontname" : "Arial",
					"numinlets" : 1,
					"numoutlets" : 2,
					"fontsize" : 12.0,
					"outlettype" : [ "float", "bang" ]
				}

			}
, 			{
				"box" : 				{
					"maxclass" : "newobj",
					"text" : "prepend weights",
					"patching_rect" : [ 968.0, 184.0, 99.0, 20.0 ],
					"id" : "obj-21",
					"fontname" : "Arial",
					"numinlets" : 1,
					"numoutlets" : 1,
					"fontsize" : 12.0,
					"outlettype" : [ "" ]
				}

			}
, 			{
				"box" : 				{
					"maxclass" : "newobj",
					"text" : "bessel",
					"patching_rect" : [ 968.0, 128.0, 45.0, 20.0 ],
					"id" : "obj-20",
					"fontname" : "Arial",
					"numinlets" : 1,
					"numoutlets" : 1,
					"fontsize" : 12.0,
					"outlettype" : [ "" ]
				}

			}
, 			{
				"box" : 				{
					"maxclass" : "newobj",
					"text" : "list-accum 1000",
					"patching_rect" : [ 968.0, 100.0, 95.0, 20.0 ],
					"id" : "obj-19",
					"fontname" : "Arial",
					"numinlets" : 1,
					"numoutlets" : 2,
					"fontsize" : 12.0,
					"outlettype" : [ "", "int" ]
				}

			}
, 			{
				"box" : 				{
					"maxclass" : "newobj",
					"text" : "uzi",
					"patching_rect" : [ 968.0, 72.0, 46.0, 20.0 ],
					"id" : "obj-16",
					"fontname" : "Arial",
					"numinlets" : 2,
					"numoutlets" : 3,
					"fontsize" : 12.0,
					"outlettype" : [ "bang", "bang", "int" ]
				}

			}
, 			{
				"box" : 				{
					"maxclass" : "newobj",
					"text" : "zl len",
					"patching_rect" : [ 968.0, 44.0, 39.0, 20.0 ],
					"id" : "obj-12",
					"fontname" : "Arial",
					"numinlets" : 2,
					"numoutlets" : 2,
					"fontsize" : 12.0,
					"outlettype" : [ "", "" ]
				}

			}
, 			{
				"box" : 				{
					"maxclass" : "newobj",
					"text" : "t l l",
					"patching_rect" : [ 196.0, 232.0, 32.5, 20.0 ],
					"id" : "obj-10",
					"fontname" : "Arial",
					"numinlets" : 1,
					"numoutlets" : 2,
					"fontsize" : 12.0,
					"outlettype" : [ "", "" ]
				}

			}
, 			{
				"box" : 				{
					"maxclass" : "newobj",
					"text" : "prepend values",
					"patching_rect" : [ 196.0, 272.0, 93.0, 20.0 ],
					"id" : "obj-9",
					"fontname" : "Arial",
					"numinlets" : 1,
					"numoutlets" : 1,
					"fontsize" : 12.0,
					"outlettype" : [ "" ]
				}

			}
, 			{
				"box" : 				{
					"maxclass" : "flonum",
					"patching_rect" : [ 588.0, 60.0, 50.0, 20.0 ],
					"id" : "obj-2",
					"fontname" : "Arial",
					"numinlets" : 1,
					"numoutlets" : 2,
					"fontsize" : 12.0,
					"outlettype" : [ "float", "bang" ]
				}

			}
, 			{
				"box" : 				{
					"maxclass" : "message",
					"text" : "gliss_prob $1",
					"patching_rect" : [ 588.0, 92.0, 82.0, 18.0 ],
					"id" : "obj-17",
					"fontname" : "Arial",
					"numinlets" : 2,
					"numoutlets" : 1,
					"fontsize" : 12.0,
					"outlettype" : [ "" ]
				}

			}
, 			{
				"box" : 				{
					"maxclass" : "message",
					"text" : "gliss_mult $1",
					"patching_rect" : [ 672.0, 92.0, 81.0, 18.0 ],
					"id" : "obj-11",
					"fontname" : "Arial",
					"numinlets" : 2,
					"numoutlets" : 1,
					"fontsize" : 12.0,
					"outlettype" : [ "" ]
				}

			}
, 			{
				"box" : 				{
					"maxclass" : "newobj",
					"text" : "loadmess target 0",
					"patching_rect" : [ 384.0, 200.0, 106.0, 20.0 ],
					"id" : "obj-8",
					"fontname" : "Arial",
					"numinlets" : 1,
					"numoutlets" : 1,
					"fontsize" : 12.0,
					"outlettype" : [ "" ]
				}

			}
, 			{
				"box" : 				{
					"maxclass" : "button",
					"patching_rect" : [ 196.0, 72.0, 20.0, 20.0 ],
					"id" : "obj-7",
					"numinlets" : 1,
					"numoutlets" : 1,
					"outlettype" : [ "bang" ]
				}

			}
, 			{
				"box" : 				{
					"maxclass" : "number",
					"patching_rect" : [ 196.0, 100.0, 50.0, 20.0 ],
					"id" : "obj-18",
					"fontname" : "Arial",
					"numinlets" : 1,
					"numoutlets" : 2,
					"fontsize" : 12.0,
					"outlettype" : [ "int", "bang" ]
				}

			}
, 			{
				"box" : 				{
					"maxclass" : "gain~",
					"patching_rect" : [ 196.0, 468.0, 20.0, 140.0 ],
					"id" : "obj-15",
					"numinlets" : 2,
					"numoutlets" : 2,
					"outlettype" : [ "signal", "int" ]
				}

			}
, 			{
				"box" : 				{
					"maxclass" : "spectroscope~",
					"patching_rect" : [ 32.0, 332.0, 158.0, 56.0 ],
					"logfreq" : 1,
					"id" : "obj-14",
					"numinlets" : 2,
					"numoutlets" : 1,
					"outlettype" : [ "" ]
				}

			}
, 			{
				"box" : 				{
					"maxclass" : "newobj",
					"text" : "list-accum 1000",
					"patching_rect" : [ 196.0, 204.0, 95.0, 20.0 ],
					"id" : "obj-6",
					"fontname" : "Arial",
					"numinlets" : 1,
					"numoutlets" : 2,
					"fontsize" : 12.0,
					"outlettype" : [ "", "int" ]
				}

			}
, 			{
				"box" : 				{
					"maxclass" : "newobj",
					"text" : "split 500. 10000.",
					"patching_rect" : [ 196.0, 176.0, 99.0, 20.0 ],
					"id" : "obj-5",
					"fontname" : "Arial",
					"numinlets" : 3,
					"numoutlets" : 2,
					"fontsize" : 12.0,
					"outlettype" : [ "float", "float" ]
				}

			}
, 			{
				"box" : 				{
					"maxclass" : "newobj",
					"text" : "hailstone",
					"patching_rect" : [ 196.0, 140.0, 59.5, 20.0 ],
					"id" : "obj-4",
					"fontname" : "Arial",
					"numinlets" : 1,
					"numoutlets" : 4,
					"fontsize" : 12.0,
					"outlettype" : [ "float", "", "bang", "" ]
				}

			}
, 			{
				"box" : 				{
					"maxclass" : "newobj",
					"text" : "poly~ sig_mig.poly 10 @parallel 1 @threadcount 4",
					"patching_rect" : [ 196.0, 308.0, 279.0, 20.0 ],
					"id" : "obj-3",
					"fontname" : "Arial",
					"numinlets" : 1,
					"numoutlets" : 1,
					"fontsize" : 12.0,
					"outlettype" : [ "signal" ]
				}

			}
 ],
		"lines" : [ 			{
				"patchline" : 				{
					"source" : [ "obj-104", 0 ],
					"destination" : [ "obj-103", 0 ],
					"hidden" : 0,
					"midpoints" : [  ]
				}

			}
, 			{
				"patchline" : 				{
					"source" : [ "obj-100", 0 ],
					"destination" : [ "obj-97", 1 ],
					"hidden" : 0,
					"midpoints" : [  ]
				}

			}
, 			{
				"patchline" : 				{
					"source" : [ "obj-102", 0 ],
					"destination" : [ "obj-99", 0 ],
					"hidden" : 0,
					"midpoints" : [  ]
				}

			}
, 			{
				"patchline" : 				{
					"source" : [ "obj-101", 0 ],
					"destination" : [ "obj-102", 0 ],
					"hidden" : 0,
					"midpoints" : [  ]
				}

			}
, 			{
				"patchline" : 				{
					"source" : [ "obj-97", 0 ],
					"destination" : [ "obj-101", 0 ],
					"hidden" : 0,
					"midpoints" : [  ]
				}

			}
, 			{
				"patchline" : 				{
					"source" : [ "obj-95", 0 ],
					"destination" : [ "obj-94", 0 ],
					"hidden" : 0,
					"midpoints" : [  ]
				}

			}
, 			{
				"patchline" : 				{
					"source" : [ "obj-86", 0 ],
					"destination" : [ "obj-95", 0 ],
					"hidden" : 0,
					"midpoints" : [  ]
				}

			}
, 			{
				"patchline" : 				{
					"source" : [ "obj-94", 0 ],
					"destination" : [ "obj-18", 0 ],
					"hidden" : 0,
					"midpoints" : [  ]
				}

			}
, 			{
				"patchline" : 				{
					"source" : [ "obj-85", 0 ],
					"destination" : [ "obj-86", 0 ],
					"hidden" : 0,
					"midpoints" : [  ]
				}

			}
, 			{
				"patchline" : 				{
					"source" : [ "obj-84", 0 ],
					"destination" : [ "obj-3", 0 ],
					"hidden" : 0,
					"midpoints" : [  ]
				}

			}
, 			{
				"patchline" : 				{
					"source" : [ "obj-75", 0 ],
					"destination" : [ "obj-81", 0 ],
					"hidden" : 0,
					"midpoints" : [  ]
				}

			}
, 			{
				"patchline" : 				{
					"source" : [ "obj-75", 1 ],
					"destination" : [ "obj-111", 0 ],
					"hidden" : 0,
					"midpoints" : [  ]
				}

			}
, 			{
				"patchline" : 				{
					"source" : [ "obj-79", 1 ],
					"destination" : [ "obj-75", 0 ],
					"hidden" : 0,
					"midpoints" : [  ]
				}

			}
, 			{
				"patchline" : 				{
					"source" : [ "obj-74", 0 ],
					"destination" : [ "obj-21", 0 ],
					"hidden" : 0,
					"midpoints" : [  ]
				}

			}
, 			{
				"patchline" : 				{
					"source" : [ "obj-73", 0 ],
					"destination" : [ "obj-9", 0 ],
					"hidden" : 0,
					"midpoints" : [  ]
				}

			}
, 			{
				"patchline" : 				{
					"source" : [ "obj-70", 0 ],
					"destination" : [ "obj-69", 0 ],
					"hidden" : 0,
					"midpoints" : [  ]
				}

			}
, 			{
				"patchline" : 				{
					"source" : [ "obj-69", 0 ],
					"destination" : [ "obj-45", 0 ],
					"hidden" : 0,
					"midpoints" : [  ]
				}

			}
, 			{
				"patchline" : 				{
					"source" : [ "obj-79", 0 ],
					"destination" : [ "obj-13", 0 ],
					"hidden" : 0,
					"midpoints" : [  ]
				}

			}
, 			{
				"patchline" : 				{
					"source" : [ "obj-13", 0 ],
					"destination" : [ "obj-80", 0 ],
					"hidden" : 0,
					"midpoints" : [  ]
				}

			}
, 			{
				"patchline" : 				{
					"source" : [ "obj-72", 0 ],
					"destination" : [ "obj-78", 0 ],
					"hidden" : 0,
					"midpoints" : [  ]
				}

			}
, 			{
				"patchline" : 				{
					"source" : [ "obj-45", 0 ],
					"destination" : [ "obj-33", 0 ],
					"hidden" : 0,
					"midpoints" : [  ]
				}

			}
, 			{
				"patchline" : 				{
					"source" : [ "obj-70", 1 ],
					"destination" : [ "obj-45", 1 ],
					"hidden" : 0,
					"midpoints" : [  ]
				}

			}
, 			{
				"patchline" : 				{
					"source" : [ "obj-93", 0 ],
					"destination" : [ "obj-70", 0 ],
					"hidden" : 0,
					"midpoints" : [  ]
				}

			}
, 			{
				"patchline" : 				{
					"source" : [ "obj-40", 0 ],
					"destination" : [ "obj-50", 0 ],
					"hidden" : 0,
					"midpoints" : [  ]
				}

			}
, 			{
				"patchline" : 				{
					"source" : [ "obj-79", 0 ],
					"destination" : [ "obj-40", 0 ],
					"hidden" : 0,
					"midpoints" : [  ]
				}

			}
, 			{
				"patchline" : 				{
					"source" : [ "obj-80", 0 ],
					"destination" : [ "obj-33", 0 ],
					"hidden" : 0,
					"midpoints" : [  ]
				}

			}
, 			{
				"patchline" : 				{
					"source" : [ "obj-3", 0 ],
					"destination" : [ "obj-14", 0 ],
					"hidden" : 0,
					"midpoints" : [  ]
				}

			}
, 			{
				"patchline" : 				{
					"source" : [ "obj-68", 1 ],
					"destination" : [ "obj-55", 0 ],
					"hidden" : 0,
					"midpoints" : [  ]
				}

			}
, 			{
				"patchline" : 				{
					"source" : [ "obj-68", 1 ],
					"destination" : [ "obj-54", 0 ],
					"hidden" : 0,
					"midpoints" : [  ]
				}

			}
, 			{
				"patchline" : 				{
					"source" : [ "obj-68", 1 ],
					"destination" : [ "obj-52", 0 ],
					"hidden" : 0,
					"midpoints" : [  ]
				}

			}
, 			{
				"patchline" : 				{
					"source" : [ "obj-68", 1 ],
					"destination" : [ "obj-49", 0 ],
					"hidden" : 0,
					"midpoints" : [  ]
				}

			}
, 			{
				"patchline" : 				{
					"source" : [ "obj-68", 1 ],
					"destination" : [ "obj-48", 0 ],
					"hidden" : 0,
					"midpoints" : [  ]
				}

			}
, 			{
				"patchline" : 				{
					"source" : [ "obj-68", 1 ],
					"destination" : [ "obj-47", 0 ],
					"hidden" : 0,
					"midpoints" : [  ]
				}

			}
, 			{
				"patchline" : 				{
					"source" : [ "obj-68", 1 ],
					"destination" : [ "obj-46", 0 ],
					"hidden" : 0,
					"midpoints" : [  ]
				}

			}
, 			{
				"patchline" : 				{
					"source" : [ "obj-68", 1 ],
					"destination" : [ "obj-15", 0 ],
					"hidden" : 0,
					"midpoints" : [  ]
				}

			}
, 			{
				"patchline" : 				{
					"source" : [ "obj-64", 0 ],
					"destination" : [ "obj-55", 0 ],
					"hidden" : 0,
					"midpoints" : [  ]
				}

			}
, 			{
				"patchline" : 				{
					"source" : [ "obj-65", 0 ],
					"destination" : [ "obj-54", 0 ],
					"hidden" : 0,
					"midpoints" : [  ]
				}

			}
, 			{
				"patchline" : 				{
					"source" : [ "obj-66", 0 ],
					"destination" : [ "obj-52", 0 ],
					"hidden" : 0,
					"midpoints" : [  ]
				}

			}
, 			{
				"patchline" : 				{
					"source" : [ "obj-67", 0 ],
					"destination" : [ "obj-49", 0 ],
					"hidden" : 0,
					"midpoints" : [  ]
				}

			}
, 			{
				"patchline" : 				{
					"source" : [ "obj-63", 0 ],
					"destination" : [ "obj-48", 0 ],
					"hidden" : 0,
					"midpoints" : [  ]
				}

			}
, 			{
				"patchline" : 				{
					"source" : [ "obj-61", 0 ],
					"destination" : [ "obj-47", 0 ],
					"hidden" : 0,
					"midpoints" : [  ]
				}

			}
, 			{
				"patchline" : 				{
					"source" : [ "obj-60", 0 ],
					"destination" : [ "obj-46", 0 ],
					"hidden" : 0,
					"midpoints" : [  ]
				}

			}
, 			{
				"patchline" : 				{
					"source" : [ "obj-58", 0 ],
					"destination" : [ "obj-15", 0 ],
					"hidden" : 0,
					"midpoints" : [  ]
				}

			}
, 			{
				"patchline" : 				{
					"source" : [ "obj-55", 0 ],
					"destination" : [ "obj-57", 7 ],
					"hidden" : 0,
					"midpoints" : [  ]
				}

			}
, 			{
				"patchline" : 				{
					"source" : [ "obj-54", 0 ],
					"destination" : [ "obj-57", 6 ],
					"hidden" : 0,
					"midpoints" : [  ]
				}

			}
, 			{
				"patchline" : 				{
					"source" : [ "obj-52", 0 ],
					"destination" : [ "obj-57", 5 ],
					"hidden" : 0,
					"midpoints" : [  ]
				}

			}
, 			{
				"patchline" : 				{
					"source" : [ "obj-49", 0 ],
					"destination" : [ "obj-57", 4 ],
					"hidden" : 0,
					"midpoints" : [  ]
				}

			}
, 			{
				"patchline" : 				{
					"source" : [ "obj-48", 0 ],
					"destination" : [ "obj-57", 3 ],
					"hidden" : 0,
					"midpoints" : [  ]
				}

			}
, 			{
				"patchline" : 				{
					"source" : [ "obj-47", 0 ],
					"destination" : [ "obj-57", 2 ],
					"hidden" : 0,
					"midpoints" : [  ]
				}

			}
, 			{
				"patchline" : 				{
					"source" : [ "obj-46", 0 ],
					"destination" : [ "obj-57", 1 ],
					"hidden" : 0,
					"midpoints" : [  ]
				}

			}
, 			{
				"patchline" : 				{
					"source" : [ "obj-15", 0 ],
					"destination" : [ "obj-57", 0 ],
					"hidden" : 0,
					"midpoints" : [  ]
				}

			}
, 			{
				"patchline" : 				{
					"source" : [ "obj-38", 0 ],
					"destination" : [ "obj-44", 0 ],
					"hidden" : 0,
					"midpoints" : [  ]
				}

			}
, 			{
				"patchline" : 				{
					"source" : [ "obj-43", 0 ],
					"destination" : [ "obj-33", 0 ],
					"hidden" : 0,
					"midpoints" : [  ]
				}

			}
, 			{
				"patchline" : 				{
					"source" : [ "obj-88", 0 ],
					"destination" : [ "obj-90", 0 ],
					"hidden" : 0,
					"midpoints" : [  ]
				}

			}
, 			{
				"patchline" : 				{
					"source" : [ "obj-90", 0 ],
					"destination" : [ "obj-93", 0 ],
					"hidden" : 0,
					"midpoints" : [  ]
				}

			}
, 			{
				"patchline" : 				{
					"source" : [ "obj-90", 1 ],
					"destination" : [ "obj-89", 0 ],
					"hidden" : 0,
					"midpoints" : [  ]
				}

			}
, 			{
				"patchline" : 				{
					"source" : [ "obj-42", 0 ],
					"destination" : [ "obj-38", 0 ],
					"hidden" : 0,
					"midpoints" : [  ]
				}

			}
, 			{
				"patchline" : 				{
					"source" : [ "obj-39", 0 ],
					"destination" : [ "obj-38", 0 ],
					"hidden" : 0,
					"midpoints" : [  ]
				}

			}
, 			{
				"patchline" : 				{
					"source" : [ "obj-38", 0 ],
					"destination" : [ "obj-36", 1 ],
					"hidden" : 0,
					"midpoints" : [  ]
				}

			}
, 			{
				"patchline" : 				{
					"source" : [ "obj-37", 0 ],
					"destination" : [ "obj-31", 0 ],
					"hidden" : 0,
					"midpoints" : [  ]
				}

			}
, 			{
				"patchline" : 				{
					"source" : [ "obj-35", 1 ],
					"destination" : [ "obj-37", 1 ],
					"hidden" : 0,
					"midpoints" : [  ]
				}

			}
, 			{
				"patchline" : 				{
					"source" : [ "obj-36", 0 ],
					"destination" : [ "obj-37", 0 ],
					"hidden" : 0,
					"midpoints" : [  ]
				}

			}
, 			{
				"patchline" : 				{
					"source" : [ "obj-35", 0 ],
					"destination" : [ "obj-36", 0 ],
					"hidden" : 0,
					"midpoints" : [  ]
				}

			}
, 			{
				"patchline" : 				{
					"source" : [ "obj-33", 0 ],
					"destination" : [ "obj-35", 0 ],
					"hidden" : 0,
					"midpoints" : [  ]
				}

			}
, 			{
				"patchline" : 				{
					"source" : [ "obj-34", 0 ],
					"destination" : [ "obj-33", 0 ],
					"hidden" : 0,
					"midpoints" : [  ]
				}

			}
, 			{
				"patchline" : 				{
					"source" : [ "obj-32", 0 ],
					"destination" : [ "obj-30", 0 ],
					"hidden" : 0,
					"midpoints" : [  ]
				}

			}
, 			{
				"patchline" : 				{
					"source" : [ "obj-4", 0 ],
					"destination" : [ "obj-5", 0 ],
					"hidden" : 0,
					"midpoints" : [  ]
				}

			}
, 			{
				"patchline" : 				{
					"source" : [ "obj-5", 0 ],
					"destination" : [ "obj-6", 0 ],
					"hidden" : 0,
					"midpoints" : [  ]
				}

			}
, 			{
				"patchline" : 				{
					"source" : [ "obj-27", 0 ],
					"destination" : [ "obj-11", 0 ],
					"hidden" : 0,
					"midpoints" : [  ]
				}

			}
, 			{
				"patchline" : 				{
					"source" : [ "obj-6", 1 ],
					"destination" : [ "obj-26", 0 ],
					"hidden" : 0,
					"midpoints" : [  ]
				}

			}
, 			{
				"patchline" : 				{
					"source" : [ "obj-23", 0 ],
					"destination" : [ "obj-24", 0 ],
					"hidden" : 0,
					"midpoints" : [  ]
				}

			}
, 			{
				"patchline" : 				{
					"source" : [ "obj-23", 0 ],
					"destination" : [ "obj-21", 0 ],
					"hidden" : 0,
					"midpoints" : [  ]
				}

			}
, 			{
				"patchline" : 				{
					"source" : [ "obj-20", 0 ],
					"destination" : [ "obj-23", 0 ],
					"hidden" : 0,
					"midpoints" : [  ]
				}

			}
, 			{
				"patchline" : 				{
					"source" : [ "obj-22", 0 ],
					"destination" : [ "obj-20", 0 ],
					"hidden" : 0,
					"midpoints" : [  ]
				}

			}
, 			{
				"patchline" : 				{
					"source" : [ "obj-10", 0 ],
					"destination" : [ "obj-9", 0 ],
					"hidden" : 0,
					"midpoints" : [  ]
				}

			}
, 			{
				"patchline" : 				{
					"source" : [ "obj-10", 1 ],
					"destination" : [ "obj-12", 0 ],
					"hidden" : 0,
					"midpoints" : [  ]
				}

			}
, 			{
				"patchline" : 				{
					"source" : [ "obj-19", 0 ],
					"destination" : [ "obj-20", 0 ],
					"hidden" : 0,
					"midpoints" : [  ]
				}

			}
, 			{
				"patchline" : 				{
					"source" : [ "obj-16", 1 ],
					"destination" : [ "obj-19", 0 ],
					"hidden" : 0,
					"midpoints" : [  ]
				}

			}
, 			{
				"patchline" : 				{
					"source" : [ "obj-16", 2 ],
					"destination" : [ "obj-19", 0 ],
					"hidden" : 0,
					"midpoints" : [  ]
				}

			}
, 			{
				"patchline" : 				{
					"source" : [ "obj-12", 0 ],
					"destination" : [ "obj-16", 0 ],
					"hidden" : 0,
					"midpoints" : [  ]
				}

			}
, 			{
				"patchline" : 				{
					"source" : [ "obj-6", 0 ],
					"destination" : [ "obj-10", 0 ],
					"hidden" : 0,
					"midpoints" : [  ]
				}

			}
, 			{
				"patchline" : 				{
					"source" : [ "obj-2", 0 ],
					"destination" : [ "obj-17", 0 ],
					"hidden" : 0,
					"midpoints" : [  ]
				}

			}
, 			{
				"patchline" : 				{
					"source" : [ "obj-18", 0 ],
					"destination" : [ "obj-4", 0 ],
					"hidden" : 0,
					"midpoints" : [  ]
				}

			}
, 			{
				"patchline" : 				{
					"source" : [ "obj-4", 2 ],
					"destination" : [ "obj-6", 0 ],
					"hidden" : 0,
					"midpoints" : [  ]
				}

			}
, 			{
				"patchline" : 				{
					"source" : [ "obj-7", 0 ],
					"destination" : [ "obj-18", 0 ],
					"hidden" : 0,
					"midpoints" : [  ]
				}

			}
, 			{
				"patchline" : 				{
					"source" : [ "obj-21", 0 ],
					"destination" : [ "obj-3", 0 ],
					"hidden" : 0,
					"midpoints" : [  ]
				}

			}
, 			{
				"patchline" : 				{
					"source" : [ "obj-9", 0 ],
					"destination" : [ "obj-3", 0 ],
					"hidden" : 0,
					"midpoints" : [  ]
				}

			}
, 			{
				"patchline" : 				{
					"source" : [ "obj-8", 0 ],
					"destination" : [ "obj-3", 0 ],
					"hidden" : 0,
					"midpoints" : [  ]
				}

			}
, 			{
				"patchline" : 				{
					"source" : [ "obj-11", 0 ],
					"destination" : [ "obj-3", 0 ],
					"hidden" : 0,
					"midpoints" : [  ]
				}

			}
, 			{
				"patchline" : 				{
					"source" : [ "obj-17", 0 ],
					"destination" : [ "obj-3", 0 ],
					"hidden" : 0,
					"midpoints" : [  ]
				}

			}
, 			{
				"patchline" : 				{
					"source" : [ "obj-29", 0 ],
					"destination" : [ "obj-3", 0 ],
					"hidden" : 0,
					"midpoints" : [  ]
				}

			}
, 			{
				"patchline" : 				{
					"source" : [ "obj-28", 0 ],
					"destination" : [ "obj-3", 0 ],
					"hidden" : 0,
					"midpoints" : [  ]
				}

			}
, 			{
				"patchline" : 				{
					"source" : [ "obj-30", 0 ],
					"destination" : [ "obj-3", 0 ],
					"hidden" : 0,
					"midpoints" : [  ]
				}

			}
, 			{
				"patchline" : 				{
					"source" : [ "obj-1", 0 ],
					"destination" : [ "obj-3", 0 ],
					"hidden" : 0,
					"midpoints" : [  ]
				}

			}
, 			{
				"patchline" : 				{
					"source" : [ "obj-25", 0 ],
					"destination" : [ "obj-3", 0 ],
					"hidden" : 0,
					"midpoints" : [  ]
				}

			}
, 			{
				"patchline" : 				{
					"source" : [ "obj-41", 0 ],
					"destination" : [ "obj-27", 0 ],
					"hidden" : 0,
					"midpoints" : [  ]
				}

			}
, 			{
				"patchline" : 				{
					"source" : [ "obj-53", 0 ],
					"destination" : [ "obj-50", 0 ],
					"hidden" : 0,
					"midpoints" : [  ]
				}

			}
, 			{
				"patchline" : 				{
					"source" : [ "obj-50", 0 ],
					"destination" : [ "obj-51", 0 ],
					"hidden" : 0,
					"midpoints" : [  ]
				}

			}
, 			{
				"patchline" : 				{
					"source" : [ "obj-62", 0 ],
					"destination" : [ "obj-50", 0 ],
					"hidden" : 0,
					"midpoints" : [  ]
				}

			}
, 			{
				"patchline" : 				{
					"source" : [ "obj-4", 2 ],
					"destination" : [ "obj-59", 0 ],
					"hidden" : 0,
					"midpoints" : [  ]
				}

			}
, 			{
				"patchline" : 				{
					"source" : [ "obj-78", 0 ],
					"destination" : [ "obj-79", 0 ],
					"hidden" : 0,
					"midpoints" : [  ]
				}

			}
, 			{
				"patchline" : 				{
					"source" : [ "obj-77", 0 ],
					"destination" : [ "obj-78", 0 ],
					"hidden" : 0,
					"midpoints" : [  ]
				}

			}
, 			{
				"patchline" : 				{
					"source" : [ "obj-83", 0 ],
					"destination" : [ "obj-77", 0 ],
					"hidden" : 0,
					"midpoints" : [  ]
				}

			}
, 			{
				"patchline" : 				{
					"source" : [ "obj-78", 0 ],
					"destination" : [ "obj-87", 0 ],
					"hidden" : 0,
					"midpoints" : [  ]
				}

			}
, 			{
				"patchline" : 				{
					"source" : [ "obj-5", 0 ],
					"destination" : [ "obj-59", 0 ],
					"hidden" : 0,
					"midpoints" : [  ]
				}

			}
, 			{
				"patchline" : 				{
					"source" : [ "obj-59", 0 ],
					"destination" : [ "obj-81", 0 ],
					"hidden" : 0,
					"midpoints" : [  ]
				}

			}
, 			{
				"patchline" : 				{
					"source" : [ "obj-89", 0 ],
					"destination" : [ "obj-91", 0 ],
					"hidden" : 0,
					"midpoints" : [  ]
				}

			}
, 			{
				"patchline" : 				{
					"source" : [ "obj-91", 2 ],
					"destination" : [ "obj-92", 0 ],
					"hidden" : 0,
					"midpoints" : [  ]
				}

			}
, 			{
				"patchline" : 				{
					"source" : [ "obj-91", 1 ],
					"destination" : [ "obj-92", 0 ],
					"hidden" : 0,
					"midpoints" : [  ]
				}

			}
, 			{
				"patchline" : 				{
					"source" : [ "obj-92", 0 ],
					"destination" : [ "obj-93", 1 ],
					"hidden" : 0,
					"midpoints" : [  ]
				}

			}
, 			{
				"patchline" : 				{
					"source" : [ "obj-93", 0 ],
					"destination" : [ "obj-50", 0 ],
					"hidden" : 0,
					"midpoints" : [  ]
				}

			}
, 			{
				"patchline" : 				{
					"source" : [ "obj-81", 0 ],
					"destination" : [ "obj-88", 0 ],
					"hidden" : 0,
					"midpoints" : [  ]
				}

			}
, 			{
				"patchline" : 				{
					"source" : [ "obj-50", 0 ],
					"destination" : [ "obj-110", 0 ],
					"hidden" : 0,
					"midpoints" : [  ]
				}

			}
, 			{
				"patchline" : 				{
					"source" : [ "obj-111", 0 ],
					"destination" : [ "obj-110", 1 ],
					"hidden" : 0,
					"midpoints" : [  ]
				}

			}
, 			{
				"patchline" : 				{
					"source" : [ "obj-112", 1 ],
					"destination" : [ "obj-120", 0 ],
					"hidden" : 0,
					"midpoints" : [  ]
				}

			}
, 			{
				"patchline" : 				{
					"source" : [ "obj-112", 1 ],
					"destination" : [ "obj-119", 0 ],
					"hidden" : 0,
					"midpoints" : [  ]
				}

			}
, 			{
				"patchline" : 				{
					"source" : [ "obj-112", 1 ],
					"destination" : [ "obj-118", 0 ],
					"hidden" : 0,
					"midpoints" : [  ]
				}

			}
, 			{
				"patchline" : 				{
					"source" : [ "obj-112", 1 ],
					"destination" : [ "obj-117", 0 ],
					"hidden" : 0,
					"midpoints" : [  ]
				}

			}
, 			{
				"patchline" : 				{
					"source" : [ "obj-112", 1 ],
					"destination" : [ "obj-116", 0 ],
					"hidden" : 0,
					"midpoints" : [  ]
				}

			}
, 			{
				"patchline" : 				{
					"source" : [ "obj-112", 1 ],
					"destination" : [ "obj-115", 0 ],
					"hidden" : 0,
					"midpoints" : [  ]
				}

			}
, 			{
				"patchline" : 				{
					"source" : [ "obj-112", 1 ],
					"destination" : [ "obj-114", 0 ],
					"hidden" : 0,
					"midpoints" : [  ]
				}

			}
, 			{
				"patchline" : 				{
					"source" : [ "obj-112", 1 ],
					"destination" : [ "obj-113", 0 ],
					"hidden" : 0,
					"midpoints" : [  ]
				}

			}
, 			{
				"patchline" : 				{
					"source" : [ "obj-110", 0 ],
					"destination" : [ "obj-120", 0 ],
					"hidden" : 0,
					"midpoints" : [  ]
				}

			}
, 			{
				"patchline" : 				{
					"source" : [ "obj-110", 1 ],
					"destination" : [ "obj-119", 0 ],
					"hidden" : 0,
					"midpoints" : [  ]
				}

			}
, 			{
				"patchline" : 				{
					"source" : [ "obj-110", 2 ],
					"destination" : [ "obj-118", 0 ],
					"hidden" : 0,
					"midpoints" : [  ]
				}

			}
, 			{
				"patchline" : 				{
					"source" : [ "obj-110", 3 ],
					"destination" : [ "obj-117", 0 ],
					"hidden" : 0,
					"midpoints" : [  ]
				}

			}
, 			{
				"patchline" : 				{
					"source" : [ "obj-110", 4 ],
					"destination" : [ "obj-116", 0 ],
					"hidden" : 0,
					"midpoints" : [  ]
				}

			}
, 			{
				"patchline" : 				{
					"source" : [ "obj-110", 5 ],
					"destination" : [ "obj-115", 0 ],
					"hidden" : 0,
					"midpoints" : [  ]
				}

			}
, 			{
				"patchline" : 				{
					"source" : [ "obj-110", 6 ],
					"destination" : [ "obj-114", 0 ],
					"hidden" : 0,
					"midpoints" : [  ]
				}

			}
, 			{
				"patchline" : 				{
					"source" : [ "obj-110", 7 ],
					"destination" : [ "obj-113", 0 ],
					"hidden" : 0,
					"midpoints" : [  ]
				}

			}
, 			{
				"patchline" : 				{
					"source" : [ "obj-120", 0 ],
					"destination" : [ "obj-57", 0 ],
					"hidden" : 0,
					"midpoints" : [  ]
				}

			}
, 			{
				"patchline" : 				{
					"source" : [ "obj-119", 0 ],
					"destination" : [ "obj-57", 1 ],
					"hidden" : 0,
					"midpoints" : [  ]
				}

			}
, 			{
				"patchline" : 				{
					"source" : [ "obj-118", 0 ],
					"destination" : [ "obj-57", 2 ],
					"hidden" : 0,
					"midpoints" : [  ]
				}

			}
, 			{
				"patchline" : 				{
					"source" : [ "obj-117", 0 ],
					"destination" : [ "obj-57", 3 ],
					"hidden" : 0,
					"midpoints" : [  ]
				}

			}
, 			{
				"patchline" : 				{
					"source" : [ "obj-116", 0 ],
					"destination" : [ "obj-57", 4 ],
					"hidden" : 0,
					"midpoints" : [  ]
				}

			}
, 			{
				"patchline" : 				{
					"source" : [ "obj-115", 0 ],
					"destination" : [ "obj-57", 5 ],
					"hidden" : 0,
					"midpoints" : [  ]
				}

			}
, 			{
				"patchline" : 				{
					"source" : [ "obj-114", 0 ],
					"destination" : [ "obj-57", 6 ],
					"hidden" : 0,
					"midpoints" : [  ]
				}

			}
, 			{
				"patchline" : 				{
					"source" : [ "obj-113", 0 ],
					"destination" : [ "obj-57", 7 ],
					"hidden" : 0,
					"midpoints" : [  ]
				}

			}
, 			{
				"patchline" : 				{
					"source" : [ "obj-120", 0 ],
					"destination" : [ "obj-121", 0 ],
					"hidden" : 0,
					"midpoints" : [  ]
				}

			}
, 			{
				"patchline" : 				{
					"source" : [ "obj-119", 0 ],
					"destination" : [ "obj-122", 0 ],
					"hidden" : 0,
					"midpoints" : [  ]
				}

			}
, 			{
				"patchline" : 				{
					"source" : [ "obj-118", 0 ],
					"destination" : [ "obj-123", 0 ],
					"hidden" : 0,
					"midpoints" : [  ]
				}

			}
, 			{
				"patchline" : 				{
					"source" : [ "obj-117", 0 ],
					"destination" : [ "obj-124", 0 ],
					"hidden" : 0,
					"midpoints" : [  ]
				}

			}
, 			{
				"patchline" : 				{
					"source" : [ "obj-116", 0 ],
					"destination" : [ "obj-125", 0 ],
					"hidden" : 0,
					"midpoints" : [  ]
				}

			}
, 			{
				"patchline" : 				{
					"source" : [ "obj-115", 0 ],
					"destination" : [ "obj-126", 0 ],
					"hidden" : 0,
					"midpoints" : [  ]
				}

			}
, 			{
				"patchline" : 				{
					"source" : [ "obj-114", 0 ],
					"destination" : [ "obj-127", 0 ],
					"hidden" : 0,
					"midpoints" : [  ]
				}

			}
, 			{
				"patchline" : 				{
					"source" : [ "obj-113", 0 ],
					"destination" : [ "obj-128", 0 ],
					"hidden" : 0,
					"midpoints" : [  ]
				}

			}
, 			{
				"patchline" : 				{
					"source" : [ "obj-130", 0 ],
					"destination" : [ "obj-129", 0 ],
					"hidden" : 0,
					"midpoints" : [  ]
				}

			}
, 			{
				"patchline" : 				{
					"source" : [ "obj-129", 0 ],
					"destination" : [ "obj-131", 0 ],
					"hidden" : 0,
					"midpoints" : [  ]
				}

			}
, 			{
				"patchline" : 				{
					"source" : [ "obj-31", 0 ],
					"destination" : [ "obj-131", 0 ],
					"hidden" : 0,
					"midpoints" : [  ]
				}

			}
, 			{
				"patchline" : 				{
					"source" : [ "obj-131", 0 ],
					"destination" : [ "obj-139", 0 ],
					"hidden" : 0,
					"midpoints" : [  ]
				}

			}
, 			{
				"patchline" : 				{
					"source" : [ "obj-131", 1 ],
					"destination" : [ "obj-138", 0 ],
					"hidden" : 0,
					"midpoints" : [  ]
				}

			}
, 			{
				"patchline" : 				{
					"source" : [ "obj-131", 2 ],
					"destination" : [ "obj-137", 0 ],
					"hidden" : 0,
					"midpoints" : [  ]
				}

			}
, 			{
				"patchline" : 				{
					"source" : [ "obj-131", 3 ],
					"destination" : [ "obj-136", 0 ],
					"hidden" : 0,
					"midpoints" : [  ]
				}

			}
, 			{
				"patchline" : 				{
					"source" : [ "obj-131", 4 ],
					"destination" : [ "obj-135", 0 ],
					"hidden" : 0,
					"midpoints" : [  ]
				}

			}
, 			{
				"patchline" : 				{
					"source" : [ "obj-131", 5 ],
					"destination" : [ "obj-134", 0 ],
					"hidden" : 0,
					"midpoints" : [  ]
				}

			}
, 			{
				"patchline" : 				{
					"source" : [ "obj-131", 6 ],
					"destination" : [ "obj-133", 0 ],
					"hidden" : 0,
					"midpoints" : [  ]
				}

			}
, 			{
				"patchline" : 				{
					"source" : [ "obj-131", 7 ],
					"destination" : [ "obj-132", 0 ],
					"hidden" : 0,
					"midpoints" : [  ]
				}

			}
, 			{
				"patchline" : 				{
					"source" : [ "obj-140", 0 ],
					"destination" : [ "obj-129", 0 ],
					"hidden" : 0,
					"midpoints" : [  ]
				}

			}
, 			{
				"patchline" : 				{
					"source" : [ "obj-140", 1 ],
					"destination" : [ "obj-129", 1 ],
					"hidden" : 0,
					"midpoints" : [  ]
				}

			}
, 			{
				"patchline" : 				{
					"source" : [ "obj-141", 0 ],
					"destination" : [ "obj-140", 0 ],
					"hidden" : 0,
					"midpoints" : [  ]
				}

			}
, 			{
				"patchline" : 				{
					"source" : [ "obj-38", 0 ],
					"destination" : [ "obj-141", 0 ],
					"hidden" : 0,
					"midpoints" : [  ]
				}

			}
, 			{
				"patchline" : 				{
					"source" : [ "obj-142", 1 ],
					"destination" : [ "obj-143", 0 ],
					"hidden" : 0,
					"midpoints" : [  ]
				}

			}
, 			{
				"patchline" : 				{
					"source" : [ "obj-142", 1 ],
					"destination" : [ "obj-144", 0 ],
					"hidden" : 0,
					"midpoints" : [  ]
				}

			}
, 			{
				"patchline" : 				{
					"source" : [ "obj-142", 1 ],
					"destination" : [ "obj-145", 0 ],
					"hidden" : 0,
					"midpoints" : [  ]
				}

			}
, 			{
				"patchline" : 				{
					"source" : [ "obj-142", 1 ],
					"destination" : [ "obj-146", 0 ],
					"hidden" : 0,
					"midpoints" : [  ]
				}

			}
, 			{
				"patchline" : 				{
					"source" : [ "obj-142", 1 ],
					"destination" : [ "obj-147", 0 ],
					"hidden" : 0,
					"midpoints" : [  ]
				}

			}
, 			{
				"patchline" : 				{
					"source" : [ "obj-142", 1 ],
					"destination" : [ "obj-148", 0 ],
					"hidden" : 0,
					"midpoints" : [  ]
				}

			}
, 			{
				"patchline" : 				{
					"source" : [ "obj-142", 1 ],
					"destination" : [ "obj-149", 0 ],
					"hidden" : 0,
					"midpoints" : [  ]
				}

			}
, 			{
				"patchline" : 				{
					"source" : [ "obj-142", 1 ],
					"destination" : [ "obj-150", 0 ],
					"hidden" : 0,
					"midpoints" : [  ]
				}

			}
, 			{
				"patchline" : 				{
					"source" : [ "obj-131", 0 ],
					"destination" : [ "obj-150", 0 ],
					"hidden" : 0,
					"midpoints" : [  ]
				}

			}
, 			{
				"patchline" : 				{
					"source" : [ "obj-131", 1 ],
					"destination" : [ "obj-149", 0 ],
					"hidden" : 0,
					"midpoints" : [  ]
				}

			}
, 			{
				"patchline" : 				{
					"source" : [ "obj-131", 2 ],
					"destination" : [ "obj-148", 0 ],
					"hidden" : 0,
					"midpoints" : [  ]
				}

			}
, 			{
				"patchline" : 				{
					"source" : [ "obj-131", 3 ],
					"destination" : [ "obj-147", 0 ],
					"hidden" : 0,
					"midpoints" : [  ]
				}

			}
, 			{
				"patchline" : 				{
					"source" : [ "obj-131", 4 ],
					"destination" : [ "obj-146", 0 ],
					"hidden" : 0,
					"midpoints" : [  ]
				}

			}
, 			{
				"patchline" : 				{
					"source" : [ "obj-131", 5 ],
					"destination" : [ "obj-145", 0 ],
					"hidden" : 0,
					"midpoints" : [  ]
				}

			}
, 			{
				"patchline" : 				{
					"source" : [ "obj-131", 6 ],
					"destination" : [ "obj-144", 0 ],
					"hidden" : 0,
					"midpoints" : [  ]
				}

			}
, 			{
				"patchline" : 				{
					"source" : [ "obj-131", 7 ],
					"destination" : [ "obj-143", 0 ],
					"hidden" : 0,
					"midpoints" : [  ]
				}

			}
, 			{
				"patchline" : 				{
					"source" : [ "obj-150", 0 ],
					"destination" : [ "obj-57", 0 ],
					"hidden" : 0,
					"midpoints" : [  ]
				}

			}
, 			{
				"patchline" : 				{
					"source" : [ "obj-149", 0 ],
					"destination" : [ "obj-57", 1 ],
					"hidden" : 0,
					"midpoints" : [  ]
				}

			}
, 			{
				"patchline" : 				{
					"source" : [ "obj-148", 0 ],
					"destination" : [ "obj-57", 2 ],
					"hidden" : 0,
					"midpoints" : [  ]
				}

			}
, 			{
				"patchline" : 				{
					"source" : [ "obj-147", 0 ],
					"destination" : [ "obj-57", 3 ],
					"hidden" : 0,
					"midpoints" : [  ]
				}

			}
, 			{
				"patchline" : 				{
					"source" : [ "obj-146", 0 ],
					"destination" : [ "obj-57", 4 ],
					"hidden" : 0,
					"midpoints" : [  ]
				}

			}
, 			{
				"patchline" : 				{
					"source" : [ "obj-145", 0 ],
					"destination" : [ "obj-57", 5 ],
					"hidden" : 0,
					"midpoints" : [  ]
				}

			}
, 			{
				"patchline" : 				{
					"source" : [ "obj-144", 0 ],
					"destination" : [ "obj-57", 6 ],
					"hidden" : 0,
					"midpoints" : [  ]
				}

			}
, 			{
				"patchline" : 				{
					"source" : [ "obj-143", 0 ],
					"destination" : [ "obj-57", 7 ],
					"hidden" : 0,
					"midpoints" : [  ]
				}

			}
, 			{
				"patchline" : 				{
					"source" : [ "obj-151", 0 ],
					"destination" : [ "obj-129", 0 ],
					"hidden" : 0,
					"midpoints" : [  ]
				}

			}
, 			{
				"patchline" : 				{
					"source" : [ "obj-152", 0 ],
					"destination" : [ "obj-151", 0 ],
					"hidden" : 0,
					"midpoints" : [  ]
				}

			}
, 			{
				"patchline" : 				{
					"source" : [ "obj-151", 1 ],
					"destination" : [ "obj-129", 3 ],
					"hidden" : 0,
					"midpoints" : [  ]
				}

			}
, 			{
				"patchline" : 				{
					"source" : [ "obj-71", 0 ],
					"destination" : [ "obj-3", 0 ],
					"hidden" : 0,
					"midpoints" : [  ]
				}

			}
, 			{
				"patchline" : 				{
					"source" : [ "obj-82", 0 ],
					"destination" : [ "obj-15", 0 ],
					"hidden" : 0,
					"midpoints" : [  ]
				}

			}
, 			{
				"patchline" : 				{
					"source" : [ "obj-76", 0 ],
					"destination" : [ "obj-46", 0 ],
					"hidden" : 0,
					"midpoints" : [  ]
				}

			}
, 			{
				"patchline" : 				{
					"source" : [ "obj-99", 0 ],
					"destination" : [ "obj-98", 0 ],
					"hidden" : 0,
					"midpoints" : [  ]
				}

			}
, 			{
				"patchline" : 				{
					"source" : [ "obj-98", 0 ],
					"destination" : [ "obj-22", 0 ],
					"hidden" : 0,
					"midpoints" : [  ]
				}

			}
 ]
	}

}
