{
	"patcher" : 	{
		"fileversion" : 1,
		"rect" : [ 275.0, 44.0, 1281.0, 783.0 ],
		"bglocked" : 0,
		"defrect" : [ 275.0, 44.0, 1281.0, 783.0 ],
		"openrect" : [ 0.0, 0.0, 0.0, 0.0 ],
		"openinpresentation" : 0,
		"default_fontsize" : 12.0,
		"default_fontface" : 0,
		"default_fontname" : "Arial",
		"gridonopen" : 0,
		"gridsize" : [ 4.0, 4.0 ],
		"gridsnaponopen" : 0,
		"toolbarvisible" : 1,
		"boxanimatetime" : 200,
		"imprint" : 0,
		"enablehscroll" : 1,
		"enablevscroll" : 1,
		"devicewidth" : 0.0,
		"boxes" : [ 			{
				"box" : 				{
					"maxclass" : "message",
					"text" : "0. 0.",
					"fontsize" : 12.0,
					"presentation_rect" : [ 660.0, 73.0, 0.0, 0.0 ],
					"numinlets" : 2,
					"patching_rect" : [ 660.0, 72.0, 34.0, 18.0 ],
					"numoutlets" : 1,
					"id" : "obj-68",
					"fontname" : "Arial",
					"outlettype" : [ "" ]
				}

			}
, 			{
				"box" : 				{
					"maxclass" : "message",
					"text" : "****************************",
					"fontsize" : 12.0,
					"numinlets" : 2,
					"patching_rect" : [ 320.0, 224.0, 141.0, 18.0 ],
					"numoutlets" : 1,
					"id" : "obj-67",
					"fontname" : "Arial",
					"outlettype" : [ "" ]
				}

			}
, 			{
				"box" : 				{
					"maxclass" : "number",
					"fontsize" : 12.0,
					"numinlets" : 1,
					"patching_rect" : [ 224.0, 360.0, 50.0, 20.0 ],
					"numoutlets" : 2,
					"id" : "obj-43",
					"fontname" : "Arial",
					"outlettype" : [ "int", "bang" ]
				}

			}
, 			{
				"box" : 				{
					"maxclass" : "newobj",
					"text" : "t l l",
					"fontsize" : 12.0,
					"numinlets" : 1,
					"patching_rect" : [ 492.0, 316.0, 32.5, 20.0 ],
					"numoutlets" : 2,
					"id" : "obj-33",
					"fontname" : "Arial",
					"outlettype" : [ "", "" ]
				}

			}
, 			{
				"box" : 				{
					"maxclass" : "newobj",
					"text" : "t l b b",
					"fontsize" : 12.0,
					"numinlets" : 1,
					"patching_rect" : [ 492.0, 368.0, 46.0, 20.0 ],
					"numoutlets" : 3,
					"id" : "obj-30",
					"fontname" : "Arial",
					"outlettype" : [ "", "bang", "bang" ]
				}

			}
, 			{
				"box" : 				{
					"maxclass" : "newobj",
					"text" : "zl queue",
					"fontsize" : 12.0,
					"numinlets" : 2,
					"patching_rect" : [ 508.0, 396.0, 56.0, 20.0 ],
					"numoutlets" : 2,
					"id" : "obj-29",
					"fontname" : "Arial",
					"outlettype" : [ "", "" ]
				}

			}
, 			{
				"box" : 				{
					"maxclass" : "newobj",
					"text" : "route 0 1 2 3 4 5 6 7",
					"fontsize" : 12.0,
					"numinlets" : 1,
					"patching_rect" : [ 492.0, 340.0, 127.0, 20.0 ],
					"numoutlets" : 9,
					"id" : "obj-22",
					"fontname" : "Arial",
					"outlettype" : [ "", "", "", "", "", "", "", "", "" ]
				}

			}
, 			{
				"box" : 				{
					"maxclass" : "newobj",
					"text" : "zl group",
					"fontsize" : 12.0,
					"numinlets" : 2,
					"patching_rect" : [ 492.0, 264.0, 53.0, 20.0 ],
					"numoutlets" : 2,
					"id" : "obj-20",
					"fontname" : "Arial",
					"outlettype" : [ "", "" ]
				}

			}
, 			{
				"box" : 				{
					"maxclass" : "newobj",
					"text" : "multirange 48 56 64 72 80 88 96 104 112",
					"fontsize" : 12.0,
					"numinlets" : 1,
					"patching_rect" : [ 492.0, 288.0, 229.0, 20.0 ],
					"numoutlets" : 2,
					"id" : "obj-122",
					"fontname" : "Arial",
					"outlettype" : [ "", "" ]
				}

			}
, 			{
				"box" : 				{
					"maxclass" : "message",
					"text" : "2. 0. 5. 1. 3. 6. 0. 15.",
					"linecount" : 3,
					"fontsize" : 12.0,
					"numinlets" : 2,
					"patching_rect" : [ 48.0, 652.0, 61.0, 46.0 ],
					"numoutlets" : 1,
					"id" : "obj-117",
					"fontname" : "Arial",
					"outlettype" : [ "" ]
				}

			}
, 			{
				"box" : 				{
					"maxclass" : "newobj",
					"text" : "b 3",
					"fontsize" : 12.0,
					"numinlets" : 1,
					"patching_rect" : [ 292.0, 184.0, 46.0, 20.0 ],
					"numoutlets" : 3,
					"id" : "obj-116",
					"fontname" : "Arial",
					"outlettype" : [ "bang", "bang", "bang" ]
				}

			}
, 			{
				"box" : 				{
					"maxclass" : "button",
					"numinlets" : 1,
					"patching_rect" : [ 292.0, 92.0, 85.0, 85.0 ],
					"numoutlets" : 1,
					"id" : "obj-115",
					"outlettype" : [ "bang" ]
				}

			}
, 			{
				"box" : 				{
					"maxclass" : "message",
					"text" : "166. 1. 160. 1. 334. 1. 479. 1. 425. 1. 502. 1. 395. 1. 638. 1. 890. 1. 958. 1. 1276. 1. 1336. 1. 2051. 1. 1367. 1. 1822. 1. 1732. 1. 1619. 1. 4102. 1. 4616. 1. 3644. 1. 4858. 1.",
					"linecount" : 2,
					"fontsize" : 12.0,
					"numinlets" : 2,
					"patching_rect" : [ 460.0, 668.0, 590.0, 32.0 ],
					"numoutlets" : 1,
					"id" : "obj-113",
					"fontname" : "Arial",
					"outlettype" : [ "" ]
				}

			}
, 			{
				"box" : 				{
					"maxclass" : "multislider",
					"numinlets" : 1,
					"setminmax" : [ 0.0, 20.0 ],
					"patching_rect" : [ 48.0, 488.0, 238.0, 137.0 ],
					"numoutlets" : 2,
					"id" : "obj-84",
					"outlettype" : [ "", "" ],
					"size" : 8
				}

			}
, 			{
				"box" : 				{
					"maxclass" : "message",
					"text" : "8",
					"fontsize" : 12.0,
					"numinlets" : 2,
					"patching_rect" : [ 48.0, 20.0, 32.5, 18.0 ],
					"numoutlets" : 1,
					"id" : "obj-83",
					"fontname" : "Arial",
					"outlettype" : [ "" ]
				}

			}
, 			{
				"box" : 				{
					"maxclass" : "message",
					"text" : "880",
					"fontsize" : 12.0,
					"numinlets" : 2,
					"patching_rect" : [ 492.0, 36.0, 32.5, 18.0 ],
					"numoutlets" : 1,
					"id" : "obj-64",
					"fontname" : "Arial",
					"outlettype" : [ "" ]
				}

			}
, 			{
				"box" : 				{
					"maxclass" : "newobj",
					"text" : "/ 2",
					"fontsize" : 12.0,
					"numinlets" : 2,
					"patching_rect" : [ 124.0, 336.0, 32.5, 20.0 ],
					"numoutlets" : 1,
					"id" : "obj-87",
					"fontname" : "Arial",
					"outlettype" : [ "int" ]
				}

			}
, 			{
				"box" : 				{
					"maxclass" : "newobj",
					"text" : "prepend multivariate_hypergeometric",
					"fontsize" : 12.0,
					"numinlets" : 1,
					"patching_rect" : [ 48.0, 400.0, 209.0, 20.0 ],
					"numoutlets" : 1,
					"id" : "obj-44",
					"fontname" : "Arial",
					"outlettype" : [ "" ]
				}

			}
, 			{
				"box" : 				{
					"maxclass" : "newobj",
					"text" : "zl join",
					"fontsize" : 12.0,
					"numinlets" : 2,
					"patching_rect" : [ 48.0, 376.0, 41.0, 20.0 ],
					"numoutlets" : 2,
					"id" : "obj-28",
					"fontname" : "Arial",
					"outlettype" : [ "", "" ]
				}

			}
, 			{
				"box" : 				{
					"maxclass" : "newobj",
					"text" : "zl iter 1",
					"fontsize" : 12.0,
					"numinlets" : 2,
					"patching_rect" : [ 520.0, 180.0, 49.0, 20.0 ],
					"numoutlets" : 2,
					"id" : "obj-48",
					"fontname" : "Arial",
					"outlettype" : [ "", "" ]
				}

			}
, 			{
				"box" : 				{
					"maxclass" : "newobj",
					"text" : "zl sort",
					"fontsize" : 12.0,
					"numinlets" : 2,
					"patching_rect" : [ 520.0, 156.0, 43.0, 20.0 ],
					"numoutlets" : 2,
					"id" : "obj-49",
					"fontname" : "Arial",
					"outlettype" : [ "", "" ]
				}

			}
, 			{
				"box" : 				{
					"maxclass" : "newobj",
					"text" : "zl group",
					"fontsize" : 12.0,
					"numinlets" : 2,
					"patching_rect" : [ 520.0, 132.0, 53.0, 20.0 ],
					"numoutlets" : 2,
					"id" : "obj-50",
					"fontname" : "Arial",
					"outlettype" : [ "", "" ]
				}

			}
, 			{
				"box" : 				{
					"maxclass" : "newobj",
					"text" : "split 137. 5000.",
					"fontsize" : 12.0,
					"numinlets" : 3,
					"patching_rect" : [ 520.0, 108.0, 92.0, 20.0 ],
					"numoutlets" : 2,
					"id" : "obj-51",
					"fontname" : "Arial",
					"outlettype" : [ "float", "float" ]
				}

			}
, 			{
				"box" : 				{
					"maxclass" : "newobj",
					"text" : "hailstone",
					"fontsize" : 12.0,
					"numinlets" : 1,
					"patching_rect" : [ 520.0, 84.0, 59.5, 20.0 ],
					"numoutlets" : 4,
					"id" : "obj-61",
					"fontname" : "Arial",
					"outlettype" : [ "float", "", "bang", "" ]
				}

			}
, 			{
				"box" : 				{
					"maxclass" : "newobj",
					"text" : "t b b 880",
					"fontsize" : 12.0,
					"numinlets" : 1,
					"patching_rect" : [ 492.0, 60.0, 57.0, 20.0 ],
					"numoutlets" : 3,
					"id" : "obj-63",
					"fontname" : "Arial",
					"outlettype" : [ "bang", "bang", "int" ]
				}

			}
, 			{
				"box" : 				{
					"maxclass" : "newobj",
					"text" : "round",
					"fontsize" : 12.0,
					"numinlets" : 2,
					"patching_rect" : [ 492.0, 592.0, 41.0, 20.0 ],
					"numoutlets" : 1,
					"id" : "obj-15",
					"fontname" : "Arial",
					"outlettype" : [ "" ]
				}

			}
, 			{
				"box" : 				{
					"maxclass" : "newobj",
					"text" : "mtof",
					"fontsize" : 12.0,
					"numinlets" : 1,
					"patching_rect" : [ 492.0, 568.0, 34.0, 20.0 ],
					"numoutlets" : 1,
					"id" : "obj-98",
					"fontname" : "Arial",
					"outlettype" : [ "" ]
				}

			}
, 			{
				"box" : 				{
					"maxclass" : "newobj",
					"text" : "ftom 1.",
					"fontsize" : 12.0,
					"numinlets" : 1,
					"patching_rect" : [ 492.0, 240.0, 47.0, 20.0 ],
					"numoutlets" : 1,
					"id" : "obj-65",
					"fontname" : "Arial",
					"outlettype" : [ "" ]
				}

			}
, 			{
				"box" : 				{
					"maxclass" : "newobj",
					"text" : "zl iter 1",
					"fontsize" : 12.0,
					"numinlets" : 2,
					"patching_rect" : [ 492.0, 544.0, 49.0, 20.0 ],
					"numoutlets" : 2,
					"id" : "obj-53",
					"fontname" : "Arial",
					"outlettype" : [ "", "" ]
				}

			}
, 			{
				"box" : 				{
					"maxclass" : "newobj",
					"text" : "pack 0. 1.",
					"fontsize" : 12.0,
					"numinlets" : 2,
					"patching_rect" : [ 492.0, 616.0, 63.0, 20.0 ],
					"numoutlets" : 1,
					"id" : "obj-55",
					"fontname" : "Arial",
					"outlettype" : [ "" ]
				}

			}
, 			{
				"box" : 				{
					"maxclass" : "newobj",
					"text" : "zl group",
					"fontsize" : 12.0,
					"numinlets" : 2,
					"patching_rect" : [ 492.0, 640.0, 53.0, 20.0 ],
					"numoutlets" : 2,
					"id" : "obj-56",
					"fontname" : "Arial",
					"outlettype" : [ "", "" ]
				}

			}
, 			{
				"box" : 				{
					"maxclass" : "newobj",
					"text" : "zl slice 2",
					"fontsize" : 12.0,
					"numinlets" : 2,
					"patching_rect" : [ 492.0, 520.0, 57.0, 20.0 ],
					"numoutlets" : 2,
					"id" : "obj-59",
					"fontname" : "Arial",
					"outlettype" : [ "", "" ]
				}

			}
, 			{
				"box" : 				{
					"maxclass" : "newobj",
					"text" : "zl scramble",
					"fontsize" : 12.0,
					"numinlets" : 2,
					"patching_rect" : [ 492.0, 496.0, 71.0, 20.0 ],
					"numoutlets" : 2,
					"id" : "obj-60",
					"fontname" : "Arial",
					"outlettype" : [ "", "" ]
				}

			}
, 			{
				"box" : 				{
					"maxclass" : "newobj",
					"text" : "split 137. 5000.",
					"fontsize" : 12.0,
					"numinlets" : 3,
					"patching_rect" : [ 492.0, 216.0, 92.0, 20.0 ],
					"numoutlets" : 2,
					"id" : "obj-62",
					"fontname" : "Arial",
					"outlettype" : [ "float", "float" ]
				}

			}
, 			{
				"box" : 				{
					"maxclass" : "newobj",
					"text" : "t i i",
					"fontsize" : 12.0,
					"numinlets" : 1,
					"patching_rect" : [ 48.0, 248.0, 32.5, 20.0 ],
					"numoutlets" : 2,
					"id" : "obj-54",
					"fontname" : "Arial",
					"outlettype" : [ "int", "int" ]
				}

			}
, 			{
				"box" : 				{
					"maxclass" : "spectroscope~",
					"numinlets" : 2,
					"patching_rect" : [ 836.0, 176.0, 300.0, 100.0 ],
					"numoutlets" : 1,
					"id" : "obj-38",
					"outlettype" : [ "" ]
				}

			}
, 			{
				"box" : 				{
					"maxclass" : "ezdac~",
					"numinlets" : 2,
					"patching_rect" : [ 764.0, 240.0, 45.0, 45.0 ],
					"numoutlets" : 0,
					"id" : "obj-37"
				}

			}
, 			{
				"box" : 				{
					"maxclass" : "gain~",
					"numinlets" : 2,
					"patching_rect" : [ 764.0, 176.0, 53.0, 59.0 ],
					"numoutlets" : 2,
					"id" : "obj-36",
					"outlettype" : [ "signal", "int" ]
				}

			}
, 			{
				"box" : 				{
					"maxclass" : "newobj",
					"text" : "sinusoids~",
					"fontsize" : 12.0,
					"numinlets" : 1,
					"patching_rect" : [ 764.0, 148.0, 68.0, 20.0 ],
					"numoutlets" : 1,
					"id" : "obj-35",
					"fontname" : "Arial",
					"outlettype" : [ "signal" ]
				}

			}
, 			{
				"box" : 				{
					"maxclass" : "toggle",
					"numinlets" : 1,
					"patching_rect" : [ 764.0, 100.0, 20.0, 20.0 ],
					"numoutlets" : 1,
					"id" : "obj-34",
					"outlettype" : [ "int" ]
				}

			}
, 			{
				"box" : 				{
					"maxclass" : "message",
					"text" : "nOsc 40, fade 20",
					"fontsize" : 12.0,
					"numinlets" : 2,
					"patching_rect" : [ 660.0, 100.0, 102.0, 18.0 ],
					"numoutlets" : 1,
					"id" : "obj-32",
					"fontname" : "Arial",
					"outlettype" : [ "" ]
				}

			}
, 			{
				"box" : 				{
					"maxclass" : "newobj",
					"text" : "migrator",
					"fontsize" : 12.0,
					"numinlets" : 1,
					"patching_rect" : [ 764.0, 124.0, 59.5, 20.0 ],
					"numoutlets" : 4,
					"id" : "obj-31",
					"fontname" : "Arial",
					"outlettype" : [ "list", "list", "int", "bang" ]
				}

			}
, 			{
				"box" : 				{
					"maxclass" : "newobj",
					"text" : "randdist",
					"fontsize" : 12.0,
					"numinlets" : 1,
					"patching_rect" : [ 48.0, 436.0, 53.0, 20.0 ],
					"numoutlets" : 1,
					"id" : "obj-26",
					"fontname" : "Arial",
					"outlettype" : [ "" ]
				}

			}
, 			{
				"box" : 				{
					"maxclass" : "newobj",
					"text" : "t b l",
					"fontsize" : 12.0,
					"numinlets" : 1,
					"patching_rect" : [ 48.0, 152.0, 32.5, 20.0 ],
					"numoutlets" : 2,
					"id" : "obj-21",
					"fontname" : "Arial",
					"outlettype" : [ "bang", "" ]
				}

			}
, 			{
				"box" : 				{
					"maxclass" : "newobj",
					"text" : "t b b l",
					"fontsize" : 12.0,
					"numinlets" : 1,
					"patching_rect" : [ 48.0, 320.0, 46.0, 20.0 ],
					"numoutlets" : 3,
					"id" : "obj-16",
					"fontname" : "Arial",
					"outlettype" : [ "bang", "bang", "" ]
				}

			}
, 			{
				"box" : 				{
					"maxclass" : "newobj",
					"text" : "randdist",
					"fontsize" : 12.0,
					"numinlets" : 1,
					"patching_rect" : [ 48.0, 348.0, 53.0, 20.0 ],
					"numoutlets" : 1,
					"id" : "obj-11",
					"fontname" : "Arial",
					"outlettype" : [ "" ]
				}

			}
, 			{
				"box" : 				{
					"maxclass" : "newobj",
					"text" : "prepend multinomial",
					"fontsize" : 12.0,
					"numinlets" : 1,
					"patching_rect" : [ 48.0, 296.0, 119.0, 20.0 ],
					"numoutlets" : 1,
					"id" : "obj-10",
					"fontname" : "Arial",
					"outlettype" : [ "" ]
				}

			}
, 			{
				"box" : 				{
					"maxclass" : "newobj",
					"text" : "zl join",
					"fontsize" : 12.0,
					"numinlets" : 2,
					"patching_rect" : [ 48.0, 272.0, 41.0, 20.0 ],
					"numoutlets" : 2,
					"id" : "obj-9",
					"fontname" : "Arial",
					"outlettype" : [ "", "" ]
				}

			}
, 			{
				"box" : 				{
					"maxclass" : "newobj",
					"text" : "randdist uniform 40 80",
					"fontsize" : 12.0,
					"numinlets" : 1,
					"patching_rect" : [ 48.0, 224.0, 130.0, 20.0 ],
					"numoutlets" : 1,
					"id" : "obj-8",
					"fontname" : "Arial",
					"outlettype" : [ "" ]
				}

			}
, 			{
				"box" : 				{
					"maxclass" : "newobj",
					"text" : "t b l l",
					"fontsize" : 12.0,
					"numinlets" : 1,
					"patching_rect" : [ 48.0, 200.0, 46.0, 20.0 ],
					"numoutlets" : 3,
					"id" : "obj-7",
					"fontname" : "Arial",
					"outlettype" : [ "bang", "", "" ]
				}

			}
, 			{
				"box" : 				{
					"maxclass" : "newobj",
					"text" : "prepend dirichlet",
					"fontsize" : 12.0,
					"numinlets" : 1,
					"patching_rect" : [ 48.0, 124.0, 99.0, 20.0 ],
					"numoutlets" : 1,
					"id" : "obj-6",
					"fontname" : "Arial",
					"outlettype" : [ "" ]
				}

			}
, 			{
				"box" : 				{
					"maxclass" : "newobj",
					"text" : "zl group",
					"fontsize" : 12.0,
					"numinlets" : 2,
					"patching_rect" : [ 48.0, 100.0, 53.0, 20.0 ],
					"numoutlets" : 2,
					"id" : "obj-4",
					"fontname" : "Arial",
					"outlettype" : [ "", "" ]
				}

			}
, 			{
				"box" : 				{
					"maxclass" : "newobj",
					"text" : "t 1.",
					"fontsize" : 12.0,
					"numinlets" : 1,
					"patching_rect" : [ 76.0, 76.0, 27.0, 20.0 ],
					"numoutlets" : 1,
					"id" : "obj-3",
					"fontname" : "Arial",
					"outlettype" : [ "float" ]
				}

			}
, 			{
				"box" : 				{
					"maxclass" : "newobj",
					"text" : "uzi 91",
					"fontsize" : 12.0,
					"numinlets" : 2,
					"patching_rect" : [ 48.0, 52.0, 46.0, 20.0 ],
					"numoutlets" : 3,
					"id" : "obj-2",
					"fontname" : "Arial",
					"outlettype" : [ "bang", "bang", "int" ]
				}

			}
, 			{
				"box" : 				{
					"maxclass" : "newobj",
					"text" : "randdist",
					"fontsize" : 12.0,
					"numinlets" : 1,
					"patching_rect" : [ 48.0, 176.0, 53.0, 20.0 ],
					"numoutlets" : 1,
					"id" : "obj-1",
					"fontname" : "Arial",
					"outlettype" : [ "" ]
				}

			}
 ],
		"lines" : [ 			{
				"patchline" : 				{
					"source" : [ "obj-68", 0 ],
					"destination" : [ "obj-31", 0 ],
					"hidden" : 0,
					"midpoints" : [  ]
				}

			}
, 			{
				"patchline" : 				{
					"source" : [ "obj-116", 2 ],
					"destination" : [ "obj-67", 0 ],
					"hidden" : 0,
					"midpoints" : [  ]
				}

			}
, 			{
				"patchline" : 				{
					"source" : [ "obj-116", 0 ],
					"destination" : [ "obj-64", 0 ],
					"hidden" : 0,
					"midpoints" : [  ]
				}

			}
, 			{
				"patchline" : 				{
					"source" : [ "obj-116", 1 ],
					"destination" : [ "obj-83", 0 ],
					"hidden" : 0,
					"midpoints" : [  ]
				}

			}
, 			{
				"patchline" : 				{
					"source" : [ "obj-115", 0 ],
					"destination" : [ "obj-116", 0 ],
					"hidden" : 0,
					"midpoints" : [  ]
				}

			}
, 			{
				"patchline" : 				{
					"source" : [ "obj-60", 0 ],
					"destination" : [ "obj-59", 0 ],
					"hidden" : 0,
					"midpoints" : [  ]
				}

			}
, 			{
				"patchline" : 				{
					"source" : [ "obj-30", 0 ],
					"destination" : [ "obj-60", 0 ],
					"hidden" : 0,
					"midpoints" : [  ]
				}

			}
, 			{
				"patchline" : 				{
					"source" : [ "obj-29", 0 ],
					"destination" : [ "obj-59", 1 ],
					"hidden" : 0,
					"midpoints" : [  ]
				}

			}
, 			{
				"patchline" : 				{
					"source" : [ "obj-87", 0 ],
					"destination" : [ "obj-43", 0 ],
					"hidden" : 0,
					"midpoints" : [  ]
				}

			}
, 			{
				"patchline" : 				{
					"source" : [ "obj-33", 0 ],
					"destination" : [ "obj-22", 0 ],
					"hidden" : 0,
					"midpoints" : [  ]
				}

			}
, 			{
				"patchline" : 				{
					"source" : [ "obj-122", 0 ],
					"destination" : [ "obj-33", 0 ],
					"hidden" : 0,
					"midpoints" : [  ]
				}

			}
, 			{
				"patchline" : 				{
					"source" : [ "obj-22", 0 ],
					"destination" : [ "obj-30", 0 ],
					"hidden" : 0,
					"midpoints" : [  ]
				}

			}
, 			{
				"patchline" : 				{
					"source" : [ "obj-22", 1 ],
					"destination" : [ "obj-30", 0 ],
					"hidden" : 0,
					"midpoints" : [  ]
				}

			}
, 			{
				"patchline" : 				{
					"source" : [ "obj-22", 2 ],
					"destination" : [ "obj-30", 0 ],
					"hidden" : 0,
					"midpoints" : [  ]
				}

			}
, 			{
				"patchline" : 				{
					"source" : [ "obj-22", 3 ],
					"destination" : [ "obj-30", 0 ],
					"hidden" : 0,
					"midpoints" : [  ]
				}

			}
, 			{
				"patchline" : 				{
					"source" : [ "obj-22", 4 ],
					"destination" : [ "obj-30", 0 ],
					"hidden" : 0,
					"midpoints" : [  ]
				}

			}
, 			{
				"patchline" : 				{
					"source" : [ "obj-22", 5 ],
					"destination" : [ "obj-30", 0 ],
					"hidden" : 0,
					"midpoints" : [  ]
				}

			}
, 			{
				"patchline" : 				{
					"source" : [ "obj-22", 6 ],
					"destination" : [ "obj-30", 0 ],
					"hidden" : 0,
					"midpoints" : [  ]
				}

			}
, 			{
				"patchline" : 				{
					"source" : [ "obj-22", 7 ],
					"destination" : [ "obj-30", 0 ],
					"hidden" : 0,
					"midpoints" : [  ]
				}

			}
, 			{
				"patchline" : 				{
					"source" : [ "obj-30", 1 ],
					"destination" : [ "obj-29", 0 ],
					"hidden" : 0,
					"midpoints" : [  ]
				}

			}
, 			{
				"patchline" : 				{
					"source" : [ "obj-26", 0 ],
					"destination" : [ "obj-29", 0 ],
					"hidden" : 0,
					"midpoints" : [  ]
				}

			}
, 			{
				"patchline" : 				{
					"source" : [ "obj-63", 1 ],
					"destination" : [ "obj-20", 0 ],
					"hidden" : 0,
					"midpoints" : [  ]
				}

			}
, 			{
				"patchline" : 				{
					"source" : [ "obj-20", 0 ],
					"destination" : [ "obj-122", 0 ],
					"hidden" : 0,
					"midpoints" : [  ]
				}

			}
, 			{
				"patchline" : 				{
					"source" : [ "obj-65", 0 ],
					"destination" : [ "obj-20", 0 ],
					"hidden" : 0,
					"midpoints" : [  ]
				}

			}
, 			{
				"patchline" : 				{
					"source" : [ "obj-53", 0 ],
					"destination" : [ "obj-98", 0 ],
					"hidden" : 0,
					"midpoints" : [  ]
				}

			}
, 			{
				"patchline" : 				{
					"source" : [ "obj-59", 0 ],
					"destination" : [ "obj-53", 0 ],
					"hidden" : 0,
					"midpoints" : [  ]
				}

			}
, 			{
				"patchline" : 				{
					"source" : [ "obj-11", 0 ],
					"destination" : [ "obj-28", 0 ],
					"hidden" : 0,
					"midpoints" : [  ]
				}

			}
, 			{
				"patchline" : 				{
					"source" : [ "obj-28", 0 ],
					"destination" : [ "obj-44", 0 ],
					"hidden" : 0,
					"midpoints" : [  ]
				}

			}
, 			{
				"patchline" : 				{
					"source" : [ "obj-44", 0 ],
					"destination" : [ "obj-26", 0 ],
					"hidden" : 0,
					"midpoints" : [  ]
				}

			}
, 			{
				"patchline" : 				{
					"source" : [ "obj-16", 0 ],
					"destination" : [ "obj-26", 0 ],
					"hidden" : 0,
					"midpoints" : [ 40.0, 357.0, 40.0, 418.0 ]
				}

			}
, 			{
				"patchline" : 				{
					"source" : [ "obj-54", 1 ],
					"destination" : [ "obj-87", 0 ],
					"hidden" : 0,
					"midpoints" : [  ]
				}

			}
, 			{
				"patchline" : 				{
					"source" : [ "obj-87", 0 ],
					"destination" : [ "obj-28", 1 ],
					"hidden" : 0,
					"midpoints" : [  ]
				}

			}
, 			{
				"patchline" : 				{
					"source" : [ "obj-9", 0 ],
					"destination" : [ "obj-10", 0 ],
					"hidden" : 0,
					"midpoints" : [  ]
				}

			}
, 			{
				"patchline" : 				{
					"source" : [ "obj-10", 0 ],
					"destination" : [ "obj-16", 0 ],
					"hidden" : 0,
					"midpoints" : [  ]
				}

			}
, 			{
				"patchline" : 				{
					"source" : [ "obj-16", 1 ],
					"destination" : [ "obj-11", 0 ],
					"hidden" : 0,
					"midpoints" : [  ]
				}

			}
, 			{
				"patchline" : 				{
					"source" : [ "obj-16", 2 ],
					"destination" : [ "obj-11", 0 ],
					"hidden" : 0,
					"midpoints" : [  ]
				}

			}
, 			{
				"patchline" : 				{
					"source" : [ "obj-54", 0 ],
					"destination" : [ "obj-9", 0 ],
					"hidden" : 0,
					"midpoints" : [  ]
				}

			}
, 			{
				"patchline" : 				{
					"source" : [ "obj-62", 0 ],
					"destination" : [ "obj-65", 0 ],
					"hidden" : 0,
					"midpoints" : [  ]
				}

			}
, 			{
				"patchline" : 				{
					"source" : [ "obj-55", 0 ],
					"destination" : [ "obj-56", 0 ],
					"hidden" : 0,
					"midpoints" : [  ]
				}

			}
, 			{
				"patchline" : 				{
					"source" : [ "obj-21", 1 ],
					"destination" : [ "obj-1", 0 ],
					"hidden" : 0,
					"midpoints" : [  ]
				}

			}
, 			{
				"patchline" : 				{
					"source" : [ "obj-21", 0 ],
					"destination" : [ "obj-1", 0 ],
					"hidden" : 0,
					"midpoints" : [  ]
				}

			}
, 			{
				"patchline" : 				{
					"source" : [ "obj-6", 0 ],
					"destination" : [ "obj-21", 0 ],
					"hidden" : 0,
					"midpoints" : [  ]
				}

			}
, 			{
				"patchline" : 				{
					"source" : [ "obj-4", 0 ],
					"destination" : [ "obj-6", 0 ],
					"hidden" : 0,
					"midpoints" : [  ]
				}

			}
, 			{
				"patchline" : 				{
					"source" : [ "obj-2", 1 ],
					"destination" : [ "obj-4", 0 ],
					"hidden" : 0,
					"midpoints" : [  ]
				}

			}
, 			{
				"patchline" : 				{
					"source" : [ "obj-3", 0 ],
					"destination" : [ "obj-4", 0 ],
					"hidden" : 0,
					"midpoints" : [  ]
				}

			}
, 			{
				"patchline" : 				{
					"source" : [ "obj-2", 2 ],
					"destination" : [ "obj-3", 0 ],
					"hidden" : 0,
					"midpoints" : [  ]
				}

			}
, 			{
				"patchline" : 				{
					"source" : [ "obj-32", 0 ],
					"destination" : [ "obj-31", 0 ],
					"hidden" : 0,
					"midpoints" : [  ]
				}

			}
, 			{
				"patchline" : 				{
					"source" : [ "obj-34", 0 ],
					"destination" : [ "obj-31", 0 ],
					"hidden" : 0,
					"midpoints" : [  ]
				}

			}
, 			{
				"patchline" : 				{
					"source" : [ "obj-31", 0 ],
					"destination" : [ "obj-35", 0 ],
					"hidden" : 0,
					"midpoints" : [  ]
				}

			}
, 			{
				"patchline" : 				{
					"source" : [ "obj-35", 0 ],
					"destination" : [ "obj-36", 0 ],
					"hidden" : 0,
					"midpoints" : [  ]
				}

			}
, 			{
				"patchline" : 				{
					"source" : [ "obj-36", 0 ],
					"destination" : [ "obj-37", 0 ],
					"hidden" : 0,
					"midpoints" : [  ]
				}

			}
, 			{
				"patchline" : 				{
					"source" : [ "obj-36", 0 ],
					"destination" : [ "obj-37", 1 ],
					"hidden" : 0,
					"midpoints" : [  ]
				}

			}
, 			{
				"patchline" : 				{
					"source" : [ "obj-35", 0 ],
					"destination" : [ "obj-38", 0 ],
					"hidden" : 0,
					"midpoints" : [  ]
				}

			}
, 			{
				"patchline" : 				{
					"source" : [ "obj-1", 0 ],
					"destination" : [ "obj-7", 0 ],
					"hidden" : 0,
					"midpoints" : [  ]
				}

			}
, 			{
				"patchline" : 				{
					"source" : [ "obj-7", 1 ],
					"destination" : [ "obj-9", 1 ],
					"hidden" : 0,
					"midpoints" : [  ]
				}

			}
, 			{
				"patchline" : 				{
					"source" : [ "obj-63", 2 ],
					"destination" : [ "obj-61", 0 ],
					"hidden" : 0,
					"midpoints" : [  ]
				}

			}
, 			{
				"patchline" : 				{
					"source" : [ "obj-61", 2 ],
					"destination" : [ "obj-50", 0 ],
					"hidden" : 0,
					"midpoints" : [  ]
				}

			}
, 			{
				"patchline" : 				{
					"source" : [ "obj-50", 0 ],
					"destination" : [ "obj-49", 0 ],
					"hidden" : 0,
					"midpoints" : [  ]
				}

			}
, 			{
				"patchline" : 				{
					"source" : [ "obj-51", 0 ],
					"destination" : [ "obj-50", 0 ],
					"hidden" : 0,
					"midpoints" : [  ]
				}

			}
, 			{
				"patchline" : 				{
					"source" : [ "obj-61", 0 ],
					"destination" : [ "obj-51", 0 ],
					"hidden" : 0,
					"midpoints" : [  ]
				}

			}
, 			{
				"patchline" : 				{
					"source" : [ "obj-49", 0 ],
					"destination" : [ "obj-48", 0 ],
					"hidden" : 0,
					"midpoints" : [  ]
				}

			}
, 			{
				"patchline" : 				{
					"source" : [ "obj-48", 0 ],
					"destination" : [ "obj-62", 0 ],
					"hidden" : 0,
					"midpoints" : [  ]
				}

			}
, 			{
				"patchline" : 				{
					"source" : [ "obj-63", 0 ],
					"destination" : [ "obj-56", 0 ],
					"hidden" : 0,
					"midpoints" : [ 457.0, 343.0, 465.0, 589.0 ]
				}

			}
, 			{
				"patchline" : 				{
					"source" : [ "obj-64", 0 ],
					"destination" : [ "obj-63", 0 ],
					"hidden" : 0,
					"midpoints" : [  ]
				}

			}
, 			{
				"patchline" : 				{
					"source" : [ "obj-83", 0 ],
					"destination" : [ "obj-2", 0 ],
					"hidden" : 0,
					"midpoints" : [  ]
				}

			}
, 			{
				"patchline" : 				{
					"source" : [ "obj-26", 0 ],
					"destination" : [ "obj-84", 0 ],
					"hidden" : 0,
					"midpoints" : [  ]
				}

			}
, 			{
				"patchline" : 				{
					"source" : [ "obj-15", 0 ],
					"destination" : [ "obj-55", 0 ],
					"hidden" : 0,
					"midpoints" : [  ]
				}

			}
, 			{
				"patchline" : 				{
					"source" : [ "obj-98", 0 ],
					"destination" : [ "obj-15", 0 ],
					"hidden" : 0,
					"midpoints" : [  ]
				}

			}
, 			{
				"patchline" : 				{
					"source" : [ "obj-56", 0 ],
					"destination" : [ "obj-113", 1 ],
					"hidden" : 0,
					"midpoints" : [  ]
				}

			}
, 			{
				"patchline" : 				{
					"source" : [ "obj-56", 0 ],
					"destination" : [ "obj-31", 0 ],
					"hidden" : 0,
					"midpoints" : [  ]
				}

			}
, 			{
				"patchline" : 				{
					"source" : [ "obj-84", 0 ],
					"destination" : [ "obj-117", 1 ],
					"hidden" : 0,
					"midpoints" : [  ]
				}

			}
, 			{
				"patchline" : 				{
					"source" : [ "obj-8", 0 ],
					"destination" : [ "obj-54", 0 ],
					"hidden" : 0,
					"midpoints" : [  ]
				}

			}
, 			{
				"patchline" : 				{
					"source" : [ "obj-7", 0 ],
					"destination" : [ "obj-8", 0 ],
					"hidden" : 0,
					"midpoints" : [  ]
				}

			}
 ]
	}

}
