{
	"patcher" : 	{
		"fileversion" : 1,
		"rect" : [ 292.0, 44.0, 1281.0, 783.0 ],
		"bglocked" : 0,
		"defrect" : [ 292.0, 44.0, 1281.0, 783.0 ],
		"openrect" : [ 0.0, 0.0, 0.0, 0.0 ],
		"openinpresentation" : 0,
		"default_fontsize" : 12.0,
		"default_fontface" : 0,
		"default_fontname" : "Arial",
		"gridonopen" : 0,
		"gridsize" : [ 4.0, 4.0 ],
		"gridsnaponopen" : 0,
		"toolbarvisible" : 1,
		"boxanimatetime" : 200,
		"imprint" : 0,
		"enablehscroll" : 1,
		"enablevscroll" : 1,
		"devicewidth" : 0.0,
		"boxes" : [ 			{
				"box" : 				{
					"maxclass" : "newobj",
					"text" : "pack 0. 0.",
					"id" : "obj-59",
					"fontname" : "Arial",
					"outlettype" : [ "" ],
					"patching_rect" : [ 100.0, 576.0, 63.0, 20.0 ],
					"fontsize" : 12.0,
					"numinlets" : 2,
					"numoutlets" : 1
				}

			}
, 			{
				"box" : 				{
					"maxclass" : "newobj",
					"text" : "ftom 1.",
					"id" : "obj-57",
					"fontname" : "Arial",
					"outlettype" : [ "" ],
					"patching_rect" : [ 100.0, 552.0, 47.0, 20.0 ],
					"fontsize" : 12.0,
					"numinlets" : 1,
					"numoutlets" : 1
				}

			}
, 			{
				"box" : 				{
					"maxclass" : "newobj",
					"text" : "unpack 0. 0.",
					"id" : "obj-56",
					"fontname" : "Arial",
					"outlettype" : [ "float", "float" ],
					"patching_rect" : [ 100.0, 528.0, 76.0, 20.0 ],
					"fontsize" : 12.0,
					"numinlets" : 1,
					"numoutlets" : 2
				}

			}
, 			{
				"box" : 				{
					"maxclass" : "flonum",
					"id" : "obj-55",
					"fontname" : "Arial",
					"outlettype" : [ "float", "bang" ],
					"patching_rect" : [ 168.0, 304.0, 50.0, 20.0 ],
					"fontsize" : 12.0,
					"numinlets" : 1,
					"numoutlets" : 2
				}

			}
, 			{
				"box" : 				{
					"maxclass" : "number",
					"id" : "obj-72",
					"fontname" : "Arial",
					"outlettype" : [ "int", "bang" ],
					"patching_rect" : [ 732.0, 728.0, 50.0, 20.0 ],
					"fontsize" : 12.0,
					"numinlets" : 1,
					"numoutlets" : 2
				}

			}
, 			{
				"box" : 				{
					"maxclass" : "newobj",
					"text" : "zl sum",
					"id" : "obj-69",
					"fontname" : "Arial",
					"outlettype" : [ "", "" ],
					"patching_rect" : [ 732.0, 704.0, 45.0, 20.0 ],
					"fontsize" : 12.0,
					"numinlets" : 2,
					"numoutlets" : 2
				}

			}
, 			{
				"box" : 				{
					"maxclass" : "number",
					"id" : "obj-17",
					"fontname" : "Arial",
					"outlettype" : [ "int", "bang" ],
					"patching_rect" : [ 152.0, 260.0, 50.0, 20.0 ],
					"fontsize" : 12.0,
					"numinlets" : 1,
					"numoutlets" : 2
				}

			}
, 			{
				"box" : 				{
					"maxclass" : "multislider",
					"id" : "obj-47",
					"outlettype" : [ "", "" ],
					"patching_rect" : [ 856.0, 48.0, 238.0, 137.0 ],
					"setminmax" : [ 0.0, 20.0 ],
					"size" : 8,
					"numinlets" : 1,
					"numoutlets" : 2
				}

			}
, 			{
				"box" : 				{
					"maxclass" : "message",
					"text" : "clear",
					"id" : "obj-46",
					"fontname" : "Arial",
					"outlettype" : [ "" ],
					"patching_rect" : [ 152.0, 504.0, 37.0, 18.0 ],
					"fontsize" : 12.0,
					"numinlets" : 2,
					"numoutlets" : 1
				}

			}
, 			{
				"box" : 				{
					"maxclass" : "newobj",
					"text" : "zl iter 2",
					"id" : "obj-32",
					"fontname" : "Arial",
					"outlettype" : [ "", "" ],
					"patching_rect" : [ 100.0, 504.0, 49.0, 20.0 ],
					"fontsize" : 12.0,
					"numinlets" : 2,
					"numoutlets" : 2
				}

			}
, 			{
				"box" : 				{
					"maxclass" : "function",
					"id" : "obj-25",
					"outlettype" : [ "float", "", "", "bang" ],
					"domain" : 112.0,
					"patching_rect" : [ 100.0, 616.0, 274.0, 135.0 ],
					"numinlets" : 1,
					"range" : [ 0.0, 5.0 ],
					"numoutlets" : 4,
					"addpoints" : [ 48.800068, 0.0, 0, 49.42065, 0.0, 0, 50.937176, 0.0, 0, 51.48682, 0.0, 0, 51.594685, 0.0, 0, 52.124157, 1.0, 0, 52.228134, 0.0, 0, 53.038216, 1.0, 0, 53.71722, 0.0, 0, 53.906425, 1.0, 0, 54.278751, 0.0, 0, 55.861691, 0.0, 0, 56.521286, 0.0, 0, 57.0, 1.0, 0, 57.993916, 0.0, 0, 58.650043, 0.0, 0, 58.79253, 0.0, 0, 59.213097, 0.0, 0, 59.282207, 0.0, 0, 60.09071, 0.0, 0, 60.800068, 0.0, 0, 61.359581, 0.0, 0, 62.937176, 0.0, 0, 63.432636, 1.0, 0, 63.594685, 0.0, 0, 63.755234, 0.0, 0, 64.228134, 0.0, 0, 65.038216, 0.0, 0, 65.717216, 0.0, 0, 66.278748, 1.0, 0, 66.32473, 0.0, 0, 67.132187, 0.0, 0, 67.861687, 0.0, 0, 68.399513, 0.0, 0, 68.722359, 0.0, 0, 69.0, 0.0, 0, 69.195625, 0.0, 0, 69.993919, 0.0, 0, 70.470268, 0.0, 0, 70.65004, 0.0, 0, 70.792534, 0.0, 0, 71.282204, 0.0, 0, 72.090714, 1.0, 0, 73.359581, 0.0, 0, 73.69281, 2.0, 0, 74.166344, 0.0, 0, 75.432632, 1.0, 0, 75.755234, 0.0, 0, 76.228134, 1.0, 0, 77.038216, 1.0, 0, 77.501862, 1.0, 0, 78.32473, 0.0, 0, 79.132187, 2.0, 0, 80.399513, 0.0, 0, 80.722359, 0.0, 0, 81.0, 0.0, 0, 81.195625, 1.0, 0, 81.599373, 0.0, 0, 82.470268, 0.0, 0, 82.792534, 0.0, 0, 84.529434, 1.0, 0, 85.359581, 0.0, 0, 85.69281, 0.0, 0, 86.166344, 0.0, 0, 87.432632, 0.0, 0, 87.755234, 0.0, 0, 88.228134, 0.0, 0, 88.625252, 0.0, 0, 89.501862, 0.0, 0, 91.554329, 0.0, 0, 92.722359, 0.0, 0, 93.195625, 0.0, 0, 93.599373, 0.0, 0, 95.649025, 0.0, 0, 96.529434, 0.0, 0, 97.69281, 0.0, 0, 98.577446, 2.0, 0, 100.625252, 0.0, 0, 102.671387, 1.0, 0, 103.554329, 0.0, 0, 105.599373, 1.0, 0, 107.649025, 1.0, 0, 109.69281, 2.0, 0, 110.577446, 3.0, 0 ]
				}

			}
, 			{
				"box" : 				{
					"maxclass" : "newobj",
					"text" : "vexpr sqrt($f1)",
					"id" : "obj-86",
					"fontname" : "Arial",
					"outlettype" : [ "" ],
					"patching_rect" : [ 120.0, 180.0, 88.0, 20.0 ],
					"fontsize" : 12.0,
					"numinlets" : 1,
					"numoutlets" : 1
				}

			}
, 			{
				"box" : 				{
					"maxclass" : "newobj",
					"text" : "t b l",
					"id" : "obj-81",
					"fontname" : "Arial",
					"outlettype" : [ "bang", "" ],
					"patching_rect" : [ 652.0, 432.0, 32.5, 20.0 ],
					"fontsize" : 12.0,
					"numinlets" : 1,
					"numoutlets" : 2
				}

			}
, 			{
				"box" : 				{
					"maxclass" : "newobj",
					"text" : "b 2",
					"id" : "obj-76",
					"fontname" : "Arial",
					"outlettype" : [ "bang", "bang" ],
					"patching_rect" : [ 564.0, 636.0, 32.5, 20.0 ],
					"fontsize" : 12.0,
					"numinlets" : 1,
					"numoutlets" : 2
				}

			}
, 			{
				"box" : 				{
					"maxclass" : "newobj",
					"text" : "zl reg",
					"id" : "obj-75",
					"fontname" : "Arial",
					"outlettype" : [ "", "" ],
					"patching_rect" : [ 584.0, 700.0, 40.0, 20.0 ],
					"fontsize" : 12.0,
					"numinlets" : 2,
					"numoutlets" : 2
				}

			}
, 			{
				"box" : 				{
					"maxclass" : "newobj",
					"text" : "zl lace",
					"id" : "obj-74",
					"fontname" : "Arial",
					"outlettype" : [ "", "" ],
					"patching_rect" : [ 624.0, 736.0, 45.0, 20.0 ],
					"fontsize" : 12.0,
					"numinlets" : 2,
					"numoutlets" : 2
				}

			}
, 			{
				"box" : 				{
					"maxclass" : "newobj",
					"text" : "zl len",
					"id" : "obj-70",
					"fontname" : "Arial",
					"outlettype" : [ "", "" ],
					"patching_rect" : [ 484.0, 444.0, 39.0, 20.0 ],
					"fontsize" : 12.0,
					"numinlets" : 2,
					"numoutlets" : 2
				}

			}
, 			{
				"box" : 				{
					"maxclass" : "newobj",
					"text" : "i",
					"id" : "obj-60",
					"fontname" : "Arial",
					"outlettype" : [ "int" ],
					"patching_rect" : [ 624.0, 476.0, 32.5, 20.0 ],
					"fontsize" : 12.0,
					"numinlets" : 2,
					"numoutlets" : 1
				}

			}
, 			{
				"box" : 				{
					"maxclass" : "newobj",
					"text" : "zl group",
					"id" : "obj-58",
					"fontname" : "Arial",
					"outlettype" : [ "", "" ],
					"patching_rect" : [ 652.0, 708.0, 53.0, 20.0 ],
					"fontsize" : 12.0,
					"numinlets" : 2,
					"numoutlets" : 2
				}

			}
, 			{
				"box" : 				{
					"maxclass" : "number",
					"id" : "obj-18",
					"fontname" : "Arial",
					"outlettype" : [ "int", "bang" ],
					"patching_rect" : [ 728.0, 608.0, 50.0, 20.0 ],
					"fontsize" : 12.0,
					"numinlets" : 1,
					"numoutlets" : 2
				}

			}
, 			{
				"box" : 				{
					"maxclass" : "newobj",
					"text" : "/ 1",
					"id" : "obj-19",
					"fontname" : "Arial",
					"outlettype" : [ "int" ],
					"patching_rect" : [ 728.0, 580.0, 32.5, 20.0 ],
					"fontsize" : 12.0,
					"numinlets" : 2,
					"numoutlets" : 1
				}

			}
, 			{
				"box" : 				{
					"maxclass" : "newobj",
					"text" : "prepend multivariate_hypergeometric",
					"id" : "obj-23",
					"fontname" : "Arial",
					"outlettype" : [ "" ],
					"patching_rect" : [ 652.0, 644.0, 209.0, 20.0 ],
					"fontsize" : 12.0,
					"numinlets" : 1,
					"numoutlets" : 1
				}

			}
, 			{
				"box" : 				{
					"maxclass" : "newobj",
					"text" : "zl join",
					"id" : "obj-24",
					"fontname" : "Arial",
					"outlettype" : [ "", "" ],
					"patching_rect" : [ 652.0, 620.0, 41.0, 20.0 ],
					"fontsize" : 12.0,
					"numinlets" : 2,
					"numoutlets" : 2
				}

			}
, 			{
				"box" : 				{
					"maxclass" : "newobj",
					"text" : "randdist",
					"id" : "obj-27",
					"fontname" : "Arial",
					"outlettype" : [ "" ],
					"patching_rect" : [ 652.0, 680.0, 53.0, 20.0 ],
					"fontsize" : 12.0,
					"numinlets" : 1,
					"numoutlets" : 1
				}

			}
, 			{
				"box" : 				{
					"maxclass" : "newobj",
					"text" : "t b b l",
					"id" : "obj-40",
					"fontname" : "Arial",
					"outlettype" : [ "bang", "bang", "" ],
					"patching_rect" : [ 652.0, 564.0, 46.0, 20.0 ],
					"fontsize" : 12.0,
					"numinlets" : 1,
					"numoutlets" : 3
				}

			}
, 			{
				"box" : 				{
					"maxclass" : "newobj",
					"text" : "randdist",
					"id" : "obj-41",
					"fontname" : "Arial",
					"outlettype" : [ "" ],
					"patching_rect" : [ 652.0, 592.0, 53.0, 20.0 ],
					"fontsize" : 12.0,
					"numinlets" : 1,
					"numoutlets" : 1
				}

			}
, 			{
				"box" : 				{
					"maxclass" : "newobj",
					"text" : "prepend multinomial",
					"id" : "obj-42",
					"fontname" : "Arial",
					"outlettype" : [ "" ],
					"patching_rect" : [ 652.0, 540.0, 119.0, 20.0 ],
					"fontsize" : 12.0,
					"numinlets" : 1,
					"numoutlets" : 1
				}

			}
, 			{
				"box" : 				{
					"maxclass" : "newobj",
					"text" : "zl join",
					"id" : "obj-45",
					"fontname" : "Arial",
					"outlettype" : [ "", "" ],
					"patching_rect" : [ 652.0, 516.0, 41.0, 20.0 ],
					"fontsize" : 12.0,
					"numinlets" : 2,
					"numoutlets" : 2
				}

			}
, 			{
				"box" : 				{
					"maxclass" : "newobj",
					"text" : "zl group",
					"id" : "obj-15",
					"fontname" : "Arial",
					"outlettype" : [ "", "" ],
					"patching_rect" : [ 484.0, 580.0, 53.0, 20.0 ],
					"fontsize" : 12.0,
					"numinlets" : 2,
					"numoutlets" : 2
				}

			}
, 			{
				"box" : 				{
					"maxclass" : "newobj",
					"text" : "f",
					"id" : "obj-14",
					"fontname" : "Arial",
					"outlettype" : [ "float" ],
					"patching_rect" : [ 500.0, 556.0, 32.5, 20.0 ],
					"fontsize" : 12.0,
					"numinlets" : 2,
					"numoutlets" : 1
				}

			}
, 			{
				"box" : 				{
					"maxclass" : "newobj",
					"text" : "uzi",
					"id" : "obj-13",
					"fontname" : "Arial",
					"outlettype" : [ "bang", "bang", "int" ],
					"patching_rect" : [ 484.0, 528.0, 46.0, 20.0 ],
					"fontsize" : 12.0,
					"numinlets" : 2,
					"numoutlets" : 3
				}

			}
, 			{
				"box" : 				{
					"maxclass" : "newobj",
					"text" : "!/ 1.",
					"id" : "obj-12",
					"fontname" : "Arial",
					"outlettype" : [ "float" ],
					"patching_rect" : [ 500.0, 500.0, 32.5, 20.0 ],
					"fontsize" : 12.0,
					"numinlets" : 2,
					"numoutlets" : 1
				}

			}
, 			{
				"box" : 				{
					"maxclass" : "newobj",
					"text" : "t i f i",
					"id" : "obj-5",
					"fontname" : "Arial",
					"outlettype" : [ "int", "float", "int" ],
					"patching_rect" : [ 484.0, 476.0, 46.0, 20.0 ],
					"fontsize" : 12.0,
					"numinlets" : 1,
					"numoutlets" : 3
				}

			}
, 			{
				"box" : 				{
					"maxclass" : "message",
					"text" : "0. 0.",
					"id" : "obj-68",
					"fontname" : "Arial",
					"outlettype" : [ "" ],
					"patching_rect" : [ 932.0, 508.0, 34.0, 18.0 ],
					"fontsize" : 12.0,
					"numinlets" : 2,
					"numoutlets" : 1
				}

			}
, 			{
				"box" : 				{
					"maxclass" : "message",
					"text" : "****************************",
					"id" : "obj-67",
					"fontname" : "Arial",
					"outlettype" : [ "" ],
					"patching_rect" : [ 268.0, 144.0, 141.0, 18.0 ],
					"fontsize" : 12.0,
					"numinlets" : 2,
					"numoutlets" : 1
				}

			}
, 			{
				"box" : 				{
					"maxclass" : "number",
					"id" : "obj-43",
					"fontname" : "Arial",
					"outlettype" : [ "int", "bang" ],
					"patching_rect" : [ 100.0, 368.0, 50.0, 20.0 ],
					"fontsize" : 12.0,
					"numinlets" : 1,
					"numoutlets" : 2
				}

			}
, 			{
				"box" : 				{
					"maxclass" : "newobj",
					"text" : "t l l",
					"id" : "obj-33",
					"fontname" : "Arial",
					"outlettype" : [ "", "" ],
					"patching_rect" : [ 468.0, 320.0, 32.5, 20.0 ],
					"fontsize" : 12.0,
					"numinlets" : 1,
					"numoutlets" : 2
				}

			}
, 			{
				"box" : 				{
					"maxclass" : "newobj",
					"text" : "t l b b",
					"id" : "obj-30",
					"fontname" : "Arial",
					"outlettype" : [ "", "bang", "bang" ],
					"patching_rect" : [ 468.0, 372.0, 46.0, 20.0 ],
					"fontsize" : 12.0,
					"numinlets" : 1,
					"numoutlets" : 3
				}

			}
, 			{
				"box" : 				{
					"maxclass" : "newobj",
					"text" : "zl queue",
					"id" : "obj-29",
					"fontname" : "Arial",
					"outlettype" : [ "", "" ],
					"patching_rect" : [ 484.0, 400.0, 56.0, 20.0 ],
					"fontsize" : 12.0,
					"numinlets" : 2,
					"numoutlets" : 2
				}

			}
, 			{
				"box" : 				{
					"maxclass" : "newobj",
					"text" : "route 0 1 2 3 4 5 6 7",
					"id" : "obj-22",
					"fontname" : "Arial",
					"outlettype" : [ "", "", "", "", "", "", "", "", "" ],
					"patching_rect" : [ 468.0, 344.0, 127.0, 20.0 ],
					"fontsize" : 12.0,
					"numinlets" : 1,
					"numoutlets" : 9
				}

			}
, 			{
				"box" : 				{
					"maxclass" : "newobj",
					"text" : "zl group",
					"id" : "obj-20",
					"fontname" : "Arial",
					"outlettype" : [ "", "" ],
					"patching_rect" : [ 468.0, 268.0, 53.0, 20.0 ],
					"fontsize" : 12.0,
					"numinlets" : 2,
					"numoutlets" : 2
				}

			}
, 			{
				"box" : 				{
					"maxclass" : "newobj",
					"text" : "multirange 48 56 64 72 80 88 96 104 112",
					"id" : "obj-122",
					"fontname" : "Arial",
					"outlettype" : [ "", "" ],
					"patching_rect" : [ 468.0, 292.0, 229.0, 20.0 ],
					"fontsize" : 12.0,
					"numinlets" : 1,
					"numoutlets" : 2
				}

			}
, 			{
				"box" : 				{
					"maxclass" : "newobj",
					"text" : "b 3",
					"id" : "obj-116",
					"fontname" : "Arial",
					"outlettype" : [ "bang", "bang", "bang" ],
					"patching_rect" : [ 240.0, 104.0, 46.0, 20.0 ],
					"fontsize" : 12.0,
					"numinlets" : 1,
					"numoutlets" : 3
				}

			}
, 			{
				"box" : 				{
					"maxclass" : "button",
					"id" : "obj-115",
					"outlettype" : [ "bang" ],
					"patching_rect" : [ 240.0, 12.0, 85.0, 85.0 ],
					"numinlets" : 1,
					"numoutlets" : 1
				}

			}
, 			{
				"box" : 				{
					"maxclass" : "multislider",
					"id" : "obj-84",
					"outlettype" : [ "", "" ],
					"patching_rect" : [ 616.0, 48.0, 238.0, 137.0 ],
					"setminmax" : [ 0.0, 20.0 ],
					"size" : 8,
					"numinlets" : 1,
					"numoutlets" : 2
				}

			}
, 			{
				"box" : 				{
					"maxclass" : "message",
					"text" : "8",
					"id" : "obj-83",
					"fontname" : "Arial",
					"outlettype" : [ "" ],
					"patching_rect" : [ 24.0, 24.0, 32.5, 18.0 ],
					"fontsize" : 12.0,
					"numinlets" : 2,
					"numoutlets" : 1
				}

			}
, 			{
				"box" : 				{
					"maxclass" : "message",
					"text" : "880",
					"id" : "obj-64",
					"fontname" : "Arial",
					"outlettype" : [ "" ],
					"patching_rect" : [ 468.0, 40.0, 32.5, 18.0 ],
					"fontsize" : 12.0,
					"numinlets" : 2,
					"numoutlets" : 1
				}

			}
, 			{
				"box" : 				{
					"maxclass" : "newobj",
					"text" : "/ 2.",
					"id" : "obj-87",
					"fontname" : "Arial",
					"outlettype" : [ "float" ],
					"patching_rect" : [ 100.0, 340.0, 32.5, 20.0 ],
					"fontsize" : 12.0,
					"numinlets" : 2,
					"numoutlets" : 1
				}

			}
, 			{
				"box" : 				{
					"maxclass" : "newobj",
					"text" : "prepend multivariate_hypergeometric",
					"id" : "obj-44",
					"fontname" : "Arial",
					"outlettype" : [ "" ],
					"patching_rect" : [ 24.0, 404.0, 209.0, 20.0 ],
					"fontsize" : 12.0,
					"numinlets" : 1,
					"numoutlets" : 1
				}

			}
, 			{
				"box" : 				{
					"maxclass" : "newobj",
					"text" : "zl join",
					"id" : "obj-28",
					"fontname" : "Arial",
					"outlettype" : [ "", "" ],
					"patching_rect" : [ 24.0, 380.0, 41.0, 20.0 ],
					"fontsize" : 12.0,
					"numinlets" : 2,
					"numoutlets" : 2
				}

			}
, 			{
				"box" : 				{
					"maxclass" : "newobj",
					"text" : "zl iter 1",
					"id" : "obj-48",
					"fontname" : "Arial",
					"outlettype" : [ "", "" ],
					"patching_rect" : [ 496.0, 184.0, 49.0, 20.0 ],
					"fontsize" : 12.0,
					"numinlets" : 2,
					"numoutlets" : 2
				}

			}
, 			{
				"box" : 				{
					"maxclass" : "newobj",
					"text" : "zl sort",
					"id" : "obj-49",
					"fontname" : "Arial",
					"outlettype" : [ "", "" ],
					"patching_rect" : [ 496.0, 160.0, 43.0, 20.0 ],
					"fontsize" : 12.0,
					"numinlets" : 2,
					"numoutlets" : 2
				}

			}
, 			{
				"box" : 				{
					"maxclass" : "newobj",
					"text" : "zl group",
					"id" : "obj-50",
					"fontname" : "Arial",
					"outlettype" : [ "", "" ],
					"patching_rect" : [ 496.0, 136.0, 53.0, 20.0 ],
					"fontsize" : 12.0,
					"numinlets" : 2,
					"numoutlets" : 2
				}

			}
, 			{
				"box" : 				{
					"maxclass" : "newobj",
					"text" : "split 137. 5000.",
					"id" : "obj-51",
					"fontname" : "Arial",
					"outlettype" : [ "float", "float" ],
					"patching_rect" : [ 496.0, 112.0, 92.0, 20.0 ],
					"fontsize" : 12.0,
					"numinlets" : 3,
					"numoutlets" : 2
				}

			}
, 			{
				"box" : 				{
					"maxclass" : "newobj",
					"text" : "hailstone",
					"id" : "obj-61",
					"fontname" : "Arial",
					"outlettype" : [ "float", "", "bang", "" ],
					"patching_rect" : [ 496.0, 88.0, 59.5, 20.0 ],
					"fontsize" : 12.0,
					"numinlets" : 1,
					"numoutlets" : 4
				}

			}
, 			{
				"box" : 				{
					"maxclass" : "newobj",
					"text" : "t b b 880",
					"id" : "obj-63",
					"fontname" : "Arial",
					"outlettype" : [ "bang", "bang", "int" ],
					"patching_rect" : [ 468.0, 64.0, 57.0, 20.0 ],
					"fontsize" : 12.0,
					"numinlets" : 1,
					"numoutlets" : 3
				}

			}
, 			{
				"box" : 				{
					"maxclass" : "newobj",
					"text" : "ftom 1.",
					"id" : "obj-65",
					"fontname" : "Arial",
					"outlettype" : [ "" ],
					"patching_rect" : [ 468.0, 244.0, 47.0, 20.0 ],
					"fontsize" : 12.0,
					"numinlets" : 1,
					"numoutlets" : 1
				}

			}
, 			{
				"box" : 				{
					"maxclass" : "newobj",
					"text" : "split 137. 5000.",
					"id" : "obj-62",
					"fontname" : "Arial",
					"outlettype" : [ "float", "float" ],
					"patching_rect" : [ 468.0, 220.0, 92.0, 20.0 ],
					"fontsize" : 12.0,
					"numinlets" : 3,
					"numoutlets" : 2
				}

			}
, 			{
				"box" : 				{
					"maxclass" : "newobj",
					"text" : "t i i",
					"id" : "obj-54",
					"fontname" : "Arial",
					"outlettype" : [ "int", "int" ],
					"patching_rect" : [ 24.0, 252.0, 32.5, 20.0 ],
					"fontsize" : 12.0,
					"numinlets" : 1,
					"numoutlets" : 2
				}

			}
, 			{
				"box" : 				{
					"maxclass" : "spectroscope~",
					"id" : "obj-38",
					"outlettype" : [ "" ],
					"patching_rect" : [ 956.0, 656.0, 300.0, 100.0 ],
					"numinlets" : 2,
					"numoutlets" : 1
				}

			}
, 			{
				"box" : 				{
					"maxclass" : "ezdac~",
					"id" : "obj-37",
					"patching_rect" : [ 892.0, 648.0, 45.0, 45.0 ],
					"numinlets" : 2,
					"numoutlets" : 0
				}

			}
, 			{
				"box" : 				{
					"maxclass" : "gain~",
					"id" : "obj-36",
					"outlettype" : [ "signal", "int" ],
					"patching_rect" : [ 892.0, 584.0, 53.0, 59.0 ],
					"numinlets" : 2,
					"numoutlets" : 2
				}

			}
, 			{
				"box" : 				{
					"maxclass" : "newobj",
					"text" : "sinusoids~",
					"id" : "obj-35",
					"fontname" : "Arial",
					"outlettype" : [ "signal" ],
					"patching_rect" : [ 892.0, 556.0, 68.0, 20.0 ],
					"fontsize" : 12.0,
					"numinlets" : 1,
					"numoutlets" : 1
				}

			}
, 			{
				"box" : 				{
					"maxclass" : "toggle",
					"id" : "obj-34",
					"outlettype" : [ "int" ],
					"patching_rect" : [ 892.0, 508.0, 20.0, 20.0 ],
					"numinlets" : 1,
					"numoutlets" : 1
				}

			}
, 			{
				"box" : 				{
					"maxclass" : "newobj",
					"text" : "migrator @nOsc 40 @fade 20",
					"id" : "obj-31",
					"fontname" : "Arial",
					"outlettype" : [ "list", "list", "int", "bang" ],
					"patching_rect" : [ 892.0, 532.0, 170.0, 20.0 ],
					"fontsize" : 12.0,
					"numinlets" : 1,
					"numoutlets" : 4
				}

			}
, 			{
				"box" : 				{
					"maxclass" : "newobj",
					"text" : "randdist",
					"id" : "obj-26",
					"fontname" : "Arial",
					"outlettype" : [ "" ],
					"patching_rect" : [ 24.0, 440.0, 53.0, 20.0 ],
					"fontsize" : 12.0,
					"numinlets" : 1,
					"numoutlets" : 1
				}

			}
, 			{
				"box" : 				{
					"maxclass" : "newobj",
					"text" : "t b l",
					"id" : "obj-21",
					"fontname" : "Arial",
					"outlettype" : [ "bang", "" ],
					"patching_rect" : [ 24.0, 156.0, 32.5, 20.0 ],
					"fontsize" : 12.0,
					"numinlets" : 1,
					"numoutlets" : 2
				}

			}
, 			{
				"box" : 				{
					"maxclass" : "newobj",
					"text" : "t b b l",
					"id" : "obj-16",
					"fontname" : "Arial",
					"outlettype" : [ "bang", "bang", "" ],
					"patching_rect" : [ 24.0, 324.0, 46.0, 20.0 ],
					"fontsize" : 12.0,
					"numinlets" : 1,
					"numoutlets" : 3
				}

			}
, 			{
				"box" : 				{
					"maxclass" : "newobj",
					"text" : "randdist",
					"id" : "obj-11",
					"fontname" : "Arial",
					"outlettype" : [ "" ],
					"patching_rect" : [ 24.0, 352.0, 53.0, 20.0 ],
					"fontsize" : 12.0,
					"numinlets" : 1,
					"numoutlets" : 1
				}

			}
, 			{
				"box" : 				{
					"maxclass" : "newobj",
					"text" : "prepend multinomial",
					"id" : "obj-10",
					"fontname" : "Arial",
					"outlettype" : [ "" ],
					"patching_rect" : [ 24.0, 300.0, 119.0, 20.0 ],
					"fontsize" : 12.0,
					"numinlets" : 1,
					"numoutlets" : 1
				}

			}
, 			{
				"box" : 				{
					"maxclass" : "newobj",
					"text" : "zl join",
					"id" : "obj-9",
					"fontname" : "Arial",
					"outlettype" : [ "", "" ],
					"patching_rect" : [ 24.0, 276.0, 41.0, 20.0 ],
					"fontsize" : 12.0,
					"numinlets" : 2,
					"numoutlets" : 2
				}

			}
, 			{
				"box" : 				{
					"maxclass" : "newobj",
					"text" : "randdist uniform 40 80",
					"id" : "obj-8",
					"fontname" : "Arial",
					"outlettype" : [ "" ],
					"patching_rect" : [ 24.0, 228.0, 130.0, 20.0 ],
					"fontsize" : 12.0,
					"numinlets" : 1,
					"numoutlets" : 1
				}

			}
, 			{
				"box" : 				{
					"maxclass" : "newobj",
					"text" : "t b l l",
					"id" : "obj-7",
					"fontname" : "Arial",
					"outlettype" : [ "bang", "", "" ],
					"patching_rect" : [ 24.0, 204.0, 46.0, 20.0 ],
					"fontsize" : 12.0,
					"numinlets" : 1,
					"numoutlets" : 3
				}

			}
, 			{
				"box" : 				{
					"maxclass" : "newobj",
					"text" : "prepend dirichlet",
					"id" : "obj-6",
					"fontname" : "Arial",
					"outlettype" : [ "" ],
					"patching_rect" : [ 24.0, 128.0, 99.0, 20.0 ],
					"fontsize" : 12.0,
					"numinlets" : 1,
					"numoutlets" : 1
				}

			}
, 			{
				"box" : 				{
					"maxclass" : "newobj",
					"text" : "zl group",
					"id" : "obj-4",
					"fontname" : "Arial",
					"outlettype" : [ "", "" ],
					"patching_rect" : [ 24.0, 104.0, 53.0, 20.0 ],
					"fontsize" : 12.0,
					"numinlets" : 2,
					"numoutlets" : 2
				}

			}
, 			{
				"box" : 				{
					"maxclass" : "newobj",
					"text" : "t 1.",
					"id" : "obj-3",
					"fontname" : "Arial",
					"outlettype" : [ "float" ],
					"patching_rect" : [ 52.0, 80.0, 27.0, 20.0 ],
					"fontsize" : 12.0,
					"numinlets" : 1,
					"numoutlets" : 1
				}

			}
, 			{
				"box" : 				{
					"maxclass" : "newobj",
					"text" : "uzi 91",
					"id" : "obj-2",
					"fontname" : "Arial",
					"outlettype" : [ "bang", "bang", "int" ],
					"patching_rect" : [ 24.0, 56.0, 46.0, 20.0 ],
					"fontsize" : 12.0,
					"numinlets" : 2,
					"numoutlets" : 3
				}

			}
, 			{
				"box" : 				{
					"maxclass" : "newobj",
					"text" : "randdist",
					"id" : "obj-1",
					"fontname" : "Arial",
					"outlettype" : [ "" ],
					"patching_rect" : [ 24.0, 180.0, 53.0, 20.0 ],
					"fontsize" : 12.0,
					"numinlets" : 1,
					"numoutlets" : 1
				}

			}
 ],
		"lines" : [ 			{
				"patchline" : 				{
					"source" : [ "obj-87", 0 ],
					"destination" : [ "obj-43", 0 ],
					"hidden" : 0,
					"midpoints" : [  ]
				}

			}
, 			{
				"patchline" : 				{
					"source" : [ "obj-54", 1 ],
					"destination" : [ "obj-87", 0 ],
					"hidden" : 0,
					"midpoints" : [  ]
				}

			}
, 			{
				"patchline" : 				{
					"source" : [ "obj-55", 0 ],
					"destination" : [ "obj-87", 1 ],
					"hidden" : 0,
					"midpoints" : [  ]
				}

			}
, 			{
				"patchline" : 				{
					"source" : [ "obj-59", 0 ],
					"destination" : [ "obj-25", 0 ],
					"hidden" : 0,
					"midpoints" : [  ]
				}

			}
, 			{
				"patchline" : 				{
					"source" : [ "obj-56", 1 ],
					"destination" : [ "obj-59", 1 ],
					"hidden" : 0,
					"midpoints" : [  ]
				}

			}
, 			{
				"patchline" : 				{
					"source" : [ "obj-57", 0 ],
					"destination" : [ "obj-59", 0 ],
					"hidden" : 0,
					"midpoints" : [  ]
				}

			}
, 			{
				"patchline" : 				{
					"source" : [ "obj-56", 0 ],
					"destination" : [ "obj-57", 0 ],
					"hidden" : 0,
					"midpoints" : [  ]
				}

			}
, 			{
				"patchline" : 				{
					"source" : [ "obj-32", 0 ],
					"destination" : [ "obj-56", 0 ],
					"hidden" : 0,
					"midpoints" : [  ]
				}

			}
, 			{
				"patchline" : 				{
					"source" : [ "obj-43", 0 ],
					"destination" : [ "obj-28", 1 ],
					"hidden" : 0,
					"midpoints" : [  ]
				}

			}
, 			{
				"patchline" : 				{
					"source" : [ "obj-26", 0 ],
					"destination" : [ "obj-29", 0 ],
					"hidden" : 0,
					"midpoints" : [  ]
				}

			}
, 			{
				"patchline" : 				{
					"source" : [ "obj-11", 0 ],
					"destination" : [ "obj-47", 0 ],
					"hidden" : 0,
					"midpoints" : [  ]
				}

			}
, 			{
				"patchline" : 				{
					"source" : [ "obj-116", 2 ],
					"destination" : [ "obj-46", 0 ],
					"hidden" : 0,
					"midpoints" : [  ]
				}

			}
, 			{
				"patchline" : 				{
					"source" : [ "obj-46", 0 ],
					"destination" : [ "obj-25", 0 ],
					"hidden" : 0,
					"midpoints" : [  ]
				}

			}
, 			{
				"patchline" : 				{
					"source" : [ "obj-74", 0 ],
					"destination" : [ "obj-32", 0 ],
					"hidden" : 0,
					"midpoints" : [  ]
				}

			}
, 			{
				"patchline" : 				{
					"source" : [ "obj-74", 0 ],
					"destination" : [ "obj-31", 0 ],
					"hidden" : 0,
					"midpoints" : [  ]
				}

			}
, 			{
				"patchline" : 				{
					"source" : [ "obj-68", 0 ],
					"destination" : [ "obj-31", 0 ],
					"hidden" : 0,
					"midpoints" : [  ]
				}

			}
, 			{
				"patchline" : 				{
					"source" : [ "obj-34", 0 ],
					"destination" : [ "obj-31", 0 ],
					"hidden" : 0,
					"midpoints" : [  ]
				}

			}
, 			{
				"patchline" : 				{
					"source" : [ "obj-31", 0 ],
					"destination" : [ "obj-35", 0 ],
					"hidden" : 0,
					"midpoints" : [  ]
				}

			}
, 			{
				"patchline" : 				{
					"source" : [ "obj-7", 0 ],
					"destination" : [ "obj-8", 0 ],
					"hidden" : 0,
					"midpoints" : [  ]
				}

			}
, 			{
				"patchline" : 				{
					"source" : [ "obj-8", 0 ],
					"destination" : [ "obj-54", 0 ],
					"hidden" : 0,
					"midpoints" : [  ]
				}

			}
, 			{
				"patchline" : 				{
					"source" : [ "obj-26", 0 ],
					"destination" : [ "obj-84", 0 ],
					"hidden" : 0,
					"midpoints" : [  ]
				}

			}
, 			{
				"patchline" : 				{
					"source" : [ "obj-83", 0 ],
					"destination" : [ "obj-2", 0 ],
					"hidden" : 0,
					"midpoints" : [  ]
				}

			}
, 			{
				"patchline" : 				{
					"source" : [ "obj-64", 0 ],
					"destination" : [ "obj-63", 0 ],
					"hidden" : 0,
					"midpoints" : [  ]
				}

			}
, 			{
				"patchline" : 				{
					"source" : [ "obj-48", 0 ],
					"destination" : [ "obj-62", 0 ],
					"hidden" : 0,
					"midpoints" : [  ]
				}

			}
, 			{
				"patchline" : 				{
					"source" : [ "obj-49", 0 ],
					"destination" : [ "obj-48", 0 ],
					"hidden" : 0,
					"midpoints" : [  ]
				}

			}
, 			{
				"patchline" : 				{
					"source" : [ "obj-61", 0 ],
					"destination" : [ "obj-51", 0 ],
					"hidden" : 0,
					"midpoints" : [  ]
				}

			}
, 			{
				"patchline" : 				{
					"source" : [ "obj-51", 0 ],
					"destination" : [ "obj-50", 0 ],
					"hidden" : 0,
					"midpoints" : [  ]
				}

			}
, 			{
				"patchline" : 				{
					"source" : [ "obj-50", 0 ],
					"destination" : [ "obj-49", 0 ],
					"hidden" : 0,
					"midpoints" : [  ]
				}

			}
, 			{
				"patchline" : 				{
					"source" : [ "obj-61", 2 ],
					"destination" : [ "obj-50", 0 ],
					"hidden" : 0,
					"midpoints" : [  ]
				}

			}
, 			{
				"patchline" : 				{
					"source" : [ "obj-63", 2 ],
					"destination" : [ "obj-61", 0 ],
					"hidden" : 0,
					"midpoints" : [  ]
				}

			}
, 			{
				"patchline" : 				{
					"source" : [ "obj-7", 1 ],
					"destination" : [ "obj-9", 1 ],
					"hidden" : 0,
					"midpoints" : [  ]
				}

			}
, 			{
				"patchline" : 				{
					"source" : [ "obj-35", 0 ],
					"destination" : [ "obj-38", 0 ],
					"hidden" : 0,
					"midpoints" : [  ]
				}

			}
, 			{
				"patchline" : 				{
					"source" : [ "obj-36", 0 ],
					"destination" : [ "obj-37", 1 ],
					"hidden" : 0,
					"midpoints" : [  ]
				}

			}
, 			{
				"patchline" : 				{
					"source" : [ "obj-36", 0 ],
					"destination" : [ "obj-37", 0 ],
					"hidden" : 0,
					"midpoints" : [  ]
				}

			}
, 			{
				"patchline" : 				{
					"source" : [ "obj-35", 0 ],
					"destination" : [ "obj-36", 0 ],
					"hidden" : 0,
					"midpoints" : [  ]
				}

			}
, 			{
				"patchline" : 				{
					"source" : [ "obj-2", 2 ],
					"destination" : [ "obj-3", 0 ],
					"hidden" : 0,
					"midpoints" : [  ]
				}

			}
, 			{
				"patchline" : 				{
					"source" : [ "obj-3", 0 ],
					"destination" : [ "obj-4", 0 ],
					"hidden" : 0,
					"midpoints" : [  ]
				}

			}
, 			{
				"patchline" : 				{
					"source" : [ "obj-2", 1 ],
					"destination" : [ "obj-4", 0 ],
					"hidden" : 0,
					"midpoints" : [  ]
				}

			}
, 			{
				"patchline" : 				{
					"source" : [ "obj-4", 0 ],
					"destination" : [ "obj-6", 0 ],
					"hidden" : 0,
					"midpoints" : [  ]
				}

			}
, 			{
				"patchline" : 				{
					"source" : [ "obj-6", 0 ],
					"destination" : [ "obj-21", 0 ],
					"hidden" : 0,
					"midpoints" : [  ]
				}

			}
, 			{
				"patchline" : 				{
					"source" : [ "obj-21", 0 ],
					"destination" : [ "obj-1", 0 ],
					"hidden" : 0,
					"midpoints" : [  ]
				}

			}
, 			{
				"patchline" : 				{
					"source" : [ "obj-21", 1 ],
					"destination" : [ "obj-1", 0 ],
					"hidden" : 0,
					"midpoints" : [  ]
				}

			}
, 			{
				"patchline" : 				{
					"source" : [ "obj-62", 0 ],
					"destination" : [ "obj-65", 0 ],
					"hidden" : 0,
					"midpoints" : [  ]
				}

			}
, 			{
				"patchline" : 				{
					"source" : [ "obj-54", 0 ],
					"destination" : [ "obj-9", 0 ],
					"hidden" : 0,
					"midpoints" : [  ]
				}

			}
, 			{
				"patchline" : 				{
					"source" : [ "obj-16", 2 ],
					"destination" : [ "obj-11", 0 ],
					"hidden" : 0,
					"midpoints" : [  ]
				}

			}
, 			{
				"patchline" : 				{
					"source" : [ "obj-16", 1 ],
					"destination" : [ "obj-11", 0 ],
					"hidden" : 0,
					"midpoints" : [  ]
				}

			}
, 			{
				"patchline" : 				{
					"source" : [ "obj-10", 0 ],
					"destination" : [ "obj-16", 0 ],
					"hidden" : 0,
					"midpoints" : [  ]
				}

			}
, 			{
				"patchline" : 				{
					"source" : [ "obj-9", 0 ],
					"destination" : [ "obj-10", 0 ],
					"hidden" : 0,
					"midpoints" : [  ]
				}

			}
, 			{
				"patchline" : 				{
					"source" : [ "obj-16", 0 ],
					"destination" : [ "obj-26", 0 ],
					"hidden" : 0,
					"midpoints" : [ 16.0, 361.0, 16.0, 422.0 ]
				}

			}
, 			{
				"patchline" : 				{
					"source" : [ "obj-44", 0 ],
					"destination" : [ "obj-26", 0 ],
					"hidden" : 0,
					"midpoints" : [  ]
				}

			}
, 			{
				"patchline" : 				{
					"source" : [ "obj-28", 0 ],
					"destination" : [ "obj-44", 0 ],
					"hidden" : 0,
					"midpoints" : [  ]
				}

			}
, 			{
				"patchline" : 				{
					"source" : [ "obj-11", 0 ],
					"destination" : [ "obj-28", 0 ],
					"hidden" : 0,
					"midpoints" : [  ]
				}

			}
, 			{
				"patchline" : 				{
					"source" : [ "obj-65", 0 ],
					"destination" : [ "obj-20", 0 ],
					"hidden" : 0,
					"midpoints" : [  ]
				}

			}
, 			{
				"patchline" : 				{
					"source" : [ "obj-20", 0 ],
					"destination" : [ "obj-122", 0 ],
					"hidden" : 0,
					"midpoints" : [  ]
				}

			}
, 			{
				"patchline" : 				{
					"source" : [ "obj-63", 1 ],
					"destination" : [ "obj-20", 0 ],
					"hidden" : 0,
					"midpoints" : [  ]
				}

			}
, 			{
				"patchline" : 				{
					"source" : [ "obj-22", 7 ],
					"destination" : [ "obj-30", 0 ],
					"hidden" : 0,
					"midpoints" : [  ]
				}

			}
, 			{
				"patchline" : 				{
					"source" : [ "obj-22", 6 ],
					"destination" : [ "obj-30", 0 ],
					"hidden" : 0,
					"midpoints" : [  ]
				}

			}
, 			{
				"patchline" : 				{
					"source" : [ "obj-22", 5 ],
					"destination" : [ "obj-30", 0 ],
					"hidden" : 0,
					"midpoints" : [  ]
				}

			}
, 			{
				"patchline" : 				{
					"source" : [ "obj-22", 4 ],
					"destination" : [ "obj-30", 0 ],
					"hidden" : 0,
					"midpoints" : [  ]
				}

			}
, 			{
				"patchline" : 				{
					"source" : [ "obj-22", 3 ],
					"destination" : [ "obj-30", 0 ],
					"hidden" : 0,
					"midpoints" : [  ]
				}

			}
, 			{
				"patchline" : 				{
					"source" : [ "obj-22", 2 ],
					"destination" : [ "obj-30", 0 ],
					"hidden" : 0,
					"midpoints" : [  ]
				}

			}
, 			{
				"patchline" : 				{
					"source" : [ "obj-22", 1 ],
					"destination" : [ "obj-30", 0 ],
					"hidden" : 0,
					"midpoints" : [  ]
				}

			}
, 			{
				"patchline" : 				{
					"source" : [ "obj-22", 0 ],
					"destination" : [ "obj-30", 0 ],
					"hidden" : 0,
					"midpoints" : [  ]
				}

			}
, 			{
				"patchline" : 				{
					"source" : [ "obj-122", 0 ],
					"destination" : [ "obj-33", 0 ],
					"hidden" : 0,
					"midpoints" : [  ]
				}

			}
, 			{
				"patchline" : 				{
					"source" : [ "obj-33", 0 ],
					"destination" : [ "obj-22", 0 ],
					"hidden" : 0,
					"midpoints" : [  ]
				}

			}
, 			{
				"patchline" : 				{
					"source" : [ "obj-115", 0 ],
					"destination" : [ "obj-116", 0 ],
					"hidden" : 0,
					"midpoints" : [  ]
				}

			}
, 			{
				"patchline" : 				{
					"source" : [ "obj-116", 1 ],
					"destination" : [ "obj-83", 0 ],
					"hidden" : 0,
					"midpoints" : [  ]
				}

			}
, 			{
				"patchline" : 				{
					"source" : [ "obj-116", 2 ],
					"destination" : [ "obj-67", 0 ],
					"hidden" : 0,
					"midpoints" : [  ]
				}

			}
, 			{
				"patchline" : 				{
					"source" : [ "obj-12", 0 ],
					"destination" : [ "obj-14", 1 ],
					"hidden" : 0,
					"midpoints" : [  ]
				}

			}
, 			{
				"patchline" : 				{
					"source" : [ "obj-13", 0 ],
					"destination" : [ "obj-14", 0 ],
					"hidden" : 0,
					"midpoints" : [  ]
				}

			}
, 			{
				"patchline" : 				{
					"source" : [ "obj-14", 0 ],
					"destination" : [ "obj-15", 0 ],
					"hidden" : 0,
					"midpoints" : [  ]
				}

			}
, 			{
				"patchline" : 				{
					"source" : [ "obj-13", 1 ],
					"destination" : [ "obj-15", 0 ],
					"hidden" : 0,
					"midpoints" : [  ]
				}

			}
, 			{
				"patchline" : 				{
					"source" : [ "obj-41", 0 ],
					"destination" : [ "obj-24", 0 ],
					"hidden" : 0,
					"midpoints" : [  ]
				}

			}
, 			{
				"patchline" : 				{
					"source" : [ "obj-24", 0 ],
					"destination" : [ "obj-23", 0 ],
					"hidden" : 0,
					"midpoints" : [  ]
				}

			}
, 			{
				"patchline" : 				{
					"source" : [ "obj-23", 0 ],
					"destination" : [ "obj-27", 0 ],
					"hidden" : 0,
					"midpoints" : [  ]
				}

			}
, 			{
				"patchline" : 				{
					"source" : [ "obj-40", 0 ],
					"destination" : [ "obj-27", 0 ],
					"hidden" : 0,
					"midpoints" : [ 644.0, 601.0, 644.0, 662.0 ]
				}

			}
, 			{
				"patchline" : 				{
					"source" : [ "obj-45", 0 ],
					"destination" : [ "obj-42", 0 ],
					"hidden" : 0,
					"midpoints" : [  ]
				}

			}
, 			{
				"patchline" : 				{
					"source" : [ "obj-42", 0 ],
					"destination" : [ "obj-40", 0 ],
					"hidden" : 0,
					"midpoints" : [  ]
				}

			}
, 			{
				"patchline" : 				{
					"source" : [ "obj-40", 1 ],
					"destination" : [ "obj-41", 0 ],
					"hidden" : 0,
					"midpoints" : [  ]
				}

			}
, 			{
				"patchline" : 				{
					"source" : [ "obj-40", 2 ],
					"destination" : [ "obj-41", 0 ],
					"hidden" : 0,
					"midpoints" : [  ]
				}

			}
, 			{
				"patchline" : 				{
					"source" : [ "obj-27", 0 ],
					"destination" : [ "obj-58", 0 ],
					"hidden" : 0,
					"midpoints" : [  ]
				}

			}
, 			{
				"patchline" : 				{
					"source" : [ "obj-5", 0 ],
					"destination" : [ "obj-13", 0 ],
					"hidden" : 0,
					"midpoints" : [  ]
				}

			}
, 			{
				"patchline" : 				{
					"source" : [ "obj-5", 1 ],
					"destination" : [ "obj-12", 0 ],
					"hidden" : 0,
					"midpoints" : [  ]
				}

			}
, 			{
				"patchline" : 				{
					"source" : [ "obj-60", 0 ],
					"destination" : [ "obj-45", 0 ],
					"hidden" : 0,
					"midpoints" : [  ]
				}

			}
, 			{
				"patchline" : 				{
					"source" : [ "obj-30", 1 ],
					"destination" : [ "obj-29", 0 ],
					"hidden" : 0,
					"midpoints" : [  ]
				}

			}
, 			{
				"patchline" : 				{
					"source" : [ "obj-29", 0 ],
					"destination" : [ "obj-60", 1 ],
					"hidden" : 0,
					"midpoints" : [  ]
				}

			}
, 			{
				"patchline" : 				{
					"source" : [ "obj-30", 0 ],
					"destination" : [ "obj-70", 0 ],
					"hidden" : 0,
					"midpoints" : [  ]
				}

			}
, 			{
				"patchline" : 				{
					"source" : [ "obj-70", 0 ],
					"destination" : [ "obj-5", 0 ],
					"hidden" : 0,
					"midpoints" : [  ]
				}

			}
, 			{
				"patchline" : 				{
					"source" : [ "obj-29", 0 ],
					"destination" : [ "obj-19", 0 ],
					"hidden" : 0,
					"midpoints" : [  ]
				}

			}
, 			{
				"patchline" : 				{
					"source" : [ "obj-19", 0 ],
					"destination" : [ "obj-24", 1 ],
					"hidden" : 0,
					"midpoints" : [  ]
				}

			}
, 			{
				"patchline" : 				{
					"source" : [ "obj-19", 0 ],
					"destination" : [ "obj-18", 0 ],
					"hidden" : 0,
					"midpoints" : [  ]
				}

			}
, 			{
				"patchline" : 				{
					"source" : [ "obj-58", 0 ],
					"destination" : [ "obj-74", 1 ],
					"hidden" : 0,
					"midpoints" : [  ]
				}

			}
, 			{
				"patchline" : 				{
					"source" : [ "obj-49", 0 ],
					"destination" : [ "obj-75", 1 ],
					"hidden" : 0,
					"midpoints" : [  ]
				}

			}
, 			{
				"patchline" : 				{
					"source" : [ "obj-75", 0 ],
					"destination" : [ "obj-74", 0 ],
					"hidden" : 0,
					"midpoints" : [  ]
				}

			}
, 			{
				"patchline" : 				{
					"source" : [ "obj-63", 0 ],
					"destination" : [ "obj-76", 0 ],
					"hidden" : 0,
					"midpoints" : [  ]
				}

			}
, 			{
				"patchline" : 				{
					"source" : [ "obj-76", 1 ],
					"destination" : [ "obj-58", 0 ],
					"hidden" : 0,
					"midpoints" : [  ]
				}

			}
, 			{
				"patchline" : 				{
					"source" : [ "obj-76", 0 ],
					"destination" : [ "obj-75", 0 ],
					"hidden" : 0,
					"midpoints" : [  ]
				}

			}
, 			{
				"patchline" : 				{
					"source" : [ "obj-81", 1 ],
					"destination" : [ "obj-45", 1 ],
					"hidden" : 0,
					"midpoints" : [  ]
				}

			}
, 			{
				"patchline" : 				{
					"source" : [ "obj-81", 0 ],
					"destination" : [ "obj-60", 0 ],
					"hidden" : 0,
					"midpoints" : [  ]
				}

			}
, 			{
				"patchline" : 				{
					"source" : [ "obj-15", 0 ],
					"destination" : [ "obj-81", 0 ],
					"hidden" : 0,
					"midpoints" : [  ]
				}

			}
, 			{
				"patchline" : 				{
					"source" : [ "obj-54", 0 ],
					"destination" : [ "obj-17", 0 ],
					"hidden" : 0,
					"midpoints" : [  ]
				}

			}
, 			{
				"patchline" : 				{
					"source" : [ "obj-116", 0 ],
					"destination" : [ "obj-64", 0 ],
					"hidden" : 0,
					"midpoints" : [  ]
				}

			}
, 			{
				"patchline" : 				{
					"source" : [ "obj-1", 0 ],
					"destination" : [ "obj-7", 0 ],
					"hidden" : 0,
					"midpoints" : [  ]
				}

			}
, 			{
				"patchline" : 				{
					"source" : [ "obj-58", 0 ],
					"destination" : [ "obj-69", 0 ],
					"hidden" : 0,
					"midpoints" : [  ]
				}

			}
, 			{
				"patchline" : 				{
					"source" : [ "obj-69", 0 ],
					"destination" : [ "obj-72", 0 ],
					"hidden" : 0,
					"midpoints" : [  ]
				}

			}
 ]
	}

}
